%FSLAX23Y23*%
%MOIN*%
G70*
G01*
G75*
%ADD10R,0.118X0.039*%
%ADD11R,0.118X0.059*%
%ADD12R,0.035X0.031*%
%ADD13C,0.010*%
%ADD14C,0.020*%
%ADD15C,0.039*%
%ADD16C,0.236*%
%ADD17C,0.000*%
%ADD18C,0.000*%
D13*
X15Y205D02*
Y605D01*
Y205D02*
X265D01*
X270Y210D01*
Y605D01*
X15D02*
X270D01*
X235Y580D02*
X215D01*
X225D01*
Y530D01*
X215Y520D01*
X205D01*
X195Y530D01*
D17*
X182Y625D02*
Y775D01*
X182Y625D02*
Y775D01*
X182Y625D02*
Y775D01*
X182Y625D02*
Y775D01*
X181Y625D02*
Y775D01*
X181Y625D02*
Y775D01*
X181Y625D02*
Y775D01*
X180Y625D02*
Y775D01*
X180Y625D02*
Y775D01*
X180Y625D02*
Y775D01*
X179Y625D02*
Y775D01*
X179Y625D02*
Y775D01*
X179Y625D02*
Y775D01*
X178Y625D02*
Y775D01*
X178Y625D02*
Y775D01*
X178Y625D02*
Y775D01*
X178Y625D02*
Y775D01*
X177Y625D02*
Y775D01*
X177Y625D02*
Y775D01*
X177Y625D02*
Y775D01*
X176Y625D02*
Y775D01*
X176Y625D02*
Y775D01*
X176Y625D02*
Y775D01*
X176Y625D02*
Y775D01*
X175Y625D02*
Y775D01*
X175Y625D02*
Y775D01*
X175Y625D02*
Y775D01*
X174Y625D02*
Y775D01*
X174Y625D02*
Y775D01*
X174Y625D02*
Y775D01*
X173Y625D02*
Y775D01*
X173Y625D02*
Y775D01*
X173Y625D02*
Y775D01*
X172Y625D02*
Y775D01*
X172Y625D02*
Y775D01*
X172Y625D02*
Y775D01*
X172Y625D02*
Y775D01*
X171Y625D02*
Y775D01*
X171Y625D02*
Y775D01*
X171Y625D02*
Y775D01*
X170Y625D02*
Y775D01*
X170Y625D02*
Y775D01*
X170Y625D02*
Y775D01*
X169Y625D02*
Y775D01*
X169Y625D02*
Y775D01*
X169Y701D02*
Y775D01*
Y625D02*
Y699D01*
X169Y701D02*
Y775D01*
Y625D02*
Y699D01*
X168Y700D02*
Y775D01*
Y625D02*
Y698D01*
X168Y700D02*
Y775D01*
Y625D02*
Y698D01*
X168Y702D02*
Y775D01*
Y625D02*
Y698D01*
X167Y702D02*
Y775D01*
Y625D02*
Y698D01*
X167Y703D02*
Y775D01*
Y625D02*
Y698D01*
X167Y702D02*
Y775D01*
Y625D02*
Y699D01*
X167Y702D02*
Y775D01*
Y625D02*
Y699D01*
X166Y703D02*
Y775D01*
Y625D02*
Y698D01*
X166Y703D02*
Y775D01*
Y625D02*
Y698D01*
X166Y704D02*
Y775D01*
Y625D02*
Y698D01*
X165Y704D02*
Y775D01*
Y625D02*
Y698D01*
X165Y704D02*
Y775D01*
Y625D02*
Y698D01*
X165Y704D02*
Y775D01*
Y625D02*
Y698D01*
X164Y702D02*
Y775D01*
Y625D02*
Y697D01*
X164Y702D02*
Y775D01*
Y625D02*
Y697D01*
X164Y704D02*
Y775D01*
Y625D02*
Y698D01*
X163Y704D02*
Y775D01*
Y625D02*
Y698D01*
X163Y705D02*
Y775D01*
Y625D02*
Y697D01*
X163Y705D02*
Y775D01*
Y625D02*
Y698D01*
X163Y705D02*
Y775D01*
Y625D02*
Y698D01*
X162Y705D02*
Y775D01*
Y625D02*
Y696D01*
X162Y705D02*
Y775D01*
Y625D02*
Y696D01*
X162Y706D02*
Y775D01*
Y625D02*
Y697D01*
X161Y706D02*
Y775D01*
Y625D02*
Y697D01*
X161Y705D02*
Y775D01*
Y625D02*
Y697D01*
X161Y705D02*
Y775D01*
Y625D02*
Y697D01*
X161Y707D02*
Y775D01*
Y625D02*
Y696D01*
X160Y707D02*
Y775D01*
Y625D02*
Y696D01*
X160Y705D02*
Y775D01*
Y625D02*
Y695D01*
X160Y705D02*
Y775D01*
Y625D02*
Y695D01*
X159Y707D02*
Y775D01*
Y625D02*
Y695D01*
X159Y707D02*
Y775D01*
Y625D02*
Y695D01*
X159Y707D02*
Y775D01*
Y625D02*
Y695D01*
X158Y707D02*
Y775D01*
Y625D02*
Y695D01*
X158Y707D02*
Y775D01*
Y625D02*
Y695D01*
X158Y707D02*
Y775D01*
Y625D02*
Y695D01*
X157Y707D02*
Y775D01*
Y625D02*
Y695D01*
X157Y707D02*
Y775D01*
Y625D02*
Y694D01*
X157Y707D02*
Y775D01*
Y625D02*
Y694D01*
X157Y708D02*
Y775D01*
Y625D02*
Y695D01*
X156Y708D02*
Y775D01*
Y625D02*
Y695D01*
X156Y707D02*
Y775D01*
Y625D02*
Y694D01*
X156Y707D02*
Y775D01*
Y625D02*
Y694D01*
X155Y708D02*
Y775D01*
Y625D02*
Y693D01*
X155Y708D02*
Y775D01*
Y625D02*
Y693D01*
X155Y709D02*
Y775D01*
Y625D02*
Y693D01*
X154Y709D02*
Y775D01*
Y625D02*
Y693D01*
X154Y707D02*
Y775D01*
Y625D02*
Y693D01*
X154Y709D02*
Y775D01*
Y625D02*
Y694D01*
X154Y709D02*
Y775D01*
Y625D02*
Y694D01*
X153Y709D02*
Y775D01*
Y625D02*
Y692D01*
X153Y709D02*
Y775D01*
Y625D02*
Y692D01*
X153Y710D02*
Y775D01*
Y625D02*
Y693D01*
X152Y710D02*
Y775D01*
Y625D02*
Y693D01*
X152Y710D02*
Y775D01*
Y625D02*
Y692D01*
X152Y710D02*
Y775D01*
Y625D02*
Y692D01*
X152Y710D02*
Y775D01*
Y625D02*
Y692D01*
X151Y710D02*
Y775D01*
Y625D02*
Y692D01*
X151Y711D02*
Y775D01*
Y625D02*
Y692D01*
X151Y711D02*
Y775D01*
Y625D02*
Y692D01*
X150Y709D02*
Y775D01*
Y625D02*
Y691D01*
X150Y709D02*
Y775D01*
Y625D02*
Y691D01*
X150Y711D02*
Y775D01*
Y625D02*
Y691D01*
X149Y711D02*
Y775D01*
Y625D02*
Y691D01*
X149Y711D02*
Y775D01*
Y625D02*
Y691D01*
X149Y711D02*
Y775D01*
Y625D02*
Y691D01*
X148Y711D02*
Y775D01*
Y625D02*
Y691D01*
X148Y711D02*
Y775D01*
Y625D02*
Y690D01*
X148Y711D02*
Y775D01*
Y625D02*
Y690D01*
X148Y711D02*
Y775D01*
Y625D02*
Y691D01*
X147Y711D02*
Y775D01*
Y625D02*
Y691D01*
X147Y712D02*
Y775D01*
Y625D02*
Y691D01*
X147Y712D02*
Y775D01*
Y625D02*
Y691D01*
X146Y711D02*
Y775D01*
Y625D02*
Y690D01*
X146Y711D02*
Y775D01*
Y625D02*
Y690D01*
X146Y712D02*
Y775D01*
Y625D02*
Y689D01*
X146Y711D02*
Y775D01*
Y625D02*
Y689D01*
X145Y711D02*
Y775D01*
Y625D02*
Y689D01*
X145Y713D02*
Y775D01*
Y625D02*
Y689D01*
X145Y713D02*
Y775D01*
Y625D02*
Y689D01*
X144Y713D02*
Y775D01*
Y625D02*
Y689D01*
X144Y713D02*
Y775D01*
Y625D02*
Y689D01*
X144Y713D02*
Y775D01*
Y625D02*
Y689D01*
X143Y713D02*
Y775D01*
Y625D02*
Y689D01*
X143Y714D02*
Y775D01*
Y625D02*
Y689D01*
X143Y714D02*
Y775D01*
Y625D02*
Y689D01*
X142Y714D02*
Y775D01*
Y625D02*
Y688D01*
X142Y714D02*
Y775D01*
Y625D02*
Y688D01*
X142Y714D02*
Y775D01*
Y625D02*
Y689D01*
X142Y714D02*
Y775D01*
Y625D02*
Y689D01*
X141Y714D02*
Y775D01*
Y625D02*
Y687D01*
X141Y715D02*
Y775D01*
Y704D02*
Y707D01*
Y625D02*
Y688D01*
X141Y715D02*
Y775D01*
Y704D02*
Y707D01*
Y625D02*
Y688D01*
X140Y715D02*
Y775D01*
Y704D02*
Y707D01*
Y625D02*
Y687D01*
X140Y715D02*
Y775D01*
Y704D02*
Y707D01*
Y625D02*
Y687D01*
X140Y715D02*
Y775D01*
Y705D02*
Y707D01*
Y625D02*
Y687D01*
X140Y715D02*
Y775D01*
Y705D02*
Y707D01*
Y625D02*
Y687D01*
X139Y715D02*
Y775D01*
Y704D02*
Y707D01*
Y625D02*
Y687D01*
X139Y715D02*
Y775D01*
Y704D02*
Y707D01*
Y625D02*
Y687D01*
X139Y715D02*
Y775D01*
Y705D02*
Y709D01*
Y625D02*
Y686D01*
X138Y715D02*
Y775D01*
Y705D02*
Y709D01*
Y625D02*
Y686D01*
X138Y715D02*
Y775D01*
Y703D02*
Y707D01*
Y625D02*
Y689D01*
X138Y715D02*
Y775D01*
Y703D02*
Y707D01*
Y625D02*
Y689D01*
X137Y716D02*
Y775D01*
Y704D02*
Y709D01*
Y625D02*
Y686D01*
X137Y716D02*
Y775D01*
Y704D02*
Y709D01*
Y625D02*
Y686D01*
X137Y715D02*
Y775D01*
Y704D02*
Y708D01*
Y625D02*
Y686D01*
X137Y716D02*
Y775D01*
Y703D02*
Y710D01*
Y625D02*
Y686D01*
X136Y716D02*
Y775D01*
Y703D02*
Y710D01*
Y625D02*
Y686D01*
X136Y715D02*
Y775D01*
Y704D02*
Y710D01*
Y625D02*
Y686D01*
X136Y715D02*
Y775D01*
Y704D02*
Y710D01*
Y625D02*
Y686D01*
X135Y715D02*
Y775D01*
Y703D02*
Y709D01*
Y625D02*
Y685D01*
X135Y715D02*
Y775D01*
Y703D02*
Y709D01*
Y625D02*
Y685D01*
X135Y717D02*
Y775D01*
Y702D02*
Y711D01*
Y625D02*
Y685D01*
X134Y717D02*
Y775D01*
Y702D02*
Y711D01*
Y625D02*
Y685D01*
X134Y716D02*
Y775D01*
Y702D02*
Y709D01*
Y625D02*
Y685D01*
X134Y716D02*
Y775D01*
Y702D02*
Y709D01*
Y625D02*
Y685D01*
X133Y718D02*
Y775D01*
Y702D02*
Y711D01*
Y625D02*
Y685D01*
X133Y718D02*
Y775D01*
Y702D02*
Y711D01*
Y625D02*
Y685D01*
X133Y718D02*
Y775D01*
Y701D02*
Y710D01*
Y625D02*
Y684D01*
X133Y718D02*
Y775D01*
Y701D02*
Y710D01*
Y625D02*
Y684D01*
X132Y718D02*
Y775D01*
Y702D02*
Y711D01*
Y625D02*
Y684D01*
X132Y719D02*
Y775D01*
Y702D02*
Y711D01*
Y625D02*
Y685D01*
X132Y719D02*
Y775D01*
Y702D02*
Y711D01*
Y625D02*
Y685D01*
X131Y718D02*
Y775D01*
Y701D02*
Y711D01*
Y625D02*
Y684D01*
X131Y718D02*
Y775D01*
Y701D02*
Y711D01*
Y625D02*
Y684D01*
X131Y719D02*
Y775D01*
Y701D02*
Y711D01*
Y625D02*
Y683D01*
X131Y719D02*
Y775D01*
Y701D02*
Y711D01*
Y625D02*
Y683D01*
X130Y719D02*
Y775D01*
Y701D02*
Y711D01*
Y625D02*
Y683D01*
X130Y719D02*
Y775D01*
Y701D02*
Y711D01*
Y625D02*
Y683D01*
X130Y720D02*
Y775D01*
Y700D02*
Y711D01*
Y625D02*
Y684D01*
X129Y720D02*
Y775D01*
Y700D02*
Y711D01*
Y625D02*
Y684D01*
X129Y720D02*
Y775D01*
Y701D02*
Y712D01*
Y625D02*
Y683D01*
X129Y720D02*
Y775D01*
Y701D02*
Y712D01*
Y625D02*
Y683D01*
X128Y720D02*
Y775D01*
Y700D02*
Y711D01*
Y625D02*
Y684D01*
X128Y720D02*
Y775D01*
Y700D02*
Y712D01*
Y625D02*
Y682D01*
X128Y720D02*
Y775D01*
Y700D02*
Y712D01*
Y625D02*
Y682D01*
X127Y720D02*
Y775D01*
Y699D02*
Y712D01*
Y625D02*
Y682D01*
X127Y720D02*
Y775D01*
Y699D02*
Y712D01*
Y625D02*
Y682D01*
X127Y720D02*
Y775D01*
Y700D02*
Y713D01*
Y625D02*
Y682D01*
X127Y720D02*
Y775D01*
Y700D02*
Y713D01*
Y625D02*
Y682D01*
X126Y720D02*
Y775D01*
Y700D02*
Y713D01*
Y625D02*
Y682D01*
X126Y720D02*
Y775D01*
Y700D02*
Y713D01*
Y625D02*
Y682D01*
X126Y720D02*
Y775D01*
Y699D02*
Y714D01*
Y625D02*
Y682D01*
X125Y720D02*
Y775D01*
Y699D02*
Y714D01*
Y625D02*
Y682D01*
X125Y722D02*
Y775D01*
Y698D02*
Y713D01*
Y625D02*
Y681D01*
X125Y722D02*
Y775D01*
Y698D02*
Y713D01*
Y625D02*
Y681D01*
X124Y720D02*
Y775D01*
Y698D02*
Y714D01*
Y625D02*
Y680D01*
X124Y720D02*
Y775D01*
Y698D02*
Y714D01*
Y625D02*
Y680D01*
X124Y722D02*
Y775D01*
Y698D02*
Y714D01*
Y625D02*
Y680D01*
X124Y722D02*
Y775D01*
Y698D02*
Y715D01*
Y625D02*
Y680D01*
X123Y722D02*
Y775D01*
Y698D02*
Y715D01*
Y625D02*
Y680D01*
X123Y723D02*
Y775D01*
Y698D02*
Y714D01*
Y625D02*
Y680D01*
X123Y723D02*
Y775D01*
Y698D02*
Y714D01*
Y625D02*
Y680D01*
X122Y721D02*
Y775D01*
Y698D02*
Y715D01*
Y625D02*
Y680D01*
X122Y721D02*
Y775D01*
Y698D02*
Y715D01*
Y625D02*
Y680D01*
X122Y723D02*
Y775D01*
Y697D02*
Y715D01*
Y625D02*
Y681D01*
X122Y723D02*
Y775D01*
Y697D02*
Y715D01*
Y625D02*
Y681D01*
X121Y723D02*
Y775D01*
Y698D02*
Y715D01*
Y625D02*
Y680D01*
X121Y723D02*
Y775D01*
Y698D02*
Y715D01*
Y625D02*
Y680D01*
X121Y723D02*
Y775D01*
Y697D02*
Y715D01*
Y625D02*
Y679D01*
X120Y723D02*
Y775D01*
Y697D02*
Y715D01*
Y625D02*
Y679D01*
X120Y724D02*
Y775D01*
Y697D02*
Y716D01*
Y625D02*
Y680D01*
X120Y724D02*
Y775D01*
Y697D02*
Y716D01*
Y625D02*
Y680D01*
X119Y723D02*
Y775D01*
Y697D02*
Y716D01*
Y625D02*
Y679D01*
X119Y724D02*
Y775D01*
Y696D02*
Y715D01*
Y625D02*
Y678D01*
X119Y724D02*
Y775D01*
Y696D02*
Y715D01*
Y625D02*
Y678D01*
X119Y724D02*
Y775D01*
Y696D02*
Y716D01*
Y625D02*
Y678D01*
X118Y724D02*
Y775D01*
Y696D02*
Y716D01*
Y625D02*
Y678D01*
X118Y724D02*
Y775D01*
Y695D02*
Y716D01*
Y625D02*
Y680D01*
X118Y724D02*
Y775D01*
Y695D02*
Y716D01*
Y625D02*
Y680D01*
X117Y724D02*
Y775D01*
Y695D02*
Y717D01*
Y625D02*
Y678D01*
X117Y724D02*
Y775D01*
Y695D02*
Y717D01*
Y625D02*
Y678D01*
X117Y725D02*
Y775D01*
Y696D02*
Y716D01*
Y625D02*
Y677D01*
X116Y725D02*
Y775D01*
Y696D02*
Y716D01*
Y625D02*
Y677D01*
X116Y725D02*
Y775D01*
Y695D02*
Y717D01*
Y625D02*
Y678D01*
X116Y725D02*
Y775D01*
Y695D02*
Y717D01*
Y625D02*
Y678D01*
X116Y725D02*
Y775D01*
Y695D02*
Y717D01*
Y625D02*
Y677D01*
X115Y725D02*
Y775D01*
Y695D02*
Y717D01*
Y625D02*
Y677D01*
X115Y726D02*
Y775D01*
Y695D02*
Y717D01*
Y625D02*
Y678D01*
X115Y725D02*
Y775D01*
Y693D02*
Y718D01*
Y625D02*
Y677D01*
X114Y725D02*
Y775D01*
Y693D02*
Y718D01*
Y625D02*
Y677D01*
X114Y726D02*
Y775D01*
Y694D02*
Y718D01*
Y625D02*
Y676D01*
X114Y726D02*
Y775D01*
Y694D02*
Y718D01*
Y625D02*
Y676D01*
X113Y725D02*
Y775D01*
Y693D02*
Y720D01*
Y625D02*
Y677D01*
X113Y725D02*
Y775D01*
Y693D02*
Y720D01*
Y625D02*
Y677D01*
X113Y727D02*
Y775D01*
Y694D02*
Y719D01*
Y625D02*
Y676D01*
X112Y727D02*
Y775D01*
Y694D02*
Y719D01*
Y625D02*
Y676D01*
X112Y727D02*
Y775D01*
Y693D02*
Y719D01*
Y625D02*
Y676D01*
X112Y727D02*
Y775D01*
Y693D02*
Y719D01*
Y625D02*
Y676D01*
X112Y727D02*
Y775D01*
Y693D02*
Y720D01*
Y625D02*
Y676D01*
X111Y727D02*
Y775D01*
Y693D02*
Y720D01*
Y625D02*
Y676D01*
X111Y728D02*
Y775D01*
Y692D02*
Y719D01*
Y625D02*
Y676D01*
X111Y727D02*
Y775D01*
Y693D02*
Y720D01*
Y625D02*
Y675D01*
X110Y727D02*
Y775D01*
Y693D02*
Y720D01*
Y625D02*
Y675D01*
X110Y728D02*
Y775D01*
Y693D02*
Y720D01*
Y625D02*
Y674D01*
X110Y728D02*
Y775D01*
Y693D02*
Y720D01*
Y625D02*
Y674D01*
X109Y727D02*
Y775D01*
Y692D02*
Y720D01*
Y625D02*
Y674D01*
X109Y727D02*
Y775D01*
Y692D02*
Y720D01*
Y625D02*
Y674D01*
X109Y729D02*
Y775D01*
Y692D02*
Y720D01*
Y625D02*
Y674D01*
X109Y729D02*
Y775D01*
Y692D02*
Y720D01*
Y625D02*
Y674D01*
X108Y729D02*
Y775D01*
Y692D02*
Y720D01*
Y625D02*
Y675D01*
X108Y729D02*
Y775D01*
Y692D02*
Y720D01*
Y625D02*
Y675D01*
X108Y729D02*
Y775D01*
Y692D02*
Y721D01*
Y625D02*
Y675D01*
X107Y729D02*
Y775D01*
Y692D02*
Y721D01*
Y625D02*
Y675D01*
X107Y729D02*
Y775D01*
Y691D02*
Y723D01*
Y625D02*
Y673D01*
X107Y729D02*
Y775D01*
Y691D02*
Y723D01*
Y625D02*
Y673D01*
X106Y729D02*
Y775D01*
Y691D02*
Y721D01*
Y625D02*
Y674D01*
X106Y729D02*
Y775D01*
Y691D02*
Y723D01*
Y625D02*
Y673D01*
X106Y729D02*
Y775D01*
Y691D02*
Y723D01*
Y625D02*
Y673D01*
X106Y729D02*
Y775D01*
Y691D02*
Y722D01*
Y625D02*
Y673D01*
X105Y729D02*
Y775D01*
Y691D02*
Y722D01*
Y625D02*
Y673D01*
X105Y730D02*
Y775D01*
Y691D02*
Y723D01*
Y625D02*
Y673D01*
X105Y730D02*
Y775D01*
Y691D02*
Y723D01*
Y625D02*
Y673D01*
X104Y731D02*
Y775D01*
Y690D02*
Y723D01*
Y625D02*
Y672D01*
X104Y731D02*
Y775D01*
Y690D02*
Y723D01*
Y625D02*
Y672D01*
X104Y729D02*
Y775D01*
Y689D02*
Y722D01*
Y625D02*
Y672D01*
X104Y729D02*
Y775D01*
Y689D02*
Y722D01*
Y625D02*
Y672D01*
X103Y731D02*
Y775D01*
Y689D02*
Y723D01*
Y625D02*
Y672D01*
X103Y731D02*
Y775D01*
Y689D02*
Y723D01*
Y625D02*
Y672D01*
X103Y730D02*
Y775D01*
Y689D02*
Y724D01*
Y625D02*
Y672D01*
X102Y730D02*
Y775D01*
Y689D02*
Y724D01*
Y625D02*
Y672D01*
X102Y731D02*
Y775D01*
Y689D02*
Y723D01*
Y625D02*
Y672D01*
X102Y730D02*
Y775D01*
Y688D02*
Y723D01*
Y625D02*
Y671D01*
X101Y730D02*
Y775D01*
Y688D02*
Y723D01*
Y625D02*
Y671D01*
X101Y732D02*
Y775D01*
Y689D02*
Y724D01*
Y625D02*
Y672D01*
X101Y732D02*
Y775D01*
Y689D02*
Y724D01*
Y625D02*
Y672D01*
X101Y732D02*
Y775D01*
Y689D02*
Y725D01*
Y625D02*
Y671D01*
X100Y732D02*
Y775D01*
Y689D02*
Y725D01*
Y625D02*
Y671D01*
X100Y732D02*
Y775D01*
Y688D02*
Y724D01*
Y625D02*
Y671D01*
X100Y732D02*
Y775D01*
Y688D02*
Y724D01*
Y625D02*
Y671D01*
X99Y732D02*
Y775D01*
Y689D02*
Y725D01*
Y625D02*
Y672D01*
X99Y732D02*
Y775D01*
Y689D02*
Y725D01*
Y625D02*
Y672D01*
X99Y732D02*
Y775D01*
Y688D02*
Y724D01*
Y625D02*
Y671D01*
X98Y732D02*
Y775D01*
Y688D02*
Y724D01*
Y625D02*
Y671D01*
X98Y733D02*
Y775D01*
Y687D02*
Y725D01*
Y625D02*
Y670D01*
X98Y733D02*
Y775D01*
Y687D02*
Y725D01*
Y625D02*
Y669D01*
X97Y733D02*
Y775D01*
Y687D02*
Y725D01*
Y625D02*
Y669D01*
X97Y733D02*
Y775D01*
Y687D02*
Y726D01*
Y625D02*
Y669D01*
X97Y733D02*
Y775D01*
Y687D02*
Y726D01*
Y625D02*
Y669D01*
X97Y734D02*
Y775D01*
Y687D02*
Y725D01*
Y625D02*
Y669D01*
X96Y734D02*
Y775D01*
Y687D02*
Y725D01*
Y625D02*
Y669D01*
X96Y733D02*
Y775D01*
Y687D02*
Y725D01*
Y625D02*
Y669D01*
X96Y733D02*
Y775D01*
Y687D02*
Y725D01*
Y625D02*
Y669D01*
X95Y734D02*
Y775D01*
Y686D02*
Y726D01*
Y625D02*
Y669D01*
X95Y734D02*
Y775D01*
Y686D02*
Y726D01*
Y625D02*
Y669D01*
X95Y734D02*
Y775D01*
Y625D02*
Y668D01*
X94Y734D02*
Y775D01*
Y625D02*
Y668D01*
X94Y734D02*
Y775D01*
Y625D02*
Y668D01*
X94Y734D02*
Y775D01*
Y625D02*
Y668D01*
X94Y734D02*
Y775D01*
Y625D02*
Y668D01*
X93Y735D02*
Y775D01*
Y625D02*
Y668D01*
X93Y735D02*
Y775D01*
Y625D02*
Y668D01*
X93Y735D02*
Y775D01*
Y625D02*
Y667D01*
X92Y735D02*
Y775D01*
Y625D02*
Y667D01*
X92Y736D02*
Y775D01*
Y625D02*
Y667D01*
X92Y736D02*
Y775D01*
Y625D02*
Y667D01*
X91Y735D02*
Y775D01*
Y625D02*
Y668D01*
X91Y735D02*
Y775D01*
Y625D02*
Y668D01*
X91Y736D02*
Y775D01*
Y625D02*
Y667D01*
X91Y736D02*
Y775D01*
Y625D02*
Y667D01*
X90Y735D02*
Y775D01*
Y625D02*
Y667D01*
X90Y735D02*
Y775D01*
Y625D02*
Y667D01*
X90Y737D02*
Y775D01*
Y625D02*
Y666D01*
X89Y737D02*
Y775D01*
Y625D02*
Y666D01*
X89Y736D02*
Y775D01*
Y625D02*
Y667D01*
X89Y736D02*
Y775D01*
Y625D02*
Y666D01*
X89Y736D02*
Y775D01*
Y625D02*
Y666D01*
X88Y738D02*
Y775D01*
Y625D02*
Y666D01*
X88Y738D02*
Y775D01*
Y625D02*
Y666D01*
X88Y736D02*
Y775D01*
Y625D02*
Y665D01*
X87Y736D02*
Y775D01*
Y625D02*
Y665D01*
X87Y738D02*
Y775D01*
Y625D02*
Y665D01*
X87Y738D02*
Y775D01*
Y625D02*
Y665D01*
X86Y736D02*
Y775D01*
Y682D02*
Y730D01*
Y625D02*
Y665D01*
X86Y736D02*
Y775D01*
Y682D02*
Y730D01*
Y625D02*
Y665D01*
X86Y738D02*
Y775D01*
Y682D02*
Y731D01*
Y625D02*
Y664D01*
X86Y738D02*
Y775D01*
Y682D02*
Y731D01*
Y625D02*
Y664D01*
X85Y738D02*
Y775D01*
Y681D02*
Y730D01*
Y625D02*
Y664D01*
X85Y738D02*
Y775D01*
Y681D02*
Y730D01*
Y625D02*
Y664D01*
X85Y739D02*
Y775D01*
Y682D02*
Y731D01*
Y625D02*
Y667D01*
X84Y739D02*
Y775D01*
Y682D02*
Y732D01*
Y680D02*
Y682D01*
Y625D02*
Y664D01*
X84Y739D02*
Y775D01*
Y682D02*
Y732D01*
Y680D02*
Y682D01*
Y625D02*
Y664D01*
X84Y739D02*
Y775D01*
Y682D02*
Y731D01*
Y625D02*
Y664D01*
X83Y739D02*
Y775D01*
Y682D02*
Y731D01*
Y625D02*
Y664D01*
X83Y740D02*
Y775D01*
Y682D02*
Y732D01*
Y625D02*
Y663D01*
X83Y740D02*
Y775D01*
Y682D02*
Y732D01*
Y625D02*
Y663D01*
X83Y739D02*
Y775D01*
Y681D02*
Y731D01*
Y625D02*
Y663D01*
X82Y739D02*
Y775D01*
Y681D02*
Y731D01*
Y625D02*
Y663D01*
X82Y740D02*
Y775D01*
Y680D02*
Y732D01*
Y625D02*
Y663D01*
X82Y740D02*
Y775D01*
Y680D02*
Y732D01*
Y625D02*
Y663D01*
X81Y741D02*
Y775D01*
Y681D02*
Y732D01*
Y625D02*
Y665D01*
X81Y741D02*
Y775D01*
Y681D02*
Y732D01*
Y625D02*
Y665D01*
X81Y741D02*
Y775D01*
Y680D02*
Y732D01*
Y625D02*
Y663D01*
X80Y738D02*
Y775D01*
Y680D02*
Y733D01*
Y625D02*
Y663D01*
X80Y738D02*
Y775D01*
Y680D02*
Y733D01*
Y625D02*
Y663D01*
X80Y741D02*
Y775D01*
Y680D02*
Y733D01*
Y625D02*
Y662D01*
X79Y741D02*
Y775D01*
Y680D02*
Y733D01*
Y625D02*
Y662D01*
X79Y741D02*
Y775D01*
Y680D02*
Y734D01*
Y625D02*
Y662D01*
X79Y741D02*
Y775D01*
Y680D02*
Y734D01*
Y625D02*
Y662D01*
X79Y742D02*
Y775D01*
Y680D02*
Y733D01*
Y625D02*
Y662D01*
X78Y742D02*
Y775D01*
Y680D02*
Y733D01*
Y625D02*
Y662D01*
X78Y742D02*
Y775D01*
Y680D02*
Y734D01*
Y625D02*
Y663D01*
X78Y742D02*
Y775D01*
Y680D02*
Y734D01*
Y625D02*
Y663D01*
X77Y742D02*
Y775D01*
Y679D02*
Y733D01*
Y625D02*
Y662D01*
X77Y742D02*
Y775D01*
Y679D02*
Y733D01*
Y625D02*
Y662D01*
X77Y740D02*
Y775D01*
Y678D02*
Y734D01*
Y625D02*
Y661D01*
X76Y740D02*
Y775D01*
Y678D02*
Y734D01*
Y625D02*
Y661D01*
X76Y742D02*
Y775D01*
Y678D02*
Y734D01*
Y625D02*
Y661D01*
X76Y742D02*
Y775D01*
Y678D02*
Y735D01*
Y625D02*
Y662D01*
X76Y742D02*
Y775D01*
Y678D02*
Y735D01*
Y625D02*
Y662D01*
X75Y743D02*
Y775D01*
Y678D02*
Y734D01*
Y625D02*
Y660D01*
X75Y743D02*
Y775D01*
Y678D02*
Y734D01*
Y625D02*
Y660D01*
X75Y743D02*
Y775D01*
Y678D02*
Y735D01*
Y625D02*
Y662D01*
X74Y743D02*
Y775D01*
Y678D02*
Y735D01*
Y625D02*
Y662D01*
X74Y743D02*
Y775D01*
Y677D02*
Y736D01*
Y625D02*
Y660D01*
X74Y743D02*
Y775D01*
Y677D02*
Y736D01*
Y625D02*
Y660D01*
X73Y742D02*
Y775D01*
Y678D02*
Y736D01*
Y625D02*
Y660D01*
X73Y742D02*
Y775D01*
Y678D02*
Y736D01*
Y625D02*
Y660D01*
X73Y743D02*
Y775D01*
Y676D02*
Y737D01*
Y625D02*
Y659D01*
X73Y743D02*
Y775D01*
Y676D02*
Y737D01*
Y625D02*
Y659D01*
X72Y744D02*
Y775D01*
Y677D02*
Y736D01*
Y625D02*
Y660D01*
X72Y744D02*
Y775D01*
Y677D02*
Y736D01*
Y625D02*
Y660D01*
X72Y745D02*
Y775D01*
Y677D02*
Y737D01*
Y625D02*
Y659D01*
X71Y743D02*
Y775D01*
Y676D02*
Y736D01*
Y625D02*
Y659D01*
X71Y743D02*
Y775D01*
Y676D02*
Y736D01*
Y625D02*
Y659D01*
X71Y745D02*
Y775D01*
Y676D02*
Y738D01*
Y625D02*
Y658D01*
X71Y745D02*
Y775D01*
Y676D02*
Y738D01*
Y625D02*
Y658D01*
X70Y745D02*
Y775D01*
Y676D02*
Y737D01*
Y625D02*
Y658D01*
X70Y745D02*
Y775D01*
Y676D02*
Y737D01*
Y625D02*
Y658D01*
X70Y746D02*
Y775D01*
Y676D02*
Y738D01*
Y625D02*
Y659D01*
X69Y746D02*
Y775D01*
Y676D02*
Y738D01*
Y625D02*
Y659D01*
X69Y746D02*
Y775D01*
Y676D02*
Y738D01*
Y625D02*
Y658D01*
X69Y746D02*
Y775D01*
Y676D02*
Y738D01*
Y625D02*
Y658D01*
X68Y745D02*
Y775D01*
Y676D02*
Y738D01*
Y625D02*
Y658D01*
X68Y745D02*
Y775D01*
Y676D02*
Y738D01*
Y625D02*
Y658D01*
X68Y746D02*
Y775D01*
Y676D02*
Y738D01*
Y625D02*
Y657D01*
X68Y746D02*
Y775D01*
Y676D02*
Y738D01*
Y625D02*
Y657D01*
X67Y745D02*
Y775D01*
Y674D02*
Y738D01*
Y625D02*
Y657D01*
X67Y746D02*
Y775D01*
Y675D02*
Y738D01*
Y625D02*
Y656D01*
X67Y746D02*
Y775D01*
Y675D02*
Y738D01*
Y625D02*
Y656D01*
X66Y746D02*
Y775D01*
Y674D02*
Y739D01*
Y625D02*
Y656D01*
X66Y746D02*
Y775D01*
Y674D02*
Y739D01*
Y625D02*
Y656D01*
X66Y747D02*
Y775D01*
Y673D02*
Y739D01*
Y625D02*
Y656D01*
X65Y747D02*
Y775D01*
Y673D02*
Y739D01*
Y625D02*
Y656D01*
X65Y747D02*
Y775D01*
Y674D02*
Y738D01*
Y625D02*
Y658D01*
X65Y747D02*
Y775D01*
Y674D02*
Y738D01*
Y625D02*
Y658D01*
X64Y747D02*
Y775D01*
Y674D02*
Y740D01*
Y625D02*
Y656D01*
X64Y747D02*
Y775D01*
Y674D02*
Y740D01*
Y625D02*
Y656D01*
X64Y748D02*
Y775D01*
Y673D02*
Y740D01*
Y625D02*
Y655D01*
X64Y748D02*
Y775D01*
Y673D02*
Y740D01*
Y625D02*
Y655D01*
X63Y747D02*
Y775D01*
Y674D02*
Y741D01*
Y625D02*
Y655D01*
X63Y747D02*
Y775D01*
Y673D02*
Y740D01*
Y625D02*
Y655D01*
X63Y747D02*
Y775D01*
Y673D02*
Y740D01*
Y625D02*
Y655D01*
X62Y749D02*
Y775D01*
Y673D02*
Y740D01*
Y625D02*
Y654D01*
X62Y749D02*
Y775D01*
Y673D02*
Y740D01*
Y625D02*
Y654D01*
X62Y748D02*
Y775D01*
Y673D02*
Y740D01*
Y625D02*
Y654D01*
X62Y748D02*
Y775D01*
Y673D02*
Y740D01*
Y625D02*
Y654D01*
X61Y749D02*
Y775D01*
Y673D02*
Y741D01*
Y625D02*
Y655D01*
X61Y749D02*
Y775D01*
Y673D02*
Y741D01*
Y625D02*
Y655D01*
X61Y750D02*
Y775D01*
Y672D02*
Y741D01*
Y625D02*
Y654D01*
X60Y750D02*
Y775D01*
Y672D02*
Y741D01*
Y625D02*
Y654D01*
X60Y749D02*
Y775D01*
Y673D02*
Y740D01*
Y625D02*
Y655D01*
X60Y749D02*
Y775D01*
Y673D02*
Y740D01*
Y625D02*
Y655D01*
X59Y750D02*
Y775D01*
Y672D02*
Y741D01*
Y625D02*
Y654D01*
X59Y750D02*
Y775D01*
Y672D02*
Y741D01*
Y625D02*
Y654D01*
X59Y750D02*
Y775D01*
Y673D02*
Y740D01*
Y625D02*
Y653D01*
X58Y751D02*
Y775D01*
Y672D02*
Y741D01*
Y625D02*
Y652D01*
X58Y751D02*
Y775D01*
Y672D02*
Y741D01*
Y625D02*
Y652D01*
X58Y751D02*
Y775D01*
Y673D02*
Y742D01*
Y625D02*
Y653D01*
X58Y751D02*
Y775D01*
Y673D02*
Y742D01*
Y625D02*
Y653D01*
X57Y751D02*
Y775D01*
Y673D02*
Y741D01*
Y625D02*
Y651D01*
X57Y751D02*
Y775D01*
Y673D02*
Y741D01*
Y625D02*
Y651D01*
X57Y752D02*
Y775D01*
Y673D02*
Y740D01*
Y625D02*
Y651D01*
X56Y752D02*
Y775D01*
Y673D02*
Y740D01*
Y625D02*
Y651D01*
X56Y751D02*
Y775D01*
Y673D02*
Y741D01*
Y625D02*
Y651D01*
X56Y751D02*
Y775D01*
Y673D02*
Y741D01*
Y625D02*
Y651D01*
X56Y752D02*
Y775D01*
Y673D02*
Y741D01*
Y625D02*
Y651D01*
X55Y752D02*
Y775D01*
Y673D02*
Y741D01*
Y625D02*
Y651D01*
X55Y752D02*
Y775D01*
Y672D02*
Y740D01*
Y625D02*
Y650D01*
X55Y752D02*
Y775D01*
Y672D02*
Y740D01*
Y625D02*
Y650D01*
X54Y754D02*
Y775D01*
Y673D02*
Y740D01*
Y625D02*
Y650D01*
X54Y754D02*
Y775D01*
Y674D02*
Y740D01*
Y625D02*
Y649D01*
X54Y754D02*
Y775D01*
Y674D02*
Y740D01*
Y625D02*
Y649D01*
X53Y754D02*
Y775D01*
Y673D02*
Y739D01*
Y625D02*
Y647D01*
X53Y754D02*
Y775D01*
Y673D02*
Y739D01*
Y625D02*
Y647D01*
X53Y756D02*
Y775D01*
Y674D02*
Y738D01*
Y625D02*
Y647D01*
X52Y756D02*
Y775D01*
Y674D02*
Y738D01*
Y625D02*
Y647D01*
X52Y756D02*
Y775D01*
Y676D02*
Y738D01*
Y625D02*
Y646D01*
X52Y756D02*
Y775D01*
Y676D02*
Y738D01*
Y625D02*
Y646D01*
X52Y758D02*
Y775D01*
Y676D02*
Y737D01*
Y625D02*
Y646D01*
X51Y758D02*
Y775D01*
Y676D02*
Y737D01*
Y625D02*
Y646D01*
X51Y759D02*
Y775D01*
Y678D02*
Y734D01*
Y625D02*
Y645D01*
X51Y759D02*
Y775D01*
Y678D02*
Y734D01*
Y625D02*
Y645D01*
X50Y762D02*
Y775D01*
Y679D02*
Y732D01*
Y625D02*
Y641D01*
X50Y762D02*
Y775D01*
Y679D02*
Y732D01*
Y625D02*
Y641D01*
X50Y764D02*
Y775D01*
Y685D02*
Y727D01*
Y639D02*
Y640D01*
Y625D02*
Y638D01*
X49Y763D02*
Y775D01*
Y685D02*
Y728D01*
Y639D02*
Y640D01*
Y625D02*
Y638D01*
X49Y763D02*
Y775D01*
Y685D02*
Y728D01*
Y639D02*
Y640D01*
Y625D02*
Y638D01*
X49Y764D02*
Y775D01*
Y685D02*
Y727D01*
Y625D02*
Y637D01*
X49Y764D02*
Y775D01*
Y685D02*
Y727D01*
Y625D02*
Y637D01*
X48Y764D02*
Y775D01*
Y685D02*
Y727D01*
Y625D02*
Y639D01*
X48Y764D02*
Y775D01*
Y685D02*
Y727D01*
Y625D02*
Y639D01*
X48Y764D02*
Y775D01*
Y729D02*
Y762D01*
Y639D02*
Y727D01*
Y625D02*
Y638D01*
X47Y764D02*
Y775D01*
Y729D02*
Y762D01*
Y639D02*
Y727D01*
Y625D02*
Y638D01*
X47Y625D02*
Y775D01*
X47Y625D02*
Y775D01*
X47Y625D02*
Y775D01*
X46Y625D02*
Y775D01*
X46Y625D02*
Y775D01*
X46Y625D02*
Y775D01*
X45Y625D02*
Y775D01*
X45Y625D02*
Y775D01*
X45Y625D02*
Y775D01*
X44Y625D02*
Y775D01*
X44Y625D02*
Y775D01*
X44Y625D02*
Y775D01*
X43Y625D02*
Y775D01*
X43Y625D02*
Y775D01*
X43Y625D02*
Y775D01*
X43Y625D02*
Y775D01*
X42Y625D02*
Y775D01*
X42Y625D02*
Y775D01*
X42Y625D02*
Y775D01*
X41Y625D02*
Y775D01*
X41Y625D02*
Y775D01*
X41Y625D02*
Y775D01*
X41Y625D02*
Y775D01*
X40Y625D02*
Y775D01*
X40Y625D02*
Y775D01*
X40Y625D02*
Y775D01*
X39Y625D02*
Y775D01*
X39Y625D02*
Y775D01*
X39Y625D02*
Y775D01*
X38Y625D02*
Y775D01*
X38Y625D02*
Y775D01*
X38Y625D02*
Y775D01*
X38Y625D02*
Y775D01*
X37Y625D02*
Y775D01*
X37Y625D02*
Y775D01*
X37Y625D02*
Y775D01*
X36Y625D02*
Y775D01*
X36Y625D02*
Y775D01*
X36Y625D02*
Y775D01*
X35Y625D02*
Y775D01*
X35Y625D02*
Y775D01*
X35Y625D02*
Y775D01*
X34Y625D02*
Y775D01*
X34Y625D02*
Y775D01*
X34Y625D02*
Y775D01*
X34Y625D02*
Y775D01*
X33Y625D02*
Y775D01*
X33Y625D02*
Y775D01*
X33Y625D02*
Y775D01*
X32Y625D02*
Y775D01*
X32Y625D02*
Y775D01*
X32Y625D02*
Y775D01*
X32Y625D02*
Y775D01*
X31Y625D02*
Y775D01*
X31Y625D02*
Y775D01*
X31Y625D02*
Y775D01*
D18*
X206Y697D02*
Y697D01*
Y698D02*
Y699D01*
Y700D02*
Y701D01*
Y701D02*
Y702D01*
Y703D02*
Y704D01*
Y705D02*
Y705D01*
Y706D02*
Y706D01*
Y706D02*
Y716D01*
Y717D02*
Y718D01*
Y719D02*
Y719D01*
Y720D02*
Y720D01*
Y724D02*
Y725D01*
X206Y697D02*
Y698D01*
Y699D02*
Y700D01*
Y701D02*
Y702D01*
Y702D02*
Y703D01*
Y704D02*
Y717D01*
Y718D02*
Y719D01*
Y719D02*
Y720D01*
Y721D02*
Y721D01*
Y721D02*
Y722D01*
Y722D02*
Y723D01*
Y723D02*
Y724D01*
Y725D02*
Y725D01*
X206Y697D02*
Y697D01*
Y698D02*
Y699D01*
Y700D02*
Y701D01*
Y701D02*
Y701D01*
Y702D02*
Y702D01*
Y703D02*
Y719D01*
Y720D02*
Y721D01*
Y722D02*
Y722D01*
Y723D02*
Y723D01*
Y724D02*
Y724D01*
Y725D02*
Y725D01*
X207Y697D02*
Y697D01*
Y698D02*
Y698D01*
Y699D02*
Y700D01*
Y701D02*
Y701D01*
Y702D02*
Y720D01*
Y721D02*
Y721D01*
Y722D02*
Y722D01*
Y723D02*
Y723D01*
Y723D02*
Y724D01*
Y724D02*
Y725D01*
X207Y697D02*
Y698D01*
Y698D02*
Y700D01*
Y700D02*
Y721D01*
Y721D02*
Y723D01*
Y723D02*
Y724D01*
Y724D02*
Y725D01*
X207Y697D02*
Y697D01*
Y698D02*
Y699D01*
Y700D02*
Y722D01*
Y723D02*
Y723D01*
Y724D02*
Y724D01*
Y725D02*
Y725D01*
X207Y697D02*
Y697D01*
Y698D02*
Y698D01*
Y698D02*
Y723D01*
Y723D02*
Y723D01*
Y724D02*
Y724D01*
Y725D02*
Y725D01*
X208Y697D02*
Y698D01*
Y698D02*
Y724D01*
Y724D02*
Y724D01*
Y725D02*
Y725D01*
X208Y693D02*
Y693D01*
Y694D02*
Y694D01*
Y697D02*
Y697D01*
Y697D02*
Y725D01*
Y725D02*
Y726D01*
Y726D02*
Y727D01*
Y727D02*
Y728D01*
Y729D02*
Y729D01*
X208Y693D02*
Y694D01*
Y694D02*
Y695D01*
Y695D02*
Y695D01*
Y696D02*
Y696D01*
Y697D02*
Y725D01*
Y726D02*
Y727D01*
Y727D02*
Y728D01*
Y728D02*
Y729D01*
X208Y693D02*
Y693D01*
Y694D02*
Y695D01*
Y695D02*
Y695D01*
Y695D02*
Y696D01*
Y696D02*
Y725D01*
Y726D02*
Y726D01*
Y727D02*
Y727D01*
Y728D02*
Y728D01*
Y728D02*
Y729D01*
X209Y693D02*
Y694D01*
Y695D02*
Y695D01*
Y696D02*
Y709D01*
Y709D02*
Y710D01*
Y711D02*
Y711D01*
Y713D02*
Y726D01*
Y726D02*
Y727D01*
Y728D02*
Y728D01*
Y729D02*
Y729D01*
X209Y693D02*
Y693D01*
Y694D02*
Y707D01*
Y708D02*
Y709D01*
Y710D02*
Y711D01*
Y714D02*
Y714D01*
Y715D02*
Y727D01*
Y727D02*
Y728D01*
Y728D02*
Y729D01*
X209Y693D02*
Y693D01*
Y694D02*
Y694D01*
Y694D02*
Y705D01*
Y706D02*
Y707D01*
Y707D02*
Y707D01*
Y709D02*
Y710D01*
Y710D02*
Y711D01*
Y713D02*
Y714D01*
Y715D02*
Y715D01*
Y715D02*
Y716D01*
Y717D02*
Y717D01*
Y717D02*
Y728D01*
Y728D02*
Y728D01*
Y729D02*
Y729D01*
X209Y693D02*
Y693D01*
Y693D02*
Y704D01*
Y705D02*
Y706D01*
Y707D02*
Y709D01*
Y713D02*
Y714D01*
Y716D02*
Y717D01*
Y718D02*
Y728D01*
Y728D02*
Y729D01*
X210Y693D02*
Y703D01*
Y704D02*
Y705D01*
Y706D02*
Y707D01*
Y708D02*
Y709D01*
Y711D02*
Y711D01*
Y714D02*
Y715D01*
Y715D02*
Y715D01*
Y717D02*
Y718D01*
Y719D02*
Y719D01*
Y720D02*
Y729D01*
X210Y689D02*
Y690D01*
Y690D02*
Y690D01*
Y691D02*
Y691D01*
Y691D02*
Y692D01*
Y692D02*
Y692D01*
Y692D02*
Y701D01*
Y719D02*
Y719D01*
Y720D02*
Y720D01*
Y720D02*
Y729D01*
Y729D02*
Y730D01*
Y730D02*
Y730D01*
Y731D02*
Y732D01*
Y732D02*
Y733D01*
X210Y689D02*
Y689D01*
Y689D02*
Y690D01*
Y690D02*
Y691D01*
Y691D02*
Y691D01*
Y692D02*
Y692D01*
Y692D02*
Y700D01*
Y701D02*
Y701D01*
Y719D02*
Y719D01*
Y720D02*
Y720D01*
Y720D02*
Y721D01*
Y721D02*
Y729D01*
Y730D02*
Y730D01*
Y730D02*
Y731D01*
Y732D02*
Y732D01*
Y733D02*
Y733D01*
X211Y689D02*
Y689D01*
Y690D02*
Y691D01*
Y691D02*
Y692D01*
Y692D02*
Y700D01*
Y700D02*
Y701D01*
Y719D02*
Y719D01*
Y720D02*
Y720D01*
Y721D02*
Y722D01*
Y723D02*
Y730D01*
Y730D02*
Y731D01*
Y731D02*
Y731D01*
Y732D02*
Y733D01*
X211Y689D02*
Y689D01*
Y691D02*
Y699D01*
Y700D02*
Y700D01*
Y701D02*
Y701D01*
Y719D02*
Y719D01*
Y720D02*
Y720D01*
Y721D02*
Y722D01*
Y723D02*
Y730D01*
Y731D02*
Y732D01*
Y733D02*
Y733D01*
X211Y689D02*
Y690D01*
Y690D02*
Y698D01*
Y699D02*
Y699D01*
Y699D02*
Y700D01*
Y701D02*
Y701D01*
Y720D02*
Y721D01*
Y722D02*
Y723D01*
Y723D02*
Y724D01*
Y724D02*
Y731D01*
Y732D02*
Y733D01*
X211Y689D02*
Y689D01*
Y690D02*
Y697D01*
Y698D02*
Y699D01*
Y699D02*
Y699D01*
Y700D02*
Y701D01*
Y719D02*
Y720D01*
Y721D02*
Y721D01*
Y721D02*
Y721D01*
Y722D02*
Y722D01*
Y723D02*
Y723D01*
Y724D02*
Y724D01*
Y725D02*
Y732D01*
Y732D02*
Y732D01*
Y733D02*
Y733D01*
X212Y689D02*
Y689D01*
Y690D02*
Y697D01*
Y697D02*
Y697D01*
Y698D02*
Y698D01*
Y699D02*
Y700D01*
Y719D02*
Y720D01*
Y721D02*
Y721D01*
Y722D02*
Y722D01*
Y723D02*
Y723D01*
Y724D02*
Y724D01*
Y725D02*
Y725D01*
Y725D02*
Y732D01*
Y732D02*
Y733D01*
X212Y689D02*
Y696D01*
Y696D02*
Y697D01*
Y697D02*
Y698D01*
Y698D02*
Y699D01*
Y701D02*
Y701D01*
Y720D02*
Y721D01*
Y721D02*
Y722D01*
Y722D02*
Y723D01*
Y723D02*
Y723D01*
Y723D02*
Y724D01*
Y724D02*
Y725D01*
Y725D02*
Y725D01*
Y726D02*
Y732D01*
Y733D02*
Y733D01*
X212Y685D02*
Y685D01*
Y686D02*
Y687D01*
Y687D02*
Y687D01*
Y688D02*
Y688D01*
Y688D02*
Y696D01*
Y696D02*
Y696D01*
Y697D02*
Y697D01*
Y725D02*
Y725D01*
Y726D02*
Y726D01*
Y726D02*
Y733D01*
Y733D02*
Y733D01*
Y734D02*
Y734D01*
Y734D02*
Y735D01*
Y735D02*
Y735D01*
Y737D02*
Y737D01*
X212Y685D02*
Y686D01*
Y687D02*
Y688D01*
Y688D02*
Y688D01*
Y689D02*
Y695D01*
Y695D02*
Y695D01*
Y696D02*
Y696D01*
Y697D02*
Y697D01*
Y725D02*
Y726D01*
Y726D02*
Y734D01*
Y734D02*
Y734D01*
Y735D02*
Y736D01*
X213Y685D02*
Y686D01*
Y686D02*
Y687D01*
Y688D02*
Y688D01*
Y688D02*
Y695D01*
Y696D02*
Y696D01*
Y697D02*
Y697D01*
Y725D02*
Y726D01*
Y726D02*
Y726D01*
Y727D02*
Y727D01*
Y728D02*
Y734D01*
Y734D02*
Y734D01*
Y734D02*
Y735D01*
Y736D02*
Y737D01*
X213Y685D02*
Y685D01*
Y686D02*
Y686D01*
Y687D02*
Y688D01*
Y688D02*
Y694D01*
Y695D02*
Y696D01*
Y696D02*
Y697D01*
Y726D02*
Y727D01*
Y728D02*
Y734D01*
Y734D02*
Y735D01*
Y735D02*
Y735D01*
Y736D02*
Y737D01*
X213Y686D02*
Y686D01*
Y687D02*
Y687D01*
Y688D02*
Y694D01*
Y694D02*
Y695D01*
Y695D02*
Y696D01*
Y696D02*
Y697D01*
Y726D02*
Y726D01*
Y727D02*
Y728D01*
Y728D02*
Y728D01*
Y729D02*
Y734D01*
Y735D02*
Y736D01*
X213Y685D02*
Y686D01*
Y686D02*
Y687D01*
Y687D02*
Y693D01*
Y694D02*
Y695D01*
Y695D02*
Y695D01*
Y696D02*
Y696D01*
Y697D02*
Y697D01*
Y725D02*
Y725D01*
Y726D02*
Y727D01*
Y728D02*
Y728D01*
Y728D02*
Y729D01*
Y729D02*
Y735D01*
Y736D02*
Y736D01*
X213Y685D02*
Y686D01*
Y687D02*
Y692D01*
Y693D02*
Y694D01*
Y695D02*
Y695D01*
Y695D02*
Y696D01*
Y697D02*
Y697D01*
Y725D02*
Y726D01*
Y727D02*
Y728D01*
Y728D02*
Y728D01*
Y729D02*
Y735D01*
Y736D02*
Y737D01*
Y737D02*
Y737D01*
X214Y685D02*
Y686D01*
Y686D02*
Y692D01*
Y692D02*
Y693D01*
Y693D02*
Y693D01*
Y694D02*
Y695D01*
Y696D02*
Y697D01*
Y725D02*
Y725D01*
Y726D02*
Y727D01*
Y727D02*
Y728D01*
Y729D02*
Y729D01*
Y729D02*
Y729D01*
Y730D02*
Y735D01*
Y736D02*
Y736D01*
Y737D02*
Y737D01*
X214Y683D02*
Y683D01*
Y684D02*
Y684D01*
Y684D02*
Y685D01*
Y685D02*
Y685D01*
Y686D02*
Y692D01*
Y692D02*
Y692D01*
Y693D02*
Y693D01*
Y729D02*
Y730D01*
Y730D02*
Y736D01*
Y736D02*
Y737D01*
Y737D02*
Y738D01*
Y738D02*
Y738D01*
Y739D02*
Y739D01*
X214Y683D02*
Y684D01*
Y684D02*
Y684D01*
Y685D02*
Y686D01*
Y686D02*
Y691D01*
Y692D02*
Y692D01*
Y692D02*
Y693D01*
Y729D02*
Y729D01*
Y730D02*
Y730D01*
Y730D02*
Y736D01*
Y737D02*
Y737D01*
Y737D02*
Y737D01*
Y738D02*
Y738D01*
X214Y683D02*
Y683D01*
Y684D02*
Y685D01*
Y686D02*
Y691D01*
Y692D02*
Y692D01*
Y692D02*
Y693D01*
Y729D02*
Y730D01*
Y731D02*
Y736D01*
Y737D02*
Y737D01*
Y737D02*
Y738D01*
Y738D02*
Y739D01*
X215Y683D02*
Y684D01*
Y685D02*
Y691D01*
Y691D02*
Y691D01*
Y692D02*
Y692D01*
Y693D02*
Y693D01*
Y729D02*
Y729D01*
Y729D02*
Y730D01*
Y730D02*
Y731D01*
Y731D02*
Y737D01*
Y737D02*
Y737D01*
Y738D02*
Y738D01*
Y738D02*
Y739D01*
X215Y683D02*
Y683D01*
Y684D02*
Y684D01*
Y684D02*
Y690D01*
Y691D02*
Y691D01*
Y691D02*
Y692D01*
Y692D02*
Y692D01*
Y693D02*
Y693D01*
Y729D02*
Y729D01*
Y730D02*
Y730D01*
Y731D02*
Y732D01*
Y732D02*
Y737D01*
Y738D02*
Y739D01*
X215Y683D02*
Y683D01*
Y683D02*
Y684D01*
Y684D02*
Y684D01*
Y684D02*
Y690D01*
Y691D02*
Y691D01*
Y691D02*
Y692D01*
Y692D02*
Y693D01*
Y729D02*
Y730D01*
Y730D02*
Y730D01*
Y731D02*
Y731D01*
Y732D02*
Y738D01*
Y738D02*
Y739D01*
X215Y683D02*
Y683D01*
Y684D02*
Y684D01*
Y684D02*
Y689D01*
Y689D02*
Y689D01*
Y690D02*
Y691D01*
Y692D02*
Y692D01*
Y729D02*
Y729D01*
Y730D02*
Y730D01*
Y731D02*
Y731D01*
Y732D02*
Y732D01*
Y733D02*
Y738D01*
Y738D02*
Y738D01*
Y738D02*
Y739D01*
X216Y683D02*
Y689D01*
Y689D02*
Y689D01*
Y689D02*
Y690D01*
Y690D02*
Y691D01*
Y691D02*
Y691D01*
Y692D02*
Y692D01*
Y692D02*
Y693D01*
Y729D02*
Y730D01*
Y730D02*
Y731D01*
Y731D02*
Y732D01*
Y732D02*
Y732D01*
Y733D02*
Y733D01*
Y733D02*
Y738D01*
Y738D02*
Y738D01*
Y739D02*
Y739D01*
X216Y681D02*
Y682D01*
Y682D02*
Y682D01*
Y683D02*
Y683D01*
Y683D02*
Y688D01*
Y733D02*
Y738D01*
Y738D02*
Y739D01*
Y740D02*
Y740D01*
Y741D02*
Y741D01*
X216Y682D02*
Y682D01*
Y682D02*
Y683D01*
Y683D02*
Y683D01*
Y683D02*
Y688D01*
Y688D02*
Y689D01*
Y733D02*
Y734D01*
Y734D02*
Y738D01*
Y738D02*
Y739D01*
Y739D02*
Y740D01*
Y740D02*
Y741D01*
X216Y681D02*
Y682D01*
Y683D02*
Y683D01*
Y683D02*
Y688D01*
Y689D02*
Y689D01*
Y734D02*
Y739D01*
Y739D02*
Y740D01*
Y741D02*
Y741D01*
X217Y681D02*
Y682D01*
Y682D02*
Y682D01*
Y683D02*
Y687D01*
Y688D02*
Y688D01*
Y688D02*
Y688D01*
Y733D02*
Y734D01*
Y734D02*
Y739D01*
Y739D02*
Y739D01*
Y740D02*
Y740D01*
Y740D02*
Y741D01*
X217Y681D02*
Y682D01*
Y682D02*
Y682D01*
Y683D02*
Y687D01*
Y688D02*
Y688D01*
Y688D02*
Y688D01*
Y689D02*
Y689D01*
Y733D02*
Y734D01*
Y734D02*
Y739D01*
Y740D02*
Y740D01*
Y741D02*
Y741D01*
X217Y681D02*
Y681D01*
Y682D02*
Y682D01*
Y682D02*
Y687D01*
Y687D02*
Y687D01*
Y688D02*
Y688D01*
Y688D02*
Y688D01*
Y689D02*
Y689D01*
Y733D02*
Y733D01*
Y734D02*
Y734D01*
Y735D02*
Y740D01*
Y740D02*
Y741D01*
X218Y681D02*
Y682D01*
Y682D02*
Y687D01*
Y687D02*
Y687D01*
Y687D02*
Y688D01*
Y688D02*
Y688D01*
Y733D02*
Y734D01*
Y734D02*
Y734D01*
Y734D02*
Y734D01*
Y735D02*
Y740D01*
Y740D02*
Y740D01*
X218Y681D02*
Y681D01*
Y682D02*
Y686D01*
Y687D02*
Y687D01*
Y687D02*
Y688D01*
Y688D02*
Y688D01*
Y688D02*
Y689D01*
Y734D02*
Y734D01*
Y734D02*
Y735D01*
Y735D02*
Y735D01*
Y735D02*
Y740D01*
Y740D02*
Y741D01*
X218Y680D02*
Y681D01*
Y681D02*
Y686D01*
Y686D02*
Y687D01*
Y687D02*
Y687D01*
Y735D02*
Y735D01*
Y736D02*
Y740D01*
Y741D02*
Y741D01*
Y742D02*
Y742D01*
Y743D02*
Y743D01*
X218Y679D02*
Y680D01*
Y680D02*
Y680D01*
Y681D02*
Y686D01*
Y686D02*
Y686D01*
Y687D02*
Y687D01*
Y735D02*
Y736D01*
Y736D02*
Y741D01*
Y741D02*
Y741D01*
Y742D02*
Y742D01*
Y742D02*
Y743D01*
X219Y679D02*
Y679D01*
Y680D02*
Y680D01*
Y680D02*
Y681D01*
Y681D02*
Y685D01*
Y686D02*
Y686D01*
Y687D02*
Y687D01*
Y735D02*
Y735D01*
Y736D02*
Y736D01*
Y737D02*
Y741D01*
Y741D02*
Y742D01*
Y742D02*
Y742D01*
Y743D02*
Y743D01*
X219Y679D02*
Y680D01*
Y680D02*
Y680D01*
Y680D02*
Y685D01*
Y685D02*
Y686D01*
Y686D02*
Y687D01*
Y735D02*
Y736D01*
Y737D02*
Y741D01*
Y741D02*
Y742D01*
Y742D02*
Y742D01*
Y743D02*
Y743D01*
X219Y679D02*
Y679D01*
Y680D02*
Y685D01*
Y685D02*
Y685D01*
Y687D02*
Y687D01*
Y735D02*
Y735D01*
Y737D02*
Y741D01*
Y742D02*
Y742D01*
Y742D02*
Y743D01*
Y743D02*
Y743D01*
X219Y679D02*
Y679D01*
Y680D02*
Y685D01*
Y686D02*
Y686D01*
Y735D02*
Y736D01*
Y736D02*
Y737D01*
Y737D02*
Y742D01*
Y742D02*
Y742D01*
Y743D02*
Y743D01*
X220Y679D02*
Y679D01*
Y679D02*
Y680D01*
Y680D02*
Y684D01*
Y684D02*
Y685D01*
Y685D02*
Y685D01*
Y686D02*
Y686D01*
Y687D02*
Y687D01*
Y736D02*
Y736D01*
Y737D02*
Y737D01*
Y738D02*
Y743D01*
Y743D02*
Y743D01*
X220Y679D02*
Y679D01*
Y680D02*
Y684D01*
Y684D02*
Y684D01*
Y685D02*
Y685D01*
Y685D02*
Y686D01*
Y686D02*
Y687D01*
Y735D02*
Y736D01*
Y736D02*
Y737D01*
Y737D02*
Y737D01*
Y738D02*
Y743D01*
X220Y677D02*
Y678D01*
Y678D02*
Y678D01*
Y679D02*
Y684D01*
Y684D02*
Y684D01*
Y684D02*
Y685D01*
Y737D02*
Y738D01*
Y738D02*
Y743D01*
Y743D02*
Y743D01*
Y744D02*
Y744D01*
Y744D02*
Y745D01*
X220Y677D02*
Y677D01*
Y678D02*
Y678D01*
Y678D02*
Y678D01*
Y678D02*
Y683D01*
Y683D02*
Y684D01*
Y684D02*
Y685D01*
Y737D02*
Y737D01*
Y738D02*
Y738D01*
Y738D02*
Y743D01*
Y743D02*
Y743D01*
Y743D02*
Y744D01*
Y744D02*
Y744D01*
Y745D02*
Y745D01*
X221Y677D02*
Y677D01*
Y678D02*
Y678D01*
Y678D02*
Y678D01*
Y679D02*
Y683D01*
Y683D02*
Y684D01*
Y684D02*
Y684D01*
Y737D02*
Y738D01*
Y738D02*
Y743D01*
Y743D02*
Y743D01*
Y744D02*
Y744D01*
Y744D02*
Y744D01*
X221Y677D02*
Y678D01*
Y678D02*
Y678D01*
Y678D02*
Y683D01*
Y683D02*
Y683D01*
Y684D02*
Y684D01*
Y684D02*
Y685D01*
Y737D02*
Y737D01*
Y738D02*
Y738D01*
Y738D02*
Y743D01*
Y743D02*
Y743D01*
Y744D02*
Y745D01*
X221Y678D02*
Y678D01*
Y678D02*
Y678D01*
Y679D02*
Y683D01*
Y683D02*
Y683D01*
Y684D02*
Y684D01*
Y684D02*
Y685D01*
Y737D02*
Y738D01*
Y738D02*
Y738D01*
Y739D02*
Y743D01*
Y743D02*
Y744D01*
Y744D02*
Y744D01*
X221Y677D02*
Y677D01*
Y678D02*
Y678D01*
Y678D02*
Y682D01*
Y683D02*
Y683D01*
Y683D02*
Y684D01*
Y684D02*
Y685D01*
Y737D02*
Y737D01*
Y738D02*
Y738D01*
Y738D02*
Y738D01*
Y738D02*
Y743D01*
Y744D02*
Y744D01*
Y745D02*
Y745D01*
X221Y677D02*
Y677D01*
Y678D02*
Y682D01*
Y682D02*
Y683D01*
Y683D02*
Y683D01*
Y684D02*
Y684D01*
Y684D02*
Y685D01*
Y737D02*
Y737D01*
Y738D02*
Y738D01*
Y738D02*
Y739D01*
Y739D02*
Y739D01*
Y739D02*
Y744D01*
Y744D02*
Y745D01*
X222Y678D02*
Y678D01*
Y678D02*
Y683D01*
Y683D02*
Y683D01*
Y683D02*
Y684D01*
Y684D02*
Y684D01*
Y685D02*
Y685D01*
Y737D02*
Y738D01*
Y738D02*
Y738D01*
Y739D02*
Y739D01*
Y739D02*
Y739D01*
Y740D02*
Y744D01*
Y744D02*
Y744D01*
Y745D02*
Y745D01*
X222Y675D02*
Y675D01*
Y676D02*
Y677D01*
Y677D02*
Y677D01*
Y677D02*
Y682D01*
Y683D02*
Y683D01*
Y739D02*
Y739D01*
Y740D02*
Y744D01*
Y744D02*
Y745D01*
Y746D02*
Y747D01*
X222Y675D02*
Y675D01*
Y675D02*
Y676D01*
Y677D02*
Y677D01*
Y678D02*
Y682D01*
Y682D02*
Y683D01*
Y683D02*
Y683D01*
Y739D02*
Y739D01*
Y739D02*
Y740D01*
Y740D02*
Y744D01*
Y744D02*
Y744D01*
Y745D02*
Y746D01*
Y747D02*
Y747D01*
X222Y675D02*
Y675D01*
Y676D02*
Y677D01*
Y677D02*
Y677D01*
Y678D02*
Y681D01*
Y682D02*
Y682D01*
Y683D02*
Y683D01*
Y739D02*
Y739D01*
Y739D02*
Y740D01*
Y740D02*
Y744D01*
Y745D02*
Y745D01*
Y746D02*
Y746D01*
Y747D02*
Y747D01*
X223Y676D02*
Y676D01*
Y677D02*
Y677D01*
Y677D02*
Y681D01*
Y681D02*
Y682D01*
Y682D02*
Y682D01*
Y739D02*
Y739D01*
Y740D02*
Y740D01*
Y741D02*
Y745D01*
Y745D02*
Y746D01*
Y746D02*
Y747D01*
X223Y675D02*
Y675D01*
Y675D02*
Y676D01*
Y676D02*
Y677D01*
Y677D02*
Y681D01*
Y682D02*
Y682D01*
Y682D02*
Y683D01*
Y683D02*
Y683D01*
Y739D02*
Y739D01*
Y740D02*
Y740D01*
Y741D02*
Y745D01*
Y745D02*
Y746D01*
Y746D02*
Y747D01*
X223Y675D02*
Y676D01*
Y676D02*
Y680D01*
Y681D02*
Y681D01*
Y681D02*
Y682D01*
Y683D02*
Y683D01*
Y739D02*
Y739D01*
Y740D02*
Y741D01*
Y741D02*
Y745D01*
Y746D02*
Y746D01*
Y747D02*
Y747D01*
X223Y675D02*
Y675D01*
Y676D02*
Y676D01*
Y677D02*
Y680D01*
Y681D02*
Y681D01*
Y681D02*
Y682D01*
Y682D02*
Y682D01*
Y739D02*
Y739D01*
Y740D02*
Y740D01*
Y740D02*
Y740D01*
Y741D02*
Y741D01*
Y741D02*
Y745D01*
Y746D02*
Y746D01*
Y747D02*
Y747D01*
X224Y675D02*
Y675D01*
Y676D02*
Y681D01*
Y681D02*
Y682D01*
Y682D02*
Y682D01*
Y682D02*
Y683D01*
Y683D02*
Y683D01*
Y739D02*
Y739D01*
Y739D02*
Y740D01*
Y741D02*
Y746D01*
Y746D02*
Y746D01*
Y747D02*
Y747D01*
X224Y675D02*
Y676D01*
Y676D02*
Y680D01*
Y681D02*
Y681D01*
Y742D02*
Y746D01*
Y746D02*
Y747D01*
X224Y675D02*
Y676D01*
Y676D02*
Y680D01*
Y680D02*
Y680D01*
Y681D02*
Y681D01*
Y741D02*
Y742D01*
Y742D02*
Y746D01*
Y746D02*
Y747D01*
X225Y675D02*
Y675D01*
Y675D02*
Y679D01*
Y680D02*
Y680D01*
Y680D02*
Y680D01*
Y681D02*
Y681D01*
Y742D02*
Y742D01*
Y742D02*
Y746D01*
Y746D02*
Y747D01*
Y747D02*
Y747D01*
X225Y675D02*
Y680D01*
Y680D02*
Y681D01*
Y742D02*
Y746D01*
Y746D02*
Y747D01*
X225Y675D02*
Y675D01*
Y676D02*
Y679D01*
Y680D02*
Y680D01*
Y681D02*
Y681D01*
Y741D02*
Y741D01*
Y742D02*
Y742D01*
Y742D02*
Y746D01*
Y747D02*
Y747D01*
X225Y675D02*
Y679D01*
Y679D02*
Y680D01*
Y680D02*
Y680D01*
Y681D02*
Y681D01*
Y741D02*
Y742D01*
Y742D02*
Y743D01*
Y743D02*
Y746D01*
Y747D02*
Y747D01*
X226Y675D02*
Y679D01*
Y679D02*
Y679D01*
Y680D02*
Y680D01*
Y680D02*
Y681D01*
Y741D02*
Y742D01*
Y742D02*
Y742D01*
Y743D02*
Y747D01*
Y747D02*
Y747D01*
X226Y675D02*
Y679D01*
Y679D02*
Y680D01*
Y680D02*
Y680D01*
Y681D02*
Y681D01*
Y741D02*
Y741D01*
Y742D02*
Y742D01*
Y743D02*
Y743D01*
Y743D02*
Y747D01*
Y747D02*
Y747D01*
X226Y673D02*
Y674D01*
Y674D02*
Y674D01*
Y674D02*
Y675D01*
Y675D02*
Y678D01*
Y743D02*
Y747D01*
Y747D02*
Y748D01*
Y748D02*
Y748D01*
Y748D02*
Y749D01*
X226Y673D02*
Y673D01*
Y674D02*
Y674D01*
Y674D02*
Y674D01*
Y675D02*
Y678D01*
Y679D02*
Y679D01*
Y743D02*
Y743D01*
Y743D02*
Y747D01*
Y748D02*
Y748D01*
Y748D02*
Y749D01*
X227Y674D02*
Y674D01*
Y674D02*
Y678D01*
Y678D02*
Y679D01*
Y743D02*
Y747D01*
Y748D02*
Y748D01*
Y748D02*
Y749D01*
X227Y673D02*
Y674D01*
Y674D02*
Y674D01*
Y674D02*
Y678D01*
Y678D02*
Y678D01*
Y679D02*
Y679D01*
Y743D02*
Y743D01*
Y744D02*
Y747D01*
Y748D02*
Y748D01*
Y748D02*
Y749D01*
X227Y673D02*
Y674D01*
Y674D02*
Y678D01*
Y678D02*
Y679D01*
Y743D02*
Y743D01*
Y744D02*
Y748D01*
Y748D02*
Y749D01*
X227Y673D02*
Y673D01*
Y674D02*
Y674D01*
Y674D02*
Y678D01*
Y678D02*
Y678D01*
Y679D02*
Y679D01*
Y743D02*
Y743D01*
Y744D02*
Y748D01*
Y748D02*
Y748D01*
Y749D02*
Y749D01*
X228Y673D02*
Y673D01*
Y674D02*
Y678D01*
Y678D02*
Y678D01*
Y679D02*
Y679D01*
Y743D02*
Y743D01*
Y744D02*
Y744D01*
Y744D02*
Y748D01*
Y749D02*
Y749D01*
X228Y673D02*
Y674D01*
Y674D02*
Y677D01*
Y678D02*
Y678D01*
Y678D02*
Y679D01*
Y743D02*
Y743D01*
Y743D02*
Y744D01*
Y744D02*
Y748D01*
Y748D02*
Y749D01*
X228Y671D02*
Y672D01*
Y672D02*
Y673D01*
Y673D02*
Y674D01*
Y674D02*
Y677D01*
Y743D02*
Y744D01*
Y744D02*
Y744D01*
Y744D02*
Y748D01*
Y749D02*
Y749D01*
X228Y671D02*
Y671D01*
Y672D02*
Y677D01*
Y743D02*
Y743D01*
Y744D02*
Y744D01*
Y745D02*
Y748D01*
Y748D02*
Y748D01*
X228Y671D02*
Y671D01*
Y672D02*
Y672D01*
Y673D02*
Y677D01*
Y743D02*
Y743D01*
Y744D02*
Y744D01*
Y745D02*
Y748D01*
Y749D02*
Y749D01*
X229Y672D02*
Y672D01*
Y673D02*
Y673D01*
Y673D02*
Y677D01*
Y743D02*
Y743D01*
Y744D02*
Y744D01*
Y744D02*
Y745D01*
Y745D02*
Y749D01*
X229Y671D02*
Y672D01*
Y672D02*
Y677D01*
Y677D02*
Y677D01*
Y743D02*
Y743D01*
Y744D02*
Y745D01*
Y745D02*
Y748D01*
Y749D02*
Y749D01*
X229Y671D02*
Y672D01*
Y672D02*
Y673D01*
Y673D02*
Y676D01*
Y677D02*
Y677D01*
Y743D02*
Y743D01*
Y744D02*
Y744D01*
Y745D02*
Y749D01*
X229Y671D02*
Y672D01*
Y672D02*
Y672D01*
Y673D02*
Y676D01*
Y677D02*
Y677D01*
Y743D02*
Y744D01*
Y744D02*
Y745D01*
Y745D02*
Y745D01*
Y746D02*
Y749D01*
X230Y671D02*
Y672D01*
Y672D02*
Y672D01*
Y673D02*
Y676D01*
Y677D02*
Y677D01*
Y743D02*
Y743D01*
Y743D02*
Y744D01*
Y744D02*
Y745D01*
Y745D02*
Y746D01*
Y746D02*
Y749D01*
X230Y652D02*
Y653D01*
Y654D02*
Y655D01*
Y655D02*
Y657D01*
Y658D02*
Y660D01*
Y660D02*
Y661D01*
Y671D02*
Y672D01*
Y672D02*
Y673D01*
Y673D02*
Y676D01*
Y676D02*
Y677D01*
Y745D02*
Y745D01*
Y746D02*
Y749D01*
Y749D02*
Y750D01*
Y750D02*
Y751D01*
X230Y651D02*
Y651D01*
Y654D02*
Y654D01*
Y656D02*
Y658D01*
Y660D02*
Y660D01*
Y661D02*
Y661D01*
Y663D02*
Y663D01*
Y671D02*
Y671D01*
Y672D02*
Y672D01*
Y673D02*
Y676D01*
Y676D02*
Y677D01*
Y745D02*
Y746D01*
Y746D02*
Y749D01*
Y750D02*
Y750D01*
Y751D02*
Y751D01*
X230Y652D02*
Y653D01*
Y654D02*
Y656D01*
Y658D02*
Y660D01*
Y660D02*
Y662D01*
Y671D02*
Y672D01*
Y672D02*
Y676D01*
Y676D02*
Y677D01*
Y745D02*
Y745D01*
Y746D02*
Y746D01*
Y746D02*
Y750D01*
Y751D02*
Y751D01*
X231Y651D02*
Y652D01*
Y653D02*
Y654D01*
Y656D02*
Y657D01*
Y659D02*
Y659D01*
Y660D02*
Y661D01*
Y662D02*
Y662D01*
Y671D02*
Y672D01*
Y672D02*
Y675D01*
Y676D02*
Y676D01*
Y677D02*
Y677D01*
Y745D02*
Y745D01*
Y746D02*
Y746D01*
Y746D02*
Y750D01*
Y750D02*
Y751D01*
Y751D02*
Y751D01*
X231Y651D02*
Y652D01*
Y652D02*
Y653D01*
Y654D02*
Y654D01*
Y655D02*
Y656D01*
Y657D02*
Y659D01*
Y660D02*
Y660D01*
Y661D02*
Y662D01*
Y663D02*
Y663D01*
Y671D02*
Y671D01*
Y672D02*
Y676D01*
Y676D02*
Y677D01*
Y677D02*
Y677D01*
Y746D02*
Y746D01*
Y746D02*
Y749D01*
Y750D02*
Y750D01*
Y750D02*
Y751D01*
X231Y651D02*
Y652D01*
Y653D02*
Y654D01*
Y655D02*
Y655D01*
Y657D02*
Y658D01*
Y659D02*
Y660D01*
Y660D02*
Y661D01*
Y671D02*
Y671D01*
Y672D02*
Y672D01*
Y672D02*
Y675D01*
Y675D02*
Y676D01*
Y676D02*
Y676D01*
Y677D02*
Y677D01*
Y745D02*
Y745D01*
Y746D02*
Y746D01*
Y747D02*
Y750D01*
Y750D02*
Y750D01*
Y751D02*
Y751D01*
X231Y651D02*
Y651D01*
Y652D02*
Y653D01*
Y653D02*
Y654D01*
Y654D02*
Y660D01*
Y661D02*
Y663D01*
Y671D02*
Y675D01*
Y676D02*
Y676D01*
Y677D02*
Y677D01*
Y745D02*
Y746D01*
Y746D02*
Y750D01*
Y750D02*
Y750D01*
Y751D02*
Y751D01*
X232Y651D02*
Y651D01*
Y652D02*
Y662D01*
Y663D02*
Y663D01*
Y671D02*
Y671D01*
Y672D02*
Y675D01*
Y675D02*
Y676D01*
Y676D02*
Y677D01*
Y677D02*
Y677D01*
Y745D02*
Y746D01*
Y746D02*
Y746D01*
Y747D02*
Y750D01*
Y750D02*
Y751D01*
X232Y644D02*
Y644D01*
Y645D02*
Y645D01*
Y645D02*
Y646D01*
Y646D02*
Y646D01*
Y647D02*
Y650D01*
Y650D02*
Y664D01*
Y664D02*
Y665D01*
Y665D02*
Y665D01*
Y666D02*
Y667D01*
Y667D02*
Y668D01*
Y669D02*
Y669D01*
Y670D02*
Y670D01*
Y671D02*
Y675D01*
Y745D02*
Y746D01*
Y747D02*
Y750D01*
Y751D02*
Y751D01*
X232Y643D02*
Y644D01*
Y644D02*
Y645D01*
Y645D02*
Y646D01*
Y646D02*
Y647D01*
Y649D02*
Y665D01*
Y665D02*
Y666D01*
Y667D02*
Y667D01*
Y668D02*
Y669D01*
Y669D02*
Y670D01*
Y670D02*
Y671D01*
Y672D02*
Y675D01*
Y745D02*
Y745D01*
Y746D02*
Y746D01*
Y747D02*
Y751D01*
X233Y644D02*
Y644D01*
Y645D02*
Y645D01*
Y646D02*
Y646D01*
Y647D02*
Y647D01*
Y648D02*
Y666D01*
Y669D02*
Y669D01*
Y670D02*
Y670D01*
Y671D02*
Y675D01*
Y745D02*
Y745D01*
Y746D02*
Y746D01*
Y747D02*
Y750D01*
Y751D02*
Y751D01*
X233Y643D02*
Y645D01*
Y645D02*
Y646D01*
Y646D02*
Y647D01*
Y647D02*
Y669D01*
Y670D02*
Y674D01*
Y675D02*
Y675D01*
Y745D02*
Y745D01*
Y746D02*
Y747D01*
Y747D02*
Y751D01*
X233Y643D02*
Y644D01*
Y644D02*
Y645D01*
Y645D02*
Y646D01*
Y646D02*
Y668D01*
Y669D02*
Y669D01*
Y669D02*
Y671D01*
Y671D02*
Y675D01*
Y745D02*
Y745D01*
Y747D02*
Y747D01*
Y747D02*
Y751D01*
X233Y643D02*
Y644D01*
Y645D02*
Y645D01*
Y645D02*
Y669D01*
Y669D02*
Y669D01*
Y670D02*
Y670D01*
Y671D02*
Y674D01*
Y674D02*
Y675D01*
Y746D02*
Y746D01*
Y747D02*
Y751D01*
X234Y643D02*
Y643D01*
Y644D02*
Y644D01*
Y645D02*
Y669D01*
Y670D02*
Y674D01*
Y746D02*
Y746D01*
Y747D02*
Y747D01*
Y748D02*
Y751D01*
X234Y643D02*
Y670D01*
Y671D02*
Y674D01*
Y745D02*
Y745D01*
Y746D02*
Y747D01*
Y747D02*
Y748D01*
Y748D02*
Y751D01*
X234Y640D02*
Y641D01*
Y641D02*
Y641D01*
Y641D02*
Y642D01*
Y642D02*
Y643D01*
Y643D02*
Y674D01*
Y674D02*
Y675D01*
Y747D02*
Y751D01*
Y752D02*
Y752D01*
Y752D02*
Y752D01*
Y753D02*
Y753D01*
X234Y639D02*
Y640D01*
Y641D02*
Y641D01*
Y641D02*
Y642D01*
Y642D02*
Y674D01*
Y674D02*
Y674D01*
Y674D02*
Y675D01*
Y747D02*
Y747D01*
Y748D02*
Y751D01*
Y752D02*
Y752D01*
X235Y639D02*
Y640D01*
Y640D02*
Y641D01*
Y641D02*
Y641D01*
Y642D02*
Y654D01*
Y654D02*
Y655D01*
Y656D02*
Y657D01*
Y658D02*
Y660D01*
Y660D02*
Y674D01*
Y674D02*
Y674D01*
Y747D02*
Y747D01*
Y748D02*
Y748D01*
Y748D02*
Y752D01*
Y752D02*
Y752D01*
X235Y639D02*
Y639D01*
Y640D02*
Y640D01*
Y641D02*
Y641D01*
Y641D02*
Y652D01*
Y653D02*
Y654D01*
Y654D02*
Y655D01*
Y656D02*
Y657D01*
Y660D02*
Y660D01*
Y661D02*
Y662D01*
Y662D02*
Y674D01*
Y674D02*
Y675D01*
Y747D02*
Y747D01*
Y748D02*
Y751D01*
Y752D02*
Y752D01*
Y752D02*
Y752D01*
Y752D02*
Y753D01*
X235Y639D02*
Y640D01*
Y641D02*
Y650D01*
Y651D02*
Y651D01*
Y652D02*
Y653D01*
Y655D02*
Y656D01*
Y657D02*
Y661D01*
Y661D02*
Y662D01*
Y664D02*
Y674D01*
Y674D02*
Y674D01*
Y675D02*
Y675D01*
Y747D02*
Y748D01*
Y748D02*
Y751D01*
Y752D02*
Y752D01*
Y752D02*
Y753D01*
X235Y640D02*
Y640D01*
Y641D02*
Y650D01*
Y650D02*
Y651D01*
Y654D02*
Y654D01*
Y656D02*
Y658D01*
Y661D02*
Y661D01*
Y662D02*
Y663D01*
Y663D02*
Y674D01*
Y674D02*
Y674D01*
Y747D02*
Y748D01*
Y748D02*
Y752D01*
Y752D02*
Y753D01*
X235Y639D02*
Y640D01*
Y640D02*
Y648D01*
Y649D02*
Y649D01*
Y650D02*
Y650D01*
Y651D02*
Y651D01*
Y652D02*
Y653D01*
Y655D02*
Y655D01*
Y655D02*
Y656D01*
Y658D02*
Y659D01*
Y660D02*
Y661D01*
Y663D02*
Y663D01*
Y665D02*
Y666D01*
Y666D02*
Y674D01*
Y674D02*
Y674D01*
Y674D02*
Y675D01*
Y747D02*
Y748D01*
Y748D02*
Y748D01*
Y748D02*
Y752D01*
Y752D02*
Y752D01*
Y752D02*
Y752D01*
X236Y639D02*
Y647D01*
Y648D02*
Y649D01*
Y649D02*
Y650D01*
Y650D02*
Y651D01*
Y653D02*
Y653D01*
Y654D02*
Y655D01*
Y657D02*
Y657D01*
Y659D02*
Y660D01*
Y661D02*
Y662D01*
Y663D02*
Y664D01*
Y664D02*
Y665D01*
Y667D02*
Y674D01*
Y674D02*
Y674D01*
Y674D02*
Y674D01*
Y747D02*
Y747D01*
Y748D02*
Y752D01*
Y752D02*
Y752D01*
Y753D02*
Y753D01*
X236Y635D02*
Y636D01*
Y636D02*
Y637D01*
Y637D02*
Y637D01*
Y638D02*
Y638D01*
Y638D02*
Y639D01*
Y639D02*
Y646D01*
Y647D02*
Y647D01*
Y667D02*
Y668D01*
Y668D02*
Y674D01*
Y674D02*
Y674D01*
Y747D02*
Y748D01*
Y748D02*
Y748D01*
Y748D02*
Y752D01*
Y752D02*
Y752D01*
Y753D02*
Y753D01*
X236Y635D02*
Y635D01*
Y636D02*
Y636D01*
Y637D02*
Y637D01*
Y637D02*
Y637D01*
Y637D02*
Y638D01*
Y638D02*
Y646D01*
Y646D02*
Y647D01*
Y668D02*
Y668D01*
Y669D02*
Y674D01*
Y674D02*
Y674D01*
Y747D02*
Y748D01*
Y748D02*
Y748D01*
Y748D02*
Y752D01*
Y752D02*
Y753D01*
X236Y635D02*
Y636D01*
Y636D02*
Y637D01*
Y637D02*
Y637D01*
Y638D02*
Y645D01*
Y646D02*
Y646D01*
Y667D02*
Y668D01*
Y668D02*
Y669D01*
Y669D02*
Y673D01*
Y674D02*
Y674D01*
Y675D02*
Y675D01*
Y747D02*
Y748D01*
Y748D02*
Y748D01*
Y749D02*
Y752D01*
Y752D02*
Y753D01*
X237Y635D02*
Y635D01*
Y636D02*
Y636D01*
Y637D02*
Y637D01*
Y637D02*
Y644D01*
Y645D02*
Y645D01*
Y646D02*
Y647D01*
Y667D02*
Y668D01*
Y668D02*
Y669D01*
Y670D02*
Y673D01*
Y674D02*
Y674D01*
Y747D02*
Y747D01*
Y748D02*
Y748D01*
Y748D02*
Y752D01*
Y752D02*
Y753D01*
X237Y636D02*
Y636D01*
Y637D02*
Y637D01*
Y637D02*
Y644D01*
Y644D02*
Y645D01*
Y645D02*
Y646D01*
Y667D02*
Y667D01*
Y669D02*
Y669D01*
Y669D02*
Y670D01*
Y670D02*
Y673D01*
Y673D02*
Y674D01*
Y747D02*
Y747D01*
Y748D02*
Y748D01*
Y748D02*
Y749D01*
Y749D02*
Y752D01*
Y752D02*
Y753D01*
X237Y635D02*
Y636D01*
Y636D02*
Y637D01*
Y637D02*
Y643D01*
Y643D02*
Y644D01*
Y644D02*
Y645D01*
Y645D02*
Y645D01*
Y646D02*
Y647D01*
Y667D02*
Y668D01*
Y668D02*
Y669D01*
Y670D02*
Y671D01*
Y671D02*
Y672D01*
Y673D02*
Y673D01*
Y674D02*
Y675D01*
Y747D02*
Y748D01*
Y748D02*
Y748D01*
Y749D02*
Y752D01*
Y752D02*
Y753D01*
X237Y635D02*
Y636D01*
Y637D02*
Y643D01*
Y644D02*
Y644D01*
Y646D02*
Y646D01*
Y647D02*
Y647D01*
Y667D02*
Y667D01*
Y669D02*
Y670D01*
Y671D02*
Y671D01*
Y672D02*
Y672D01*
Y673D02*
Y673D01*
Y674D02*
Y675D01*
Y747D02*
Y747D01*
Y748D02*
Y748D01*
Y749D02*
Y752D01*
Y752D02*
Y753D01*
X238Y635D02*
Y635D01*
Y636D02*
Y642D01*
Y642D02*
Y643D01*
Y643D02*
Y644D01*
Y644D02*
Y645D01*
Y645D02*
Y645D01*
Y646D02*
Y646D01*
Y668D02*
Y668D01*
Y669D02*
Y669D01*
Y670D02*
Y670D01*
Y671D02*
Y672D01*
Y672D02*
Y673D01*
Y673D02*
Y673D01*
Y673D02*
Y674D01*
Y674D02*
Y674D01*
Y747D02*
Y747D01*
Y748D02*
Y748D01*
Y748D02*
Y749D01*
Y749D02*
Y752D01*
Y753D02*
Y753D01*
X238Y633D02*
Y633D01*
Y634D02*
Y634D01*
Y635D02*
Y635D01*
Y635D02*
Y636D01*
Y636D02*
Y641D01*
Y642D02*
Y642D01*
Y643D02*
Y643D01*
Y749D02*
Y752D01*
Y752D02*
Y753D01*
X238Y633D02*
Y634D01*
Y635D02*
Y641D01*
Y642D02*
Y642D01*
Y749D02*
Y753D01*
X238Y633D02*
Y633D01*
Y634D02*
Y634D01*
Y635D02*
Y635D01*
Y635D02*
Y641D01*
Y641D02*
Y641D01*
Y641D02*
Y642D01*
Y642D02*
Y643D01*
Y749D02*
Y752D01*
Y753D02*
Y753D01*
X239Y633D02*
Y633D01*
Y633D02*
Y634D01*
Y634D02*
Y640D01*
Y640D02*
Y641D01*
Y642D02*
Y642D01*
Y749D02*
Y749D01*
Y749D02*
Y752D01*
Y753D02*
Y753D01*
X239Y633D02*
Y634D01*
Y634D02*
Y634D01*
Y635D02*
Y640D01*
Y641D02*
Y641D01*
Y642D02*
Y642D01*
Y643D02*
Y643D01*
Y749D02*
Y753D01*
X239Y634D02*
Y639D01*
Y640D02*
Y641D01*
Y641D02*
Y642D01*
Y642D02*
Y643D01*
Y750D02*
Y753D01*
X240Y633D02*
Y633D01*
Y634D02*
Y639D01*
Y640D02*
Y640D01*
Y641D02*
Y641D01*
Y642D02*
Y643D01*
Y749D02*
Y749D01*
Y750D02*
Y753D01*
X240Y633D02*
Y638D01*
Y639D02*
Y640D01*
Y640D02*
Y640D01*
Y641D02*
Y641D01*
Y641D02*
Y641D01*
Y642D02*
Y642D01*
Y643D02*
Y643D01*
Y750D02*
Y753D01*
X240Y631D02*
Y631D01*
Y632D02*
Y632D01*
Y633D02*
Y638D01*
Y638D02*
Y639D01*
Y749D02*
Y749D01*
Y750D02*
Y753D01*
Y753D02*
Y754D01*
Y755D02*
Y755D01*
X240Y631D02*
Y632D01*
Y632D02*
Y633D01*
Y633D02*
Y638D01*
Y638D02*
Y638D01*
Y638D02*
Y639D01*
Y749D02*
Y749D01*
Y750D02*
Y753D01*
Y753D02*
Y754D01*
Y754D02*
Y755D01*
X241Y631D02*
Y631D01*
Y632D02*
Y637D01*
Y637D02*
Y638D01*
Y638D02*
Y638D01*
Y639D02*
Y639D01*
Y749D02*
Y749D01*
Y750D02*
Y753D01*
Y753D02*
Y754D01*
Y754D02*
Y754D01*
Y754D02*
Y755D01*
X241Y632D02*
Y632D01*
Y632D02*
Y637D01*
Y637D02*
Y637D01*
Y638D02*
Y638D01*
Y639D02*
Y639D01*
Y749D02*
Y749D01*
Y750D02*
Y753D01*
Y753D02*
Y754D01*
Y754D02*
Y754D01*
Y754D02*
Y755D01*
X241Y631D02*
Y632D01*
Y632D02*
Y637D01*
Y637D02*
Y637D01*
Y638D02*
Y639D01*
Y749D02*
Y749D01*
Y750D02*
Y753D01*
Y753D02*
Y754D01*
Y754D02*
Y754D01*
Y754D02*
Y755D01*
X241Y631D02*
Y631D01*
Y632D02*
Y636D01*
Y637D02*
Y637D01*
Y637D02*
Y638D01*
Y638D02*
Y639D01*
Y749D02*
Y749D01*
Y750D02*
Y753D01*
Y753D02*
Y754D01*
Y754D02*
Y754D01*
Y755D02*
Y755D01*
X242Y631D02*
Y636D01*
Y637D02*
Y637D01*
Y637D02*
Y638D01*
Y749D02*
Y749D01*
Y750D02*
Y753D01*
Y753D02*
Y754D01*
Y754D02*
Y754D01*
Y755D02*
Y755D01*
X242Y631D02*
Y636D01*
Y636D02*
Y637D01*
Y637D02*
Y637D01*
Y637D02*
Y637D01*
Y638D02*
Y638D01*
Y638D02*
Y639D01*
Y749D02*
Y749D01*
Y749D02*
Y750D01*
Y750D02*
Y754D01*
Y754D02*
Y754D01*
Y755D02*
Y755D01*
X242Y629D02*
Y629D01*
Y630D02*
Y630D01*
Y631D02*
Y636D01*
Y636D02*
Y636D01*
Y636D02*
Y637D01*
Y750D02*
Y750D01*
Y751D02*
Y753D01*
Y754D02*
Y754D01*
Y754D02*
Y754D01*
Y755D02*
Y755D01*
X242Y629D02*
Y630D01*
Y630D02*
Y630D01*
Y631D02*
Y635D01*
Y636D02*
Y636D01*
Y637D02*
Y637D01*
Y749D02*
Y750D01*
Y750D02*
Y754D01*
Y754D02*
Y754D01*
X243Y629D02*
Y630D01*
Y630D02*
Y635D01*
Y636D02*
Y636D01*
Y636D02*
Y637D01*
Y749D02*
Y750D01*
Y750D02*
Y754D01*
Y754D02*
Y755D01*
X243Y629D02*
Y629D01*
Y630D02*
Y635D01*
Y635D02*
Y636D01*
Y636D02*
Y637D01*
Y637D02*
Y637D01*
Y749D02*
Y750D01*
Y750D02*
Y753D01*
Y754D02*
Y755D01*
X243Y629D02*
Y629D01*
Y630D02*
Y634D01*
Y634D02*
Y635D01*
Y635D02*
Y635D01*
Y635D02*
Y636D01*
Y636D02*
Y636D01*
Y637D02*
Y637D01*
Y749D02*
Y750D01*
Y750D02*
Y753D01*
Y754D02*
Y754D01*
X243Y629D02*
Y634D01*
Y635D02*
Y635D01*
Y635D02*
Y636D01*
Y636D02*
Y636D01*
Y637D02*
Y637D01*
Y749D02*
Y749D01*
Y751D02*
Y754D01*
Y754D02*
Y754D01*
Y755D02*
Y755D01*
X243Y629D02*
Y629D01*
Y629D02*
Y633D01*
Y634D02*
Y634D01*
Y635D02*
Y636D01*
Y636D02*
Y637D01*
Y749D02*
Y749D01*
Y750D02*
Y750D01*
Y750D02*
Y754D01*
Y754D02*
Y754D01*
Y755D02*
Y755D01*
X244Y629D02*
Y633D01*
Y634D02*
Y634D01*
Y635D02*
Y635D01*
Y636D02*
Y636D01*
Y637D02*
Y637D01*
Y749D02*
Y750D01*
Y750D02*
Y751D01*
Y751D02*
Y754D01*
Y755D02*
Y755D01*
X244Y627D02*
Y627D01*
Y627D02*
Y628D01*
Y628D02*
Y628D01*
Y629D02*
Y633D01*
Y749D02*
Y749D01*
Y750D02*
Y750D01*
Y751D02*
Y754D01*
Y754D02*
Y754D01*
Y755D02*
Y755D01*
X244Y627D02*
Y627D01*
Y628D02*
Y628D01*
Y629D02*
Y633D01*
Y749D02*
Y750D01*
Y750D02*
Y750D01*
Y751D02*
Y754D01*
Y754D02*
Y755D01*
X244Y627D02*
Y628D01*
Y628D02*
Y632D01*
Y749D02*
Y750D01*
Y750D02*
Y751D01*
Y751D02*
Y754D01*
Y754D02*
Y755D01*
X245Y627D02*
Y627D01*
Y628D02*
Y628D01*
Y628D02*
Y632D01*
Y633D02*
Y633D01*
Y749D02*
Y749D01*
Y749D02*
Y750D01*
Y750D02*
Y751D01*
Y751D02*
Y754D01*
Y754D02*
Y755D01*
Y757D02*
Y757D01*
X245Y627D02*
Y627D01*
Y627D02*
Y632D01*
Y632D02*
Y633D01*
Y749D02*
Y749D01*
Y750D02*
Y750D01*
Y751D02*
Y754D01*
Y756D02*
Y757D01*
X245Y627D02*
Y628D01*
Y628D02*
Y632D01*
Y632D02*
Y632D01*
Y633D02*
Y633D01*
Y749D02*
Y749D01*
Y750D02*
Y750D01*
Y751D02*
Y751D01*
Y751D02*
Y754D01*
Y755D02*
Y756D01*
X245Y627D02*
Y627D01*
Y627D02*
Y632D01*
Y632D02*
Y633D01*
Y749D02*
Y749D01*
Y750D02*
Y750D01*
Y751D02*
Y751D01*
Y751D02*
Y754D01*
Y755D02*
Y756D01*
X246Y627D02*
Y632D01*
Y632D02*
Y632D01*
Y633D02*
Y633D01*
Y749D02*
Y749D01*
Y750D02*
Y750D01*
Y751D02*
Y751D01*
Y751D02*
Y756D01*
X246Y625D02*
Y626D01*
Y627D02*
Y627D01*
Y627D02*
Y632D01*
Y632D02*
Y633D01*
Y751D02*
Y757D01*
Y757D02*
Y759D01*
Y760D02*
Y760D01*
Y761D02*
Y761D01*
Y761D02*
Y762D01*
Y762D02*
Y763D01*
X246Y625D02*
Y625D01*
Y626D02*
Y626D01*
Y626D02*
Y627D01*
Y627D02*
Y632D01*
Y632D02*
Y633D01*
Y751D02*
Y758D01*
Y758D02*
Y758D01*
Y759D02*
Y759D01*
Y760D02*
Y761D01*
Y762D02*
Y762D01*
X247Y625D02*
Y625D01*
Y626D02*
Y626D01*
Y627D02*
Y631D01*
Y631D02*
Y631D01*
Y632D02*
Y633D01*
Y751D02*
Y759D01*
Y759D02*
Y761D01*
Y761D02*
Y762D01*
Y762D02*
Y763D01*
X247Y625D02*
Y626D01*
Y626D02*
Y626D01*
Y627D02*
Y631D01*
Y631D02*
Y631D01*
Y632D02*
Y632D01*
Y751D02*
Y760D01*
Y760D02*
Y760D01*
Y761D02*
Y761D01*
Y762D02*
Y762D01*
X247Y626D02*
Y630D01*
Y631D02*
Y631D01*
Y632D02*
Y632D01*
Y751D02*
Y761D01*
Y761D02*
Y762D01*
Y762D02*
Y763D01*
X247Y625D02*
Y625D01*
Y626D02*
Y626D01*
Y626D02*
Y630D01*
Y630D02*
Y631D01*
Y631D02*
Y632D01*
Y751D02*
Y761D01*
Y761D02*
Y761D01*
Y762D02*
Y763D01*
X248Y625D02*
Y626D01*
Y626D02*
Y630D01*
Y630D02*
Y631D01*
Y631D02*
Y631D01*
Y631D02*
Y632D01*
Y751D02*
Y762D01*
Y762D02*
Y762D01*
Y763D02*
Y763D01*
X248Y625D02*
Y626D01*
Y626D02*
Y630D01*
Y631D02*
Y631D01*
Y633D02*
Y633D01*
Y751D02*
Y762D01*
Y762D02*
Y763D01*
X248Y624D02*
Y625D01*
Y625D02*
Y626D01*
Y626D02*
Y630D01*
Y631D02*
Y631D01*
Y751D02*
Y751D01*
Y752D02*
Y763D01*
Y763D02*
Y764D01*
Y765D02*
Y765D01*
Y765D02*
Y766D01*
Y766D02*
Y767D01*
X248Y625D02*
Y626D01*
Y626D02*
Y629D01*
Y630D02*
Y630D01*
Y631D02*
Y631D01*
Y751D02*
Y752D01*
Y752D02*
Y763D01*
Y764D02*
Y764D01*
Y765D02*
Y765D01*
Y765D02*
Y766D01*
Y766D02*
Y766D01*
Y767D02*
Y767D01*
X249Y625D02*
Y630D01*
Y631D02*
Y631D01*
Y751D02*
Y752D01*
Y752D02*
Y753D01*
Y753D02*
Y764D01*
Y765D02*
Y765D01*
Y766D02*
Y766D01*
Y766D02*
Y767D01*
X249Y625D02*
Y625D01*
Y626D02*
Y629D01*
Y629D02*
Y629D01*
Y630D02*
Y630D01*
Y631D02*
Y631D01*
Y751D02*
Y751D01*
Y752D02*
Y752D01*
Y752D02*
Y753D01*
Y753D02*
Y754D01*
Y755D02*
Y755D01*
Y755D02*
Y764D01*
Y764D02*
Y765D01*
Y765D02*
Y765D01*
Y766D02*
Y767D01*
X249Y623D02*
Y623D01*
Y625D02*
Y629D01*
Y629D02*
Y629D01*
Y630D02*
Y630D01*
Y751D02*
Y752D01*
Y756D02*
Y756D01*
Y757D02*
Y765D01*
Y765D02*
Y765D01*
Y765D02*
Y766D01*
Y766D02*
Y766D01*
Y767D02*
Y767D01*
X249Y623D02*
Y623D01*
Y624D02*
Y629D01*
Y629D02*
Y630D01*
Y630D02*
Y631D01*
Y751D02*
Y752D01*
Y752D02*
Y752D01*
Y753D02*
Y754D01*
Y755D02*
Y755D01*
Y756D02*
Y756D01*
Y757D02*
Y757D01*
Y757D02*
Y765D01*
Y766D02*
Y766D01*
Y766D02*
Y767D01*
X250Y623D02*
Y623D01*
Y624D02*
Y629D01*
Y629D02*
Y629D01*
Y630D02*
Y631D01*
Y631D02*
Y631D01*
Y751D02*
Y752D01*
Y753D02*
Y753D01*
Y754D02*
Y755D01*
Y756D02*
Y756D01*
Y757D02*
Y758D01*
Y758D02*
Y766D01*
Y766D02*
Y766D01*
Y766D02*
Y767D01*
X250Y623D02*
Y623D01*
Y624D02*
Y628D01*
Y629D02*
Y629D01*
Y630D02*
Y630D01*
Y631D02*
Y631D01*
Y751D02*
Y751D01*
Y752D02*
Y753D01*
Y753D02*
Y754D01*
Y755D02*
Y756D01*
Y756D02*
Y757D01*
Y757D02*
Y757D01*
Y758D02*
Y758D01*
Y759D02*
Y766D01*
Y767D02*
Y767D01*
X250Y623D02*
Y623D01*
Y624D02*
Y624D01*
Y624D02*
Y629D01*
Y759D02*
Y760D01*
Y760D02*
Y767D01*
Y768D02*
Y768D01*
Y768D02*
Y769D01*
X250Y623D02*
Y624D01*
Y624D02*
Y628D01*
Y629D02*
Y629D01*
Y759D02*
Y759D01*
Y760D02*
Y760D01*
Y761D02*
Y767D01*
Y767D02*
Y767D01*
Y768D02*
Y768D01*
Y769D02*
Y769D01*
X250Y623D02*
Y623D01*
Y624D02*
Y624D01*
Y624D02*
Y628D01*
Y628D02*
Y628D01*
Y629D02*
Y629D01*
Y759D02*
Y760D01*
Y760D02*
Y761D01*
Y761D02*
Y767D01*
Y767D02*
Y768D01*
Y768D02*
Y768D01*
X251Y623D02*
Y623D01*
Y624D02*
Y628D01*
Y628D02*
Y628D01*
Y759D02*
Y760D01*
Y761D02*
Y761D01*
Y762D02*
Y767D01*
Y768D02*
Y768D01*
Y768D02*
Y769D01*
X251Y623D02*
Y624D01*
Y624D02*
Y627D01*
Y629D02*
Y629D01*
Y760D02*
Y761D01*
Y762D02*
Y762D01*
Y762D02*
Y768D01*
Y768D02*
Y768D01*
Y769D02*
Y769D01*
X251Y623D02*
Y623D01*
Y624D02*
Y628D01*
Y628D02*
Y628D01*
Y628D02*
Y629D01*
Y759D02*
Y760D01*
Y761D02*
Y761D01*
Y761D02*
Y762D01*
Y762D02*
Y762D01*
Y762D02*
Y768D01*
X252Y623D02*
Y623D01*
Y623D02*
Y627D01*
Y628D02*
Y628D01*
Y628D02*
Y629D01*
Y759D02*
Y759D01*
Y760D02*
Y761D01*
Y761D02*
Y761D01*
Y762D02*
Y762D01*
Y763D02*
Y769D01*
X252Y623D02*
Y627D01*
Y627D02*
Y628D01*
Y628D02*
Y628D01*
Y629D02*
Y629D01*
Y759D02*
Y760D01*
Y761D02*
Y761D01*
Y761D02*
Y762D01*
Y762D02*
Y762D01*
Y763D02*
Y763D01*
Y763D02*
Y769D01*
X252Y621D02*
Y622D01*
Y623D02*
Y627D01*
Y763D02*
Y763D01*
Y764D02*
Y769D01*
Y770D02*
Y770D01*
Y770D02*
Y771D01*
X252Y621D02*
Y621D01*
Y622D02*
Y623D01*
Y623D02*
Y627D01*
Y764D02*
Y764D01*
Y764D02*
Y770D01*
Y770D02*
Y770D01*
X252Y621D02*
Y621D01*
Y622D02*
Y622D01*
Y623D02*
Y627D01*
Y763D02*
Y764D01*
Y764D02*
Y765D01*
Y765D02*
Y770D01*
Y770D02*
Y771D01*
Y771D02*
Y771D01*
X253Y622D02*
Y622D01*
Y623D02*
Y623D01*
Y623D02*
Y627D01*
Y763D02*
Y763D01*
Y764D02*
Y764D01*
Y765D02*
Y770D01*
Y770D02*
Y771D01*
Y771D02*
Y771D01*
X253Y621D02*
Y622D01*
Y622D02*
Y627D01*
Y763D02*
Y763D01*
Y764D02*
Y764D01*
Y765D02*
Y765D01*
Y766D02*
Y770D01*
Y771D02*
Y771D01*
X253Y621D02*
Y622D01*
Y622D02*
Y623D01*
Y623D02*
Y626D01*
Y763D02*
Y763D01*
Y763D02*
Y764D01*
Y764D02*
Y765D01*
Y765D02*
Y771D01*
X254Y621D02*
Y622D01*
Y622D02*
Y622D01*
Y623D02*
Y627D01*
Y763D02*
Y763D01*
Y764D02*
Y764D01*
Y765D02*
Y766D01*
Y766D02*
Y766D01*
Y766D02*
Y771D01*
X254Y621D02*
Y622D01*
Y622D02*
Y622D01*
Y623D02*
Y626D01*
Y626D02*
Y627D01*
Y627D02*
Y627D01*
Y763D02*
Y764D01*
Y765D02*
Y765D01*
Y766D02*
Y766D01*
Y766D02*
Y766D01*
Y766D02*
Y771D01*
X254Y622D02*
Y622D01*
Y622D02*
Y622D01*
Y623D02*
Y626D01*
Y627D02*
Y627D01*
Y766D02*
Y766D01*
Y766D02*
Y771D01*
Y772D02*
Y772D01*
Y772D02*
Y773D01*
X254Y621D02*
Y621D01*
Y622D02*
Y622D01*
Y622D02*
Y626D01*
Y626D02*
Y626D01*
Y627D02*
Y627D01*
Y766D02*
Y772D01*
X255Y622D02*
Y622D01*
Y622D02*
Y622D01*
Y623D02*
Y626D01*
Y626D02*
Y626D01*
Y627D02*
Y627D01*
Y765D02*
Y765D01*
Y766D02*
Y766D01*
Y767D02*
Y767D01*
Y767D02*
Y772D01*
Y772D02*
Y772D01*
Y773D02*
Y773D01*
X255Y621D02*
Y622D01*
Y622D02*
Y626D01*
Y627D02*
Y627D01*
Y765D02*
Y765D01*
Y766D02*
Y766D01*
Y767D02*
Y772D01*
Y772D02*
Y773D01*
X255Y621D02*
Y622D01*
Y622D02*
Y622D01*
Y622D02*
Y626D01*
Y626D02*
Y627D01*
Y766D02*
Y767D01*
Y767D02*
Y767D01*
Y768D02*
Y772D01*
Y772D02*
Y773D01*
X255Y622D02*
Y622D01*
Y622D02*
Y625D01*
Y626D02*
Y626D01*
Y626D02*
Y627D01*
Y627D02*
Y627D01*
Y765D02*
Y766D01*
Y767D02*
Y768D01*
Y768D02*
Y773D01*
X255Y622D02*
Y622D01*
Y622D02*
Y625D01*
Y626D02*
Y627D01*
Y765D02*
Y766D01*
Y767D02*
Y767D01*
Y768D02*
Y768D01*
Y768D02*
Y773D01*
X256Y621D02*
Y621D01*
Y622D02*
Y625D01*
Y625D02*
Y626D01*
Y626D02*
Y626D01*
Y627D02*
Y627D01*
Y766D02*
Y767D01*
Y767D02*
Y767D01*
Y767D02*
Y768D01*
Y768D02*
Y773D01*
X256Y621D02*
Y625D01*
Y769D02*
Y773D01*
Y773D02*
Y774D01*
Y774D02*
Y775D01*
Y775D02*
Y775D01*
X256Y622D02*
Y625D01*
Y769D02*
Y773D01*
Y774D02*
Y774D01*
Y775D02*
Y775D01*
X257Y621D02*
Y621D01*
Y622D02*
Y625D01*
Y769D02*
Y774D01*
Y774D02*
Y774D01*
X257Y621D02*
Y625D01*
Y769D02*
Y769D01*
Y770D02*
Y774D01*
Y774D02*
Y775D01*
Y775D02*
Y775D01*
X257Y622D02*
Y625D01*
Y769D02*
Y770D01*
Y770D02*
Y774D01*
Y775D02*
Y775D01*
X257Y622D02*
Y625D01*
Y769D02*
Y770D01*
Y770D02*
Y775D01*
Y775D02*
Y775D01*
X257Y621D02*
Y625D01*
Y770D02*
Y775D01*
Y775D02*
Y775D01*
X258Y621D02*
Y624D01*
Y624D02*
Y625D01*
Y769D02*
Y769D01*
Y770D02*
Y770D01*
Y771D02*
Y775D01*
X258Y609D02*
Y609D01*
Y610D02*
Y610D01*
Y612D02*
Y612D01*
Y613D02*
Y613D01*
Y615D02*
Y615D01*
Y615D02*
Y617D01*
Y618D02*
Y618D01*
Y619D02*
Y619D01*
Y620D02*
Y620D01*
Y621D02*
Y625D01*
Y771D02*
Y775D01*
Y775D02*
Y775D01*
Y776D02*
Y776D01*
X258Y609D02*
Y609D01*
Y611D02*
Y611D01*
Y613D02*
Y613D01*
Y614D02*
Y615D01*
Y617D02*
Y618D01*
Y618D02*
Y619D01*
Y619D02*
Y619D01*
Y620D02*
Y620D01*
Y621D02*
Y624D01*
Y624D02*
Y625D01*
Y771D02*
Y775D01*
Y775D02*
Y776D01*
Y776D02*
Y776D01*
Y777D02*
Y777D01*
X259Y609D02*
Y611D01*
Y611D02*
Y612D01*
Y613D02*
Y614D01*
Y615D02*
Y617D01*
Y618D02*
Y618D01*
Y619D02*
Y619D01*
Y620D02*
Y620D01*
Y621D02*
Y624D01*
Y624D02*
Y625D01*
Y771D02*
Y776D01*
Y776D02*
Y776D01*
Y777D02*
Y777D01*
X259Y609D02*
Y610D01*
Y611D02*
Y612D01*
Y612D02*
Y613D01*
Y614D02*
Y615D01*
Y617D02*
Y618D01*
Y618D02*
Y619D01*
Y620D02*
Y620D01*
Y621D02*
Y621D01*
Y621D02*
Y625D01*
Y771D02*
Y775D01*
Y776D02*
Y776D01*
Y776D02*
Y777D01*
X259Y609D02*
Y609D01*
Y610D02*
Y611D01*
Y612D02*
Y613D01*
Y613D02*
Y614D01*
Y616D02*
Y618D01*
Y619D02*
Y620D01*
Y620D02*
Y624D01*
Y772D02*
Y776D01*
Y776D02*
Y777D01*
X259Y609D02*
Y610D01*
Y611D02*
Y612D01*
Y612D02*
Y613D01*
Y613D02*
Y616D01*
Y618D02*
Y619D01*
Y619D02*
Y620D01*
Y621D02*
Y624D01*
Y624D02*
Y625D01*
Y771D02*
Y771D01*
Y772D02*
Y776D01*
Y776D02*
Y776D01*
Y777D02*
Y777D01*
X259Y609D02*
Y610D01*
Y610D02*
Y611D01*
Y611D02*
Y618D01*
Y619D02*
Y619D01*
Y620D02*
Y620D01*
Y621D02*
Y624D01*
Y624D02*
Y625D01*
Y771D02*
Y772D01*
Y772D02*
Y776D01*
Y776D02*
Y777D01*
X260Y609D02*
Y609D01*
Y610D02*
Y620D01*
Y620D02*
Y620D01*
Y621D02*
Y624D01*
Y624D02*
Y624D01*
Y625D02*
Y625D01*
Y771D02*
Y771D01*
Y772D02*
Y772D01*
Y772D02*
Y776D01*
Y776D02*
Y777D01*
X260Y603D02*
Y604D01*
Y604D02*
Y604D01*
Y605D02*
Y605D01*
Y606D02*
Y607D01*
Y607D02*
Y607D01*
Y608D02*
Y608D01*
Y609D02*
Y624D01*
Y625D02*
Y625D01*
Y771D02*
Y772D01*
Y772D02*
Y776D01*
Y776D02*
Y777D01*
X260Y604D02*
Y604D01*
Y605D02*
Y605D01*
Y605D02*
Y607D01*
Y607D02*
Y624D01*
Y624D02*
Y624D01*
Y625D02*
Y625D01*
Y771D02*
Y772D01*
Y772D02*
Y776D01*
Y777D02*
Y777D01*
X261Y603D02*
Y604D01*
Y605D02*
Y605D01*
Y606D02*
Y606D01*
Y607D02*
Y623D01*
Y624D02*
Y624D01*
Y625D02*
Y625D01*
Y771D02*
Y771D01*
Y771D02*
Y772D01*
Y772D02*
Y772D01*
Y773D02*
Y777D01*
X261Y604D02*
Y605D01*
Y605D02*
Y605D01*
Y606D02*
Y623D01*
Y624D02*
Y624D01*
Y625D02*
Y625D01*
Y771D02*
Y771D01*
Y771D02*
Y772D01*
Y772D02*
Y772D01*
Y773D02*
Y776D01*
X261Y604D02*
Y604D01*
Y605D02*
Y623D01*
Y624D02*
Y624D01*
Y624D02*
Y625D01*
Y771D02*
Y771D01*
Y771D02*
Y772D01*
Y772D02*
Y773D01*
Y773D02*
Y777D01*
X261Y603D02*
Y603D01*
Y604D02*
Y624D01*
Y624D02*
Y625D01*
Y771D02*
Y772D01*
Y773D02*
Y777D01*
X262Y603D02*
Y603D01*
Y604D02*
Y624D01*
Y624D02*
Y625D01*
Y771D02*
Y771D01*
Y772D02*
Y772D01*
Y773D02*
Y777D01*
X262Y603D02*
Y623D01*
Y623D02*
Y624D01*
Y624D02*
Y624D01*
Y625D02*
Y625D01*
Y771D02*
Y771D01*
Y772D02*
Y773D01*
Y774D02*
Y777D01*
X262Y599D02*
Y600D01*
Y600D02*
Y600D01*
Y601D02*
Y601D01*
Y601D02*
Y602D01*
Y603D02*
Y623D01*
Y624D02*
Y624D01*
Y625D02*
Y625D01*
Y773D02*
Y774D01*
Y774D02*
Y778D01*
Y778D02*
Y779D01*
Y779D02*
Y779D01*
X262Y599D02*
Y600D01*
Y600D02*
Y600D01*
Y601D02*
Y601D01*
Y602D02*
Y623D01*
Y623D02*
Y624D01*
Y624D02*
Y624D01*
Y625D02*
Y625D01*
Y773D02*
Y773D01*
Y774D02*
Y777D01*
Y777D02*
Y778D01*
Y779D02*
Y779D01*
X262Y599D02*
Y600D01*
Y600D02*
Y601D01*
Y601D02*
Y612D01*
Y613D02*
Y613D01*
Y617D02*
Y618D01*
Y618D02*
Y623D01*
Y623D02*
Y624D01*
Y624D02*
Y625D01*
Y773D02*
Y773D01*
Y774D02*
Y774D01*
Y774D02*
Y777D01*
Y779D02*
Y779D01*
X263Y599D02*
Y600D01*
Y600D02*
Y600D01*
Y601D02*
Y610D01*
Y610D02*
Y611D01*
Y612D02*
Y613D01*
Y614D02*
Y616D01*
Y618D02*
Y623D01*
Y624D02*
Y624D01*
Y774D02*
Y774D01*
Y774D02*
Y778D01*
Y779D02*
Y779D01*
X263Y600D02*
Y600D01*
Y600D02*
Y609D01*
Y609D02*
Y609D01*
Y611D02*
Y612D01*
Y613D02*
Y614D01*
Y615D02*
Y618D01*
Y619D02*
Y620D01*
Y621D02*
Y623D01*
Y623D02*
Y623D01*
Y624D02*
Y624D01*
Y625D02*
Y625D01*
Y773D02*
Y774D01*
Y774D02*
Y774D01*
Y775D02*
Y778D01*
Y778D02*
Y778D01*
Y779D02*
Y779D01*
X263Y599D02*
Y608D01*
Y608D02*
Y609D01*
Y609D02*
Y610D01*
Y612D02*
Y613D01*
Y614D02*
Y615D01*
Y618D02*
Y619D01*
Y620D02*
Y621D01*
Y621D02*
Y622D01*
Y622D02*
Y622D01*
Y623D02*
Y623D01*
Y623D02*
Y623D01*
Y624D02*
Y624D01*
Y624D02*
Y625D01*
Y774D02*
Y774D01*
Y775D02*
Y778D01*
Y778D02*
Y779D01*
X264Y600D02*
Y607D01*
Y608D02*
Y608D01*
Y609D02*
Y609D01*
Y610D02*
Y611D01*
Y613D02*
Y613D01*
Y614D02*
Y614D01*
Y615D02*
Y615D01*
Y615D02*
Y617D01*
Y619D02*
Y621D01*
Y622D02*
Y623D01*
Y623D02*
Y624D01*
Y774D02*
Y774D01*
Y774D02*
Y775D01*
Y775D02*
Y778D01*
Y779D02*
Y779D01*
X264Y599D02*
Y606D01*
Y607D02*
Y607D01*
Y607D02*
Y608D01*
Y609D02*
Y610D01*
Y610D02*
Y613D01*
Y617D02*
Y618D01*
Y621D02*
Y621D01*
Y622D02*
Y622D01*
Y623D02*
Y623D01*
Y623D02*
Y623D01*
Y624D02*
Y624D01*
Y625D02*
Y625D01*
Y773D02*
Y774D01*
Y774D02*
Y774D01*
Y775D02*
Y775D01*
Y775D02*
Y779D01*
Y779D02*
Y779D01*
X264Y595D02*
Y596D01*
Y596D02*
Y597D01*
Y597D02*
Y598D01*
Y598D02*
Y598D01*
Y599D02*
Y605D01*
Y606D02*
Y606D01*
Y607D02*
Y607D01*
Y775D02*
Y779D01*
X264Y595D02*
Y595D01*
Y597D02*
Y597D01*
Y598D02*
Y598D01*
Y598D02*
Y605D01*
Y605D02*
Y605D01*
Y606D02*
Y606D01*
Y607D02*
Y607D01*
Y775D02*
Y778D01*
Y779D02*
Y779D01*
X264Y595D02*
Y596D01*
Y596D02*
Y597D01*
Y597D02*
Y598D01*
Y598D02*
Y604D01*
Y606D02*
Y606D01*
Y607D02*
Y607D01*
Y775D02*
Y779D01*
Y779D02*
Y779D01*
X265Y595D02*
Y595D01*
Y596D02*
Y596D01*
Y597D02*
Y597D01*
Y598D02*
Y604D01*
Y604D02*
Y605D01*
Y605D02*
Y606D01*
Y607D02*
Y607D01*
Y775D02*
Y779D01*
Y779D02*
Y779D01*
X265Y595D02*
Y595D01*
Y596D02*
Y597D01*
Y597D02*
Y603D01*
Y604D02*
Y604D01*
Y605D02*
Y605D01*
Y606D02*
Y607D01*
Y775D02*
Y779D01*
X265Y595D02*
Y595D01*
Y596D02*
Y596D01*
Y597D02*
Y603D01*
Y603D02*
Y604D01*
Y605D02*
Y605D01*
Y606D02*
Y607D01*
Y775D02*
Y779D01*
X266Y595D02*
Y595D01*
Y596D02*
Y596D01*
Y596D02*
Y602D01*
Y603D02*
Y603D01*
Y604D02*
Y604D01*
Y604D02*
Y607D01*
Y775D02*
Y779D01*
X266Y595D02*
Y595D01*
Y595D02*
Y596D01*
Y596D02*
Y601D01*
Y602D02*
Y602D01*
Y603D02*
Y603D01*
Y603D02*
Y604D01*
Y604D02*
Y604D01*
Y604D02*
Y605D01*
Y605D02*
Y605D01*
Y606D02*
Y606D01*
Y607D02*
Y607D01*
Y775D02*
Y775D01*
Y776D02*
Y779D01*
X266Y593D02*
Y594D01*
Y594D02*
Y595D01*
Y595D02*
Y595D01*
Y595D02*
Y595D01*
Y596D02*
Y601D01*
Y775D02*
Y775D01*
Y776D02*
Y780D01*
Y780D02*
Y781D01*
X266Y594D02*
Y594D01*
Y595D02*
Y595D01*
Y595D02*
Y601D01*
Y775D02*
Y775D01*
Y775D02*
Y779D01*
Y780D02*
Y780D01*
X266Y593D02*
Y594D01*
Y594D02*
Y594D01*
Y595D02*
Y600D01*
Y600D02*
Y601D01*
Y775D02*
Y776D01*
Y776D02*
Y779D01*
Y780D02*
Y780D01*
Y780D02*
Y781D01*
X267Y594D02*
Y595D01*
Y595D02*
Y600D01*
Y601D02*
Y601D01*
Y775D02*
Y775D01*
Y776D02*
Y780D01*
Y780D02*
Y781D01*
X267Y593D02*
Y594D01*
Y594D02*
Y594D01*
Y595D02*
Y600D01*
Y600D02*
Y601D01*
Y775D02*
Y775D01*
Y776D02*
Y776D01*
Y776D02*
Y780D01*
Y780D02*
Y780D01*
Y780D02*
Y780D01*
X267Y593D02*
Y594D01*
Y594D02*
Y600D01*
Y600D02*
Y600D01*
Y600D02*
Y601D01*
Y775D02*
Y775D01*
Y775D02*
Y776D01*
Y776D02*
Y776D01*
Y776D02*
Y780D01*
Y780D02*
Y780D01*
Y781D02*
Y781D01*
X268Y594D02*
Y594D01*
Y594D02*
Y599D01*
Y600D02*
Y600D01*
Y600D02*
Y601D01*
Y775D02*
Y776D01*
Y776D02*
Y780D01*
Y780D02*
Y780D01*
Y781D02*
Y781D01*
X268Y593D02*
Y594D01*
Y594D02*
Y599D01*
Y599D02*
Y600D01*
Y600D02*
Y600D01*
Y601D02*
Y601D01*
Y775D02*
Y775D01*
Y776D02*
Y776D01*
Y776D02*
Y776D01*
Y777D02*
Y780D01*
Y780D02*
Y781D01*
X268Y592D02*
Y592D01*
Y592D02*
Y592D01*
Y593D02*
Y593D01*
Y594D02*
Y598D01*
Y599D02*
Y599D01*
Y775D02*
Y775D01*
Y776D02*
Y776D01*
Y776D02*
Y780D01*
Y780D02*
Y780D01*
Y781D02*
Y781D01*
X268Y591D02*
Y591D01*
Y591D02*
Y592D01*
Y592D02*
Y592D01*
Y593D02*
Y593D01*
Y594D02*
Y598D01*
Y598D02*
Y599D01*
Y775D02*
Y775D01*
Y776D02*
Y776D01*
Y777D02*
Y780D01*
Y781D02*
Y781D01*
X269Y591D02*
Y592D01*
Y592D02*
Y592D01*
Y592D02*
Y593D01*
Y593D02*
Y598D01*
Y598D02*
Y598D01*
Y599D02*
Y599D01*
Y775D02*
Y775D01*
Y776D02*
Y776D01*
Y777D02*
Y780D01*
Y780D02*
Y781D01*
X269Y591D02*
Y591D01*
Y592D02*
Y592D01*
Y592D02*
Y592D01*
Y593D02*
Y598D01*
Y598D02*
Y599D01*
Y775D02*
Y775D01*
Y776D02*
Y781D01*
X269Y591D02*
Y591D01*
Y591D02*
Y592D01*
Y592D02*
Y592D01*
Y593D02*
Y597D01*
Y598D02*
Y598D01*
Y598D02*
Y598D01*
Y599D02*
Y599D01*
Y775D02*
Y776D01*
Y776D02*
Y780D01*
Y780D02*
Y781D01*
X269Y591D02*
Y591D01*
Y591D02*
Y592D01*
Y592D02*
Y596D01*
Y597D02*
Y598D01*
Y598D02*
Y599D01*
Y775D02*
Y775D01*
Y776D02*
Y776D01*
Y777D02*
Y780D01*
Y781D02*
Y781D01*
X269Y591D02*
Y596D01*
Y596D02*
Y597D01*
Y598D02*
Y598D01*
Y775D02*
Y775D01*
Y776D02*
Y780D01*
Y781D02*
Y781D01*
X270Y591D02*
Y591D01*
Y591D02*
Y592D01*
Y592D02*
Y596D01*
Y597D02*
Y597D01*
Y597D02*
Y598D01*
Y598D02*
Y599D01*
Y599D02*
Y599D01*
Y775D02*
Y776D01*
Y776D02*
Y776D01*
Y777D02*
Y777D01*
Y777D02*
Y780D01*
Y781D02*
Y781D01*
X270Y590D02*
Y590D01*
Y591D02*
Y591D01*
Y591D02*
Y591D01*
Y592D02*
Y596D01*
Y596D02*
Y596D01*
Y597D02*
Y597D01*
Y777D02*
Y780D01*
Y781D02*
Y781D01*
X270Y589D02*
Y589D01*
Y590D02*
Y590D01*
Y590D02*
Y591D01*
Y591D02*
Y596D01*
Y596D02*
Y597D01*
Y777D02*
Y781D01*
X271Y589D02*
Y590D01*
Y590D02*
Y590D01*
Y591D02*
Y595D01*
Y596D02*
Y596D01*
Y777D02*
Y781D01*
X271Y590D02*
Y590D01*
Y590D02*
Y590D01*
Y591D02*
Y595D01*
Y596D02*
Y596D01*
Y596D02*
Y597D01*
Y777D02*
Y777D01*
Y777D02*
Y781D01*
X271Y589D02*
Y589D01*
Y590D02*
Y590D01*
Y590D02*
Y591D01*
Y591D02*
Y595D01*
Y595D02*
Y596D01*
Y596D02*
Y596D01*
Y597D02*
Y597D01*
Y777D02*
Y777D01*
Y777D02*
Y781D01*
X271Y589D02*
Y590D01*
Y590D02*
Y590D01*
Y591D02*
Y595D01*
Y595D02*
Y595D01*
Y595D02*
Y596D01*
Y596D02*
Y596D01*
Y596D02*
Y597D01*
Y777D02*
Y777D01*
Y777D02*
Y781D01*
X271Y589D02*
Y589D01*
Y590D02*
Y590D01*
Y590D02*
Y595D01*
Y595D02*
Y595D01*
Y595D02*
Y595D01*
Y596D02*
Y596D01*
Y596D02*
Y597D01*
Y777D02*
Y777D01*
Y778D02*
Y781D01*
X272Y589D02*
Y590D01*
Y590D02*
Y595D01*
Y595D02*
Y596D01*
Y596D02*
Y596D01*
Y597D02*
Y597D01*
Y777D02*
Y777D01*
Y778D02*
Y781D01*
X272Y590D02*
Y594D01*
Y594D02*
Y595D01*
Y777D02*
Y778D01*
Y778D02*
Y781D01*
Y782D02*
Y783D01*
Y783D02*
Y783D01*
X272Y589D02*
Y590D01*
Y590D02*
Y594D01*
Y595D02*
Y595D01*
Y778D02*
Y782D01*
Y782D02*
Y783D01*
X273Y590D02*
Y590D01*
Y590D02*
Y594D01*
Y594D02*
Y594D01*
Y595D02*
Y595D01*
Y777D02*
Y777D01*
Y778D02*
Y781D01*
Y781D02*
Y781D01*
Y782D02*
Y782D01*
Y783D02*
Y783D01*
X273Y590D02*
Y593D01*
Y594D02*
Y594D01*
Y594D02*
Y595D01*
Y777D02*
Y777D01*
Y777D02*
Y778D01*
Y778D02*
Y781D01*
Y782D02*
Y782D01*
Y783D02*
Y783D01*
X273Y589D02*
Y589D01*
Y590D02*
Y594D01*
Y594D02*
Y594D01*
Y595D02*
Y595D01*
Y777D02*
Y777D01*
Y778D02*
Y782D01*
Y782D02*
Y782D01*
Y783D02*
Y783D01*
X273Y589D02*
Y593D01*
Y594D02*
Y594D01*
Y594D02*
Y595D01*
Y777D02*
Y777D01*
Y778D02*
Y781D01*
Y781D02*
Y782D01*
Y783D02*
Y783D01*
X273Y589D02*
Y593D01*
Y593D02*
Y594D01*
Y594D02*
Y595D01*
Y595D02*
Y595D01*
Y777D02*
Y777D01*
Y778D02*
Y781D01*
Y782D02*
Y783D01*
X274Y589D02*
Y593D01*
Y593D02*
Y594D01*
Y595D02*
Y595D01*
Y778D02*
Y778D01*
Y778D02*
Y781D01*
Y781D02*
Y782D01*
Y782D02*
Y783D01*
Y783D02*
Y783D01*
X274Y587D02*
Y587D01*
Y587D02*
Y588D01*
Y588D02*
Y592D01*
Y593D02*
Y593D01*
Y777D02*
Y778D01*
Y778D02*
Y778D01*
Y779D02*
Y782D01*
Y782D02*
Y782D01*
Y783D02*
Y783D01*
X274Y587D02*
Y587D01*
Y588D02*
Y589D01*
Y589D02*
Y592D01*
Y777D02*
Y777D01*
Y778D02*
Y778D01*
Y779D02*
Y782D01*
Y782D02*
Y782D01*
Y783D02*
Y783D01*
X275Y587D02*
Y588D01*
Y588D02*
Y589D01*
Y589D02*
Y592D01*
Y592D02*
Y593D01*
Y777D02*
Y777D01*
Y778D02*
Y778D01*
Y779D02*
Y782D01*
Y783D02*
Y783D01*
X275Y587D02*
Y588D01*
Y588D02*
Y592D01*
Y593D02*
Y593D01*
Y777D02*
Y777D01*
Y778D02*
Y781D01*
Y782D02*
Y782D01*
Y783D02*
Y783D01*
X275Y588D02*
Y592D01*
Y592D02*
Y593D01*
Y778D02*
Y778D01*
Y779D02*
Y781D01*
Y782D02*
Y782D01*
Y783D02*
Y783D01*
X275Y587D02*
Y587D01*
Y588D02*
Y588D01*
Y588D02*
Y592D01*
Y592D02*
Y592D01*
Y593D02*
Y593D01*
Y777D02*
Y778D01*
Y779D02*
Y781D01*
Y782D02*
Y783D01*
X275Y587D02*
Y588D01*
Y588D02*
Y591D01*
Y592D02*
Y592D01*
Y592D02*
Y593D01*
Y777D02*
Y777D01*
Y778D02*
Y782D01*
Y782D02*
Y783D01*
X276Y587D02*
Y587D01*
Y588D02*
Y591D01*
Y591D02*
Y592D01*
Y592D02*
Y592D01*
Y777D02*
Y777D01*
Y778D02*
Y779D01*
Y779D02*
Y782D01*
Y782D02*
Y783D01*
X276Y587D02*
Y591D01*
Y592D02*
Y592D01*
Y777D02*
Y777D01*
Y778D02*
Y778D01*
Y779D02*
Y782D01*
Y783D02*
Y783D01*
X276Y587D02*
Y587D01*
Y588D02*
Y591D01*
Y592D02*
Y592D01*
Y593D02*
Y593D01*
Y777D02*
Y777D01*
Y778D02*
Y778D01*
Y779D02*
Y782D01*
Y783D02*
Y783D01*
X276Y587D02*
Y587D01*
Y587D02*
Y591D01*
Y592D02*
Y592D01*
Y593D02*
Y593D01*
Y777D02*
Y777D01*
Y778D02*
Y778D01*
Y779D02*
Y783D01*
X277Y587D02*
Y591D01*
Y591D02*
Y592D01*
Y593D02*
Y593D01*
Y778D02*
Y778D01*
Y778D02*
Y779D01*
Y779D02*
Y782D01*
X277Y587D02*
Y592D01*
Y778D02*
Y778D01*
Y778D02*
Y779D01*
Y779D02*
Y782D01*
Y783D02*
Y783D01*
X277Y587D02*
Y590D01*
Y591D02*
Y591D01*
Y592D02*
Y593D01*
Y777D02*
Y777D01*
Y777D02*
Y778D01*
Y778D02*
Y779D01*
Y779D02*
Y783D01*
X278Y587D02*
Y591D01*
Y592D02*
Y593D01*
Y777D02*
Y777D01*
Y777D02*
Y778D01*
Y779D02*
Y783D01*
X278Y587D02*
Y590D01*
Y591D02*
Y592D01*
Y777D02*
Y778D01*
Y778D02*
Y779D01*
Y779D02*
Y783D01*
Y783D02*
Y783D01*
X278Y585D02*
Y586D01*
Y586D02*
Y586D01*
Y587D02*
Y590D01*
Y591D02*
Y591D01*
Y779D02*
Y783D01*
Y784D02*
Y785D01*
X278Y585D02*
Y586D01*
Y586D02*
Y586D01*
Y587D02*
Y590D01*
Y590D02*
Y591D01*
Y779D02*
Y783D01*
Y783D02*
Y784D01*
X278Y585D02*
Y586D01*
Y586D02*
Y586D01*
Y586D02*
Y590D01*
Y590D02*
Y591D01*
Y779D02*
Y784D01*
Y785D02*
Y785D01*
X279Y586D02*
Y586D01*
Y586D02*
Y590D01*
Y590D02*
Y590D01*
Y591D02*
Y591D01*
Y779D02*
Y783D01*
Y784D02*
Y784D01*
Y785D02*
Y785D01*
X279Y585D02*
Y585D01*
Y586D02*
Y586D01*
Y586D02*
Y590D01*
Y590D02*
Y590D01*
Y591D02*
Y591D01*
Y779D02*
Y783D01*
Y784D02*
Y784D01*
Y785D02*
Y785D01*
X279Y586D02*
Y586D01*
Y586D02*
Y590D01*
Y591D02*
Y591D01*
Y779D02*
Y783D01*
Y784D02*
Y784D01*
Y785D02*
Y785D01*
X280Y586D02*
Y590D01*
Y590D02*
Y590D01*
Y591D02*
Y591D01*
Y779D02*
Y784D01*
Y784D02*
Y784D01*
Y785D02*
Y785D01*
X280Y585D02*
Y585D01*
Y586D02*
Y586D01*
Y586D02*
Y590D01*
Y590D02*
Y590D01*
Y590D02*
Y591D01*
Y779D02*
Y784D01*
Y784D02*
Y784D01*
Y785D02*
Y785D01*
X280Y585D02*
Y586D01*
Y586D02*
Y586D01*
Y586D02*
Y589D01*
Y590D02*
Y590D01*
Y590D02*
Y590D01*
Y590D02*
Y591D01*
Y779D02*
Y783D01*
Y784D02*
Y784D01*
Y785D02*
Y785D01*
X280Y585D02*
Y586D01*
Y586D02*
Y586D01*
Y586D02*
Y589D01*
Y590D02*
Y590D01*
Y590D02*
Y591D01*
Y779D02*
Y784D01*
Y784D02*
Y784D01*
X280Y586D02*
Y589D01*
Y590D02*
Y590D01*
Y590D02*
Y591D01*
Y779D02*
Y784D01*
Y784D02*
Y784D01*
X281Y585D02*
Y585D01*
Y586D02*
Y589D01*
Y590D02*
Y590D01*
Y590D02*
Y590D01*
Y591D02*
Y591D01*
Y779D02*
Y784D01*
Y784D02*
Y784D01*
Y785D02*
Y785D01*
X281Y585D02*
Y585D01*
Y586D02*
Y586D01*
Y586D02*
Y589D01*
Y589D02*
Y590D01*
Y590D02*
Y590D01*
Y591D02*
Y591D01*
Y779D02*
Y784D01*
Y784D02*
Y785D01*
Y785D02*
Y785D01*
X281Y585D02*
Y586D01*
Y586D02*
Y589D01*
Y589D02*
Y590D01*
Y590D02*
Y590D01*
Y591D02*
Y591D01*
Y779D02*
Y784D01*
Y784D02*
Y785D01*
Y785D02*
Y785D01*
X282Y585D02*
Y586D01*
Y586D02*
Y590D01*
Y590D02*
Y590D01*
Y779D02*
Y784D01*
Y784D02*
Y785D01*
Y785D02*
Y785D01*
X282Y585D02*
Y586D01*
Y586D02*
Y589D01*
Y590D02*
Y590D01*
Y590D02*
Y591D01*
Y779D02*
Y785D01*
X282Y585D02*
Y589D01*
Y779D02*
Y784D01*
Y785D02*
Y785D01*
X282Y585D02*
Y586D01*
Y586D02*
Y589D01*
Y779D02*
Y784D01*
Y785D02*
Y785D01*
X282Y585D02*
Y589D01*
Y779D02*
Y784D01*
Y784D02*
Y785D01*
X283Y585D02*
Y589D01*
Y589D02*
Y589D01*
Y779D02*
Y784D01*
X283Y586D02*
Y589D01*
Y779D02*
Y784D01*
Y785D02*
Y785D01*
X283Y585D02*
Y585D01*
Y586D02*
Y589D01*
Y779D02*
Y784D01*
Y785D02*
Y785D01*
X283Y585D02*
Y585D01*
Y586D02*
Y589D01*
Y779D02*
Y784D01*
Y785D02*
Y785D01*
X284Y585D02*
Y585D01*
Y586D02*
Y588D01*
Y589D02*
Y589D01*
Y779D02*
Y784D01*
Y785D02*
Y785D01*
X284Y585D02*
Y589D01*
Y777D02*
Y777D01*
Y778D02*
Y778D01*
Y779D02*
Y785D01*
X284Y585D02*
Y589D01*
Y777D02*
Y777D01*
Y778D02*
Y778D01*
Y779D02*
Y785D01*
X285Y585D02*
Y589D01*
Y589D02*
Y589D01*
Y777D02*
Y778D01*
Y778D02*
Y778D01*
Y779D02*
Y785D01*
X285Y585D02*
Y589D01*
Y589D02*
Y589D01*
Y777D02*
Y778D01*
Y778D02*
Y778D01*
Y779D02*
Y785D01*
X285Y585D02*
Y589D01*
Y589D02*
Y589D01*
Y777D02*
Y778D01*
Y778D02*
Y779D01*
Y779D02*
Y785D01*
X285Y585D02*
Y588D01*
Y588D02*
Y589D01*
Y589D02*
Y589D01*
Y777D02*
Y777D01*
Y777D02*
Y778D01*
Y778D02*
Y779D01*
Y779D02*
Y785D01*
X285Y585D02*
Y588D01*
Y588D02*
Y589D01*
Y589D02*
Y589D01*
Y777D02*
Y777D01*
Y777D02*
Y778D01*
Y778D02*
Y779D01*
Y779D02*
Y785D01*
X286Y585D02*
Y588D01*
Y588D02*
Y589D01*
Y777D02*
Y778D01*
Y778D02*
Y785D01*
X286Y585D02*
Y588D01*
Y588D02*
Y589D01*
Y589D02*
Y589D01*
Y777D02*
Y777D01*
Y778D02*
Y778D01*
Y779D02*
Y785D01*
X286Y585D02*
Y588D01*
Y588D02*
Y589D01*
Y589D02*
Y589D01*
Y777D02*
Y777D01*
Y778D02*
Y778D01*
Y779D02*
Y785D01*
X287Y585D02*
Y588D01*
Y588D02*
Y589D01*
Y777D02*
Y777D01*
Y778D02*
Y778D01*
Y778D02*
Y785D01*
X287Y585D02*
Y588D01*
Y588D02*
Y589D01*
Y778D02*
Y778D01*
Y778D02*
Y785D01*
X287Y585D02*
Y588D01*
Y588D02*
Y589D01*
Y777D02*
Y777D01*
Y778D02*
Y778D01*
Y779D02*
Y785D01*
X287Y585D02*
Y588D01*
Y588D02*
Y589D01*
Y777D02*
Y777D01*
Y778D02*
Y778D01*
Y778D02*
Y785D01*
X287Y585D02*
Y588D01*
Y588D02*
Y589D01*
Y589D02*
Y589D01*
Y777D02*
Y777D01*
Y778D02*
Y785D01*
X288Y585D02*
Y588D01*
Y588D02*
Y588D01*
Y589D02*
Y589D01*
Y777D02*
Y777D01*
Y778D02*
Y785D01*
X288Y585D02*
Y588D01*
Y589D02*
Y589D01*
Y777D02*
Y777D01*
Y778D02*
Y785D01*
X288Y585D02*
Y588D01*
Y777D02*
Y777D01*
Y778D02*
Y778D01*
Y778D02*
Y785D01*
X289Y585D02*
Y588D01*
Y588D02*
Y589D01*
Y777D02*
Y777D01*
Y778D02*
Y778D01*
Y778D02*
Y785D01*
X289Y585D02*
Y588D01*
Y588D02*
Y589D01*
Y777D02*
Y777D01*
Y778D02*
Y785D01*
X289Y585D02*
Y588D01*
Y588D02*
Y589D01*
Y778D02*
Y785D01*
X289Y585D02*
Y588D01*
Y588D02*
Y589D01*
Y777D02*
Y778D01*
Y778D02*
Y785D01*
X289Y585D02*
Y588D01*
Y778D02*
Y785D01*
X290Y585D02*
Y588D01*
Y589D02*
Y589D01*
Y777D02*
Y777D01*
Y778D02*
Y785D01*
X290Y585D02*
Y588D01*
Y588D02*
Y588D01*
Y589D02*
Y589D01*
Y777D02*
Y785D01*
X290Y585D02*
Y588D01*
Y589D02*
Y589D01*
Y777D02*
Y785D01*
X290Y585D02*
Y588D01*
Y589D02*
Y589D01*
Y777D02*
Y777D01*
Y778D02*
Y785D01*
X291Y585D02*
Y588D01*
Y589D02*
Y589D01*
Y777D02*
Y785D01*
X291Y585D02*
Y588D01*
Y589D02*
Y589D01*
Y777D02*
Y785D01*
X291Y585D02*
Y588D01*
Y777D02*
Y785D01*
X292Y585D02*
Y589D01*
Y777D02*
Y785D01*
X292Y585D02*
Y589D01*
Y777D02*
Y785D01*
X292Y585D02*
Y588D01*
Y589D02*
Y589D01*
Y775D02*
Y775D01*
Y776D02*
Y776D01*
Y777D02*
Y785D01*
X292Y585D02*
Y588D01*
Y589D02*
Y589D01*
Y776D02*
Y776D01*
Y776D02*
Y777D01*
Y777D02*
Y785D01*
X292Y585D02*
Y588D01*
Y775D02*
Y775D01*
Y776D02*
Y776D01*
Y776D02*
Y777D01*
Y777D02*
Y785D01*
X293Y585D02*
Y589D01*
Y775D02*
Y775D01*
Y775D02*
Y776D01*
Y776D02*
Y777D01*
Y777D02*
Y785D01*
X293Y585D02*
Y589D01*
Y775D02*
Y775D01*
Y775D02*
Y776D01*
Y776D02*
Y776D01*
Y777D02*
Y785D01*
X293Y585D02*
Y588D01*
Y589D02*
Y589D01*
Y775D02*
Y776D01*
Y776D02*
Y776D01*
Y777D02*
Y785D01*
X294Y585D02*
Y588D01*
Y589D02*
Y589D01*
Y775D02*
Y775D01*
Y776D02*
Y776D01*
Y777D02*
Y785D01*
X294Y585D02*
Y588D01*
Y589D02*
Y589D01*
Y776D02*
Y776D01*
Y777D02*
Y785D01*
X294Y585D02*
Y589D01*
Y589D02*
Y589D01*
Y775D02*
Y775D01*
Y776D02*
Y776D01*
Y776D02*
Y785D01*
X294Y585D02*
Y589D01*
Y775D02*
Y775D01*
Y776D02*
Y776D01*
Y776D02*
Y785D01*
X294Y585D02*
Y589D01*
Y775D02*
Y775D01*
Y776D02*
Y785D01*
X295Y585D02*
Y589D01*
Y775D02*
Y775D01*
Y776D02*
Y785D01*
X295Y585D02*
Y589D01*
Y589D02*
Y589D01*
Y775D02*
Y775D01*
Y775D02*
Y785D01*
X295Y585D02*
Y589D01*
Y775D02*
Y775D01*
Y775D02*
Y776D01*
Y776D02*
Y785D01*
X296Y585D02*
Y586D01*
Y586D02*
Y589D01*
Y775D02*
Y775D01*
Y776D02*
Y785D01*
X296Y585D02*
Y589D01*
Y776D02*
Y785D01*
X296Y585D02*
Y585D01*
Y586D02*
Y589D01*
Y589D02*
Y590D01*
Y590D02*
Y590D01*
Y591D02*
Y591D01*
Y773D02*
Y774D01*
Y775D02*
Y775D01*
Y775D02*
Y785D01*
X296Y585D02*
Y586D01*
Y586D02*
Y589D01*
Y589D02*
Y590D01*
Y590D02*
Y590D01*
Y591D02*
Y591D01*
Y773D02*
Y773D01*
Y774D02*
Y775D01*
Y775D02*
Y785D01*
X296Y585D02*
Y586D01*
Y586D02*
Y589D01*
Y589D02*
Y590D01*
Y590D02*
Y590D01*
Y590D02*
Y591D01*
Y773D02*
Y773D01*
Y774D02*
Y774D01*
Y775D02*
Y785D01*
X297Y585D02*
Y586D01*
Y586D02*
Y589D01*
Y590D02*
Y590D01*
Y590D02*
Y591D01*
Y773D02*
Y774D01*
Y775D02*
Y775D01*
Y775D02*
Y785D01*
X297Y586D02*
Y589D01*
Y590D02*
Y590D01*
Y590D02*
Y590D01*
Y590D02*
Y591D01*
Y773D02*
Y774D01*
Y774D02*
Y785D01*
X297Y585D02*
Y585D01*
Y586D02*
Y589D01*
Y590D02*
Y590D01*
Y590D02*
Y591D01*
Y774D02*
Y775D01*
Y775D02*
Y785D01*
X298Y585D02*
Y586D01*
Y586D02*
Y590D01*
Y590D02*
Y590D01*
Y773D02*
Y773D01*
Y774D02*
Y774D01*
Y775D02*
Y785D01*
X298Y585D02*
Y586D01*
Y586D02*
Y590D01*
Y590D02*
Y590D01*
Y591D02*
Y591D01*
Y773D02*
Y773D01*
Y774D02*
Y774D01*
Y775D02*
Y785D01*
X298Y585D02*
Y586D01*
Y586D02*
Y590D01*
Y590D02*
Y590D01*
Y590D02*
Y591D01*
Y773D02*
Y773D01*
Y774D02*
Y774D01*
Y774D02*
Y774D01*
Y775D02*
Y785D01*
Y785D02*
Y785D01*
X298Y585D02*
Y586D01*
Y586D02*
Y586D01*
Y586D02*
Y590D01*
Y590D02*
Y590D01*
Y773D02*
Y774D01*
Y775D02*
Y785D01*
Y785D02*
Y785D01*
X299Y585D02*
Y585D01*
Y586D02*
Y590D01*
Y590D02*
Y591D01*
Y773D02*
Y774D01*
Y774D02*
Y774D01*
Y775D02*
Y785D01*
Y785D02*
Y785D01*
X299Y585D02*
Y586D01*
Y586D02*
Y590D01*
Y590D02*
Y591D01*
Y773D02*
Y773D01*
Y774D02*
Y774D01*
Y774D02*
Y785D01*
Y785D02*
Y785D01*
X299Y585D02*
Y586D01*
Y586D02*
Y586D01*
Y587D02*
Y591D01*
Y773D02*
Y774D01*
Y774D02*
Y785D01*
Y785D02*
Y785D01*
X299Y585D02*
Y585D01*
Y586D02*
Y586D01*
Y587D02*
Y590D01*
Y590D02*
Y591D01*
Y773D02*
Y774D01*
Y774D02*
Y785D01*
Y785D02*
Y785D01*
X299Y585D02*
Y585D01*
Y586D02*
Y586D01*
Y587D02*
Y590D01*
Y590D02*
Y591D01*
Y774D02*
Y785D01*
X300Y586D02*
Y586D01*
Y586D02*
Y587D01*
Y587D02*
Y590D01*
Y591D02*
Y591D01*
Y773D02*
Y774D01*
Y774D02*
Y784D01*
Y785D02*
Y785D01*
X300Y587D02*
Y590D01*
Y591D02*
Y591D01*
Y592D02*
Y593D01*
Y771D02*
Y771D01*
Y772D02*
Y772D01*
Y773D02*
Y773D01*
Y774D02*
Y785D01*
X300Y587D02*
Y591D01*
Y591D02*
Y592D01*
Y593D02*
Y593D01*
Y771D02*
Y771D01*
Y771D02*
Y772D01*
Y772D02*
Y773D01*
Y773D02*
Y785D01*
X301Y587D02*
Y591D01*
Y591D02*
Y592D01*
Y593D02*
Y593D01*
Y771D02*
Y771D01*
Y772D02*
Y772D01*
Y773D02*
Y784D01*
Y785D02*
Y785D01*
X301Y587D02*
Y587D01*
Y587D02*
Y591D01*
Y591D02*
Y591D01*
Y592D02*
Y592D01*
Y771D02*
Y772D01*
Y772D02*
Y772D01*
Y772D02*
Y773D01*
Y773D02*
Y784D01*
Y785D02*
Y785D01*
X301Y587D02*
Y591D01*
Y591D02*
Y592D01*
Y592D02*
Y593D01*
Y771D02*
Y772D01*
Y772D02*
Y784D01*
Y785D02*
Y785D01*
X301Y587D02*
Y587D01*
Y588D02*
Y591D01*
Y591D02*
Y592D01*
Y592D02*
Y593D01*
Y771D02*
Y771D01*
Y771D02*
Y772D01*
Y772D02*
Y784D01*
Y785D02*
Y785D01*
X301Y587D02*
Y587D01*
Y588D02*
Y591D01*
Y592D02*
Y592D01*
Y592D02*
Y593D01*
Y771D02*
Y771D01*
Y772D02*
Y772D01*
Y772D02*
Y784D01*
Y785D02*
Y785D01*
X302Y587D02*
Y587D01*
Y587D02*
Y588D01*
Y588D02*
Y591D01*
Y592D02*
Y592D01*
Y592D02*
Y593D01*
Y771D02*
Y772D01*
Y772D02*
Y784D01*
Y784D02*
Y784D01*
Y785D02*
Y785D01*
X302Y588D02*
Y592D01*
Y592D02*
Y592D01*
Y769D02*
Y769D01*
Y770D02*
Y770D01*
Y770D02*
Y771D01*
Y771D02*
Y771D01*
Y772D02*
Y784D01*
Y784D02*
Y784D01*
Y785D02*
Y785D01*
X302Y587D02*
Y588D01*
Y588D02*
Y591D01*
Y592D02*
Y592D01*
Y592D02*
Y592D01*
Y593D02*
Y593D01*
Y769D02*
Y770D01*
Y771D02*
Y771D01*
Y771D02*
Y784D01*
Y784D02*
Y784D01*
Y785D02*
Y785D01*
X303Y587D02*
Y587D01*
Y588D02*
Y592D01*
Y592D02*
Y593D01*
Y769D02*
Y770D01*
Y770D02*
Y771D01*
Y771D02*
Y771D01*
Y771D02*
Y784D01*
X303Y587D02*
Y587D01*
Y588D02*
Y592D01*
Y592D02*
Y592D01*
Y593D02*
Y593D01*
Y769D02*
Y770D01*
Y770D02*
Y770D01*
Y771D02*
Y771D01*
Y771D02*
Y784D01*
Y784D02*
Y784D01*
Y785D02*
Y785D01*
X303Y587D02*
Y587D01*
Y588D02*
Y588D01*
Y588D02*
Y592D01*
Y592D02*
Y593D01*
Y769D02*
Y770D01*
Y771D02*
Y771D01*
Y771D02*
Y784D01*
Y784D02*
Y784D01*
Y785D02*
Y785D01*
X303Y587D02*
Y587D01*
Y587D02*
Y588D01*
Y588D02*
Y592D01*
Y593D02*
Y593D01*
Y770D02*
Y770D01*
Y770D02*
Y771D01*
Y771D02*
Y784D01*
Y784D02*
Y785D01*
Y785D02*
Y785D01*
X303Y587D02*
Y587D01*
Y588D02*
Y593D01*
Y769D02*
Y769D01*
Y770D02*
Y770D01*
Y771D02*
Y783D01*
Y784D02*
Y785D01*
X304Y587D02*
Y587D01*
Y588D02*
Y588D01*
Y588D02*
Y592D01*
Y593D02*
Y593D01*
Y770D02*
Y770D01*
Y771D02*
Y783D01*
Y784D02*
Y784D01*
Y784D02*
Y785D01*
X304Y587D02*
Y587D01*
Y588D02*
Y593D01*
Y593D02*
Y593D01*
Y594D02*
Y594D01*
Y594D02*
Y594D01*
Y595D02*
Y595D01*
Y767D02*
Y767D01*
Y767D02*
Y768D01*
Y768D02*
Y769D01*
Y769D02*
Y770D01*
Y770D02*
Y770D01*
Y770D02*
Y783D01*
X304Y587D02*
Y587D01*
Y588D02*
Y588D01*
Y589D02*
Y593D01*
Y593D02*
Y594D01*
Y594D02*
Y595D01*
Y768D02*
Y768D01*
Y769D02*
Y769D01*
Y770D02*
Y783D01*
X305Y587D02*
Y587D01*
Y589D02*
Y593D01*
Y593D02*
Y594D01*
Y594D02*
Y595D01*
Y595D02*
Y595D01*
Y767D02*
Y767D01*
Y768D02*
Y769D01*
Y770D02*
Y770D01*
Y770D02*
Y783D01*
X305Y587D02*
Y588D01*
Y589D02*
Y593D01*
Y594D02*
Y594D01*
Y595D02*
Y595D01*
Y767D02*
Y767D01*
Y769D02*
Y770D01*
Y770D02*
Y783D01*
X305Y587D02*
Y588D01*
Y589D02*
Y594D01*
Y594D02*
Y595D01*
Y767D02*
Y767D01*
Y768D02*
Y768D01*
Y768D02*
Y769D01*
Y769D02*
Y783D01*
X305Y587D02*
Y587D01*
Y588D02*
Y588D01*
Y588D02*
Y594D01*
Y595D02*
Y595D01*
Y767D02*
Y768D01*
Y768D02*
Y769D01*
Y769D02*
Y783D01*
X306Y587D02*
Y587D01*
Y588D02*
Y589D01*
Y589D02*
Y594D01*
Y594D02*
Y594D01*
Y595D02*
Y595D01*
Y767D02*
Y767D01*
Y767D02*
Y768D01*
Y768D02*
Y768D01*
Y769D02*
Y783D01*
X306Y587D02*
Y587D01*
Y588D02*
Y589D01*
Y589D02*
Y594D01*
Y594D02*
Y595D01*
Y767D02*
Y767D01*
Y767D02*
Y768D01*
Y768D02*
Y768D01*
Y768D02*
Y783D01*
Y783D02*
Y783D01*
X306Y588D02*
Y588D01*
Y589D02*
Y595D01*
Y596D02*
Y596D01*
Y596D02*
Y597D01*
Y765D02*
Y765D01*
Y766D02*
Y766D01*
Y766D02*
Y766D01*
Y767D02*
Y767D01*
Y768D02*
Y768D01*
Y768D02*
Y783D01*
Y783D02*
Y783D01*
X306Y587D02*
Y587D01*
Y588D02*
Y588D01*
Y589D02*
Y595D01*
Y595D02*
Y595D01*
Y596D02*
Y596D01*
Y596D02*
Y596D01*
Y597D02*
Y597D01*
Y765D02*
Y766D01*
Y766D02*
Y766D01*
Y767D02*
Y767D01*
Y767D02*
Y768D01*
Y768D02*
Y783D01*
Y783D02*
Y783D01*
X306Y587D02*
Y587D01*
Y588D02*
Y588D01*
Y589D02*
Y595D01*
Y595D02*
Y595D01*
Y596D02*
Y596D01*
Y597D02*
Y597D01*
Y765D02*
Y765D01*
Y766D02*
Y766D01*
Y766D02*
Y767D01*
Y767D02*
Y767D01*
Y767D02*
Y783D01*
X307Y587D02*
Y587D01*
Y588D02*
Y588D01*
Y589D02*
Y595D01*
Y595D02*
Y595D01*
Y596D02*
Y596D01*
Y596D02*
Y597D01*
Y765D02*
Y766D01*
Y767D02*
Y767D01*
Y767D02*
Y782D01*
Y783D02*
Y783D01*
X307Y587D02*
Y587D01*
Y588D02*
Y589D01*
Y589D02*
Y595D01*
Y596D02*
Y596D01*
Y596D02*
Y597D01*
Y765D02*
Y766D01*
Y766D02*
Y766D01*
Y766D02*
Y767D01*
Y767D02*
Y782D01*
Y783D02*
Y783D01*
X307Y588D02*
Y596D01*
Y596D02*
Y597D01*
Y765D02*
Y765D01*
Y766D02*
Y766D01*
Y766D02*
Y766D01*
Y767D02*
Y782D01*
Y783D02*
Y783D01*
X308Y587D02*
Y588D01*
Y589D02*
Y596D01*
Y597D02*
Y597D01*
Y765D02*
Y766D01*
Y766D02*
Y766D01*
Y767D02*
Y782D01*
Y782D02*
Y783D01*
X308Y587D02*
Y588D01*
Y589D02*
Y589D01*
Y589D02*
Y596D01*
Y596D02*
Y597D01*
Y765D02*
Y765D01*
Y766D02*
Y766D01*
Y766D02*
Y782D01*
Y782D02*
Y783D01*
Y783D02*
Y783D01*
X308Y589D02*
Y596D01*
Y597D02*
Y598D01*
Y598D02*
Y599D01*
Y737D02*
Y738D01*
Y739D02*
Y739D01*
Y763D02*
Y763D01*
Y764D02*
Y764D01*
Y765D02*
Y765D01*
Y766D02*
Y782D01*
X308Y589D02*
Y597D01*
Y597D02*
Y597D01*
Y598D02*
Y598D01*
Y598D02*
Y599D01*
Y599D02*
Y599D01*
Y738D02*
Y738D01*
Y763D02*
Y763D01*
Y763D02*
Y764D01*
Y764D02*
Y765D01*
Y765D02*
Y765D01*
Y765D02*
Y782D01*
X308Y589D02*
Y598D01*
Y598D02*
Y599D01*
Y737D02*
Y737D01*
Y738D02*
Y739D01*
Y763D02*
Y764D01*
Y765D02*
Y781D01*
Y782D02*
Y783D01*
X309Y590D02*
Y597D01*
Y598D02*
Y598D01*
Y599D02*
Y599D01*
Y738D02*
Y738D01*
Y738D02*
Y739D01*
Y763D02*
Y763D01*
Y764D02*
Y764D01*
Y765D02*
Y765D01*
Y765D02*
Y781D01*
Y782D02*
Y783D01*
X309Y590D02*
Y597D01*
Y598D02*
Y598D01*
Y598D02*
Y598D01*
Y599D02*
Y599D01*
Y737D02*
Y738D01*
Y764D02*
Y781D01*
Y782D02*
Y783D01*
X309Y589D02*
Y598D01*
Y598D02*
Y598D01*
Y598D02*
Y599D01*
Y599D02*
Y599D01*
Y738D02*
Y738D01*
Y739D02*
Y739D01*
Y763D02*
Y764D01*
Y764D02*
Y781D01*
Y782D02*
Y783D01*
X310Y589D02*
Y590D01*
Y590D02*
Y598D01*
Y599D02*
Y599D01*
Y737D02*
Y738D01*
Y738D02*
Y738D01*
Y739D02*
Y739D01*
Y763D02*
Y763D01*
Y764D02*
Y781D01*
Y781D02*
Y782D01*
X310Y589D02*
Y590D01*
Y590D02*
Y598D01*
Y599D02*
Y599D01*
Y737D02*
Y739D01*
Y763D02*
Y781D01*
Y781D02*
Y782D01*
X310Y589D02*
Y589D01*
Y590D02*
Y599D01*
Y599D02*
Y599D01*
Y600D02*
Y600D01*
Y601D02*
Y601D01*
Y602D02*
Y602D01*
Y603D02*
Y603D01*
Y735D02*
Y735D01*
Y736D02*
Y736D01*
Y737D02*
Y739D01*
Y740D02*
Y741D01*
Y741D02*
Y741D01*
Y742D02*
Y742D01*
Y743D02*
Y743D01*
Y745D02*
Y745D01*
Y757D02*
Y757D01*
Y758D02*
Y759D01*
Y759D02*
Y760D01*
Y760D02*
Y761D01*
Y761D02*
Y761D01*
Y761D02*
Y762D01*
Y762D02*
Y780D01*
Y781D02*
Y781D01*
X310Y589D02*
Y590D01*
Y590D02*
Y599D01*
Y599D02*
Y600D01*
Y600D02*
Y601D01*
Y601D02*
Y602D01*
Y735D02*
Y735D01*
Y736D02*
Y737D01*
Y737D02*
Y740D01*
Y740D02*
Y740D01*
Y741D02*
Y741D01*
Y742D02*
Y742D01*
Y743D02*
Y743D01*
Y743D02*
Y744D01*
Y757D02*
Y758D01*
Y759D02*
Y759D01*
Y760D02*
Y760D01*
Y760D02*
Y761D01*
Y761D02*
Y761D01*
Y762D02*
Y762D01*
Y762D02*
Y780D01*
X310Y589D02*
Y590D01*
Y590D02*
Y600D01*
Y600D02*
Y600D01*
Y601D02*
Y601D01*
Y602D02*
Y603D01*
Y735D02*
Y735D01*
Y736D02*
Y736D01*
Y737D02*
Y740D01*
Y740D02*
Y741D01*
Y742D02*
Y742D01*
Y743D02*
Y744D01*
Y757D02*
Y758D01*
Y759D02*
Y760D01*
Y761D02*
Y762D01*
Y762D02*
Y780D01*
Y780D02*
Y781D01*
X311Y590D02*
Y590D01*
Y590D02*
Y600D01*
Y600D02*
Y601D01*
Y601D02*
Y601D01*
Y602D02*
Y603D01*
Y735D02*
Y736D01*
Y736D02*
Y741D01*
Y741D02*
Y742D01*
Y742D02*
Y743D01*
Y744D02*
Y744D01*
Y757D02*
Y757D01*
Y758D02*
Y760D01*
Y760D02*
Y761D01*
Y761D02*
Y780D01*
Y780D02*
Y781D01*
X311Y589D02*
Y589D01*
Y590D02*
Y590D01*
Y590D02*
Y600D01*
Y601D02*
Y602D01*
Y735D02*
Y742D01*
Y742D02*
Y742D01*
Y744D02*
Y744D01*
Y757D02*
Y757D01*
Y758D02*
Y758D01*
Y759D02*
Y759D01*
Y759D02*
Y760D01*
Y760D02*
Y760D01*
Y761D02*
Y780D01*
Y780D02*
Y781D01*
X311Y589D02*
Y589D01*
Y590D02*
Y590D01*
Y590D02*
Y600D01*
Y602D02*
Y602D01*
Y735D02*
Y735D01*
Y736D02*
Y742D01*
Y742D02*
Y743D01*
Y743D02*
Y743D01*
Y744D02*
Y745D01*
Y757D02*
Y757D01*
Y758D02*
Y758D01*
Y759D02*
Y760D01*
Y760D02*
Y780D01*
Y780D02*
Y780D01*
X312Y589D02*
Y589D01*
Y590D02*
Y590D01*
Y590D02*
Y601D01*
Y602D02*
Y602D01*
Y603D02*
Y603D01*
Y735D02*
Y736D01*
Y736D02*
Y743D01*
Y743D02*
Y743D01*
Y744D02*
Y745D01*
Y757D02*
Y757D01*
Y758D02*
Y758D01*
Y758D02*
Y759D01*
Y760D02*
Y780D01*
Y780D02*
Y780D01*
X312Y589D02*
Y590D01*
Y590D02*
Y590D01*
Y590D02*
Y601D01*
Y602D02*
Y602D01*
Y603D02*
Y603D01*
Y735D02*
Y735D01*
Y735D02*
Y744D01*
Y744D02*
Y745D01*
Y757D02*
Y758D01*
Y758D02*
Y780D01*
Y780D02*
Y780D01*
Y780D02*
Y781D01*
X312Y589D02*
Y590D01*
Y590D02*
Y602D01*
Y602D02*
Y603D01*
Y603D02*
Y603D01*
Y604D02*
Y604D01*
Y604D02*
Y605D01*
Y605D02*
Y606D01*
Y607D02*
Y607D01*
Y623D02*
Y623D01*
Y624D02*
Y625D01*
Y626D02*
Y626D01*
Y627D02*
Y627D01*
Y627D02*
Y627D01*
Y628D02*
Y629D01*
Y630D02*
Y630D01*
Y631D02*
Y631D01*
Y733D02*
Y733D01*
Y734D02*
Y734D01*
Y735D02*
Y735D01*
Y735D02*
Y744D01*
Y746D02*
Y746D01*
Y747D02*
Y747D01*
Y747D02*
Y748D01*
Y752D02*
Y753D01*
Y753D02*
Y754D01*
Y756D02*
Y756D01*
Y757D02*
Y757D01*
Y758D02*
Y780D01*
Y780D02*
Y780D01*
X312Y589D02*
Y590D01*
Y590D02*
Y602D01*
Y603D02*
Y603D01*
Y604D02*
Y604D01*
Y605D02*
Y605D01*
Y606D02*
Y607D01*
Y623D02*
Y624D01*
Y625D02*
Y627D01*
Y627D02*
Y627D01*
Y627D02*
Y629D01*
Y630D02*
Y630D01*
Y631D02*
Y631D01*
Y734D02*
Y734D01*
Y734D02*
Y734D01*
Y735D02*
Y735D01*
Y735D02*
Y745D01*
Y746D02*
Y747D01*
Y747D02*
Y747D01*
Y748D02*
Y749D01*
Y750D02*
Y752D01*
Y753D02*
Y753D01*
Y754D02*
Y755D01*
Y756D02*
Y757D01*
Y757D02*
Y780D01*
Y780D02*
Y780D01*
Y781D02*
Y781D01*
X312Y589D02*
Y590D01*
Y591D02*
Y603D01*
Y604D02*
Y605D01*
Y605D02*
Y606D01*
Y607D02*
Y607D01*
Y623D02*
Y623D01*
Y624D02*
Y625D01*
Y626D02*
Y630D01*
Y630D02*
Y631D01*
Y733D02*
Y733D01*
Y734D02*
Y734D01*
Y734D02*
Y734D01*
Y735D02*
Y735D01*
Y735D02*
Y746D01*
Y747D02*
Y748D01*
Y748D02*
Y748D01*
Y749D02*
Y749D01*
Y752D02*
Y753D01*
Y753D02*
Y754D01*
Y755D02*
Y779D01*
Y781D02*
Y781D01*
X313Y590D02*
Y590D01*
Y591D02*
Y604D01*
Y606D02*
Y606D01*
Y607D02*
Y607D01*
Y623D02*
Y624D01*
Y625D02*
Y626D01*
Y626D02*
Y626D01*
Y627D02*
Y630D01*
Y733D02*
Y734D01*
Y734D02*
Y734D01*
Y734D02*
Y735D01*
Y735D02*
Y748D01*
Y748D02*
Y752D01*
Y754D02*
Y779D01*
Y779D02*
Y780D01*
X313Y590D02*
Y590D01*
Y591D02*
Y604D01*
Y604D02*
Y605D01*
Y606D02*
Y607D01*
Y624D02*
Y625D01*
Y626D02*
Y626D01*
Y626D02*
Y630D01*
Y631D02*
Y631D01*
Y733D02*
Y734D01*
Y734D02*
Y734D01*
Y734D02*
Y734D01*
Y735D02*
Y751D01*
Y751D02*
Y779D01*
Y779D02*
Y780D01*
Y780D02*
Y781D01*
X313Y590D02*
Y591D01*
Y591D02*
Y604D01*
Y605D02*
Y606D01*
Y606D02*
Y607D01*
Y623D02*
Y624D01*
Y625D02*
Y625D01*
Y626D02*
Y631D01*
Y733D02*
Y733D01*
Y734D02*
Y734D01*
Y734D02*
Y779D01*
Y780D02*
Y781D01*
X313Y590D02*
Y591D01*
Y591D02*
Y605D01*
Y605D02*
Y605D01*
Y606D02*
Y607D01*
Y623D02*
Y624D01*
Y624D02*
Y631D01*
Y733D02*
Y733D01*
Y734D02*
Y734D01*
Y734D02*
Y779D01*
Y781D02*
Y781D01*
X314Y589D02*
Y589D01*
Y591D02*
Y591D01*
Y591D02*
Y605D01*
Y606D02*
Y606D01*
Y607D02*
Y607D01*
Y623D02*
Y623D01*
Y624D02*
Y631D01*
Y733D02*
Y734D01*
Y734D02*
Y778D01*
Y779D02*
Y779D01*
Y780D02*
Y780D01*
Y781D02*
Y781D01*
X314Y591D02*
Y591D01*
Y592D02*
Y607D01*
Y607D02*
Y607D01*
Y609D02*
Y609D01*
Y610D02*
Y611D01*
Y616D02*
Y617D01*
Y618D02*
Y618D01*
Y619D02*
Y621D01*
Y621D02*
Y622D01*
Y623D02*
Y632D01*
Y632D02*
Y632D01*
Y633D02*
Y634D01*
Y635D02*
Y635D01*
Y731D02*
Y731D01*
Y732D02*
Y732D01*
Y732D02*
Y733D01*
Y733D02*
Y734D01*
Y734D02*
Y778D01*
Y779D02*
Y779D01*
X314Y591D02*
Y607D01*
Y607D02*
Y608D01*
Y610D02*
Y611D01*
Y612D02*
Y613D01*
Y613D02*
Y614D01*
Y616D02*
Y618D01*
Y619D02*
Y619D01*
Y620D02*
Y621D01*
Y621D02*
Y621D01*
Y622D02*
Y632D01*
Y632D02*
Y632D01*
Y632D02*
Y633D01*
Y633D02*
Y633D01*
Y634D02*
Y635D01*
Y731D02*
Y732D01*
Y733D02*
Y733D01*
Y734D02*
Y778D01*
X315Y591D02*
Y592D01*
Y592D02*
Y608D01*
Y609D02*
Y609D01*
Y609D02*
Y610D01*
Y611D02*
Y612D01*
Y613D02*
Y613D01*
Y614D02*
Y615D01*
Y618D02*
Y619D01*
Y619D02*
Y620D01*
Y621D02*
Y621D01*
Y622D02*
Y632D01*
Y632D02*
Y633D01*
Y633D02*
Y634D01*
Y731D02*
Y732D01*
Y732D02*
Y733D01*
Y733D02*
Y733D01*
Y734D02*
Y778D01*
X315Y591D02*
Y592D01*
Y592D02*
Y609D01*
Y609D02*
Y610D01*
Y612D02*
Y613D01*
Y613D02*
Y613D01*
Y616D02*
Y617D01*
Y617D02*
Y618D01*
Y619D02*
Y619D01*
Y620D02*
Y620D01*
Y621D02*
Y632D01*
Y633D02*
Y633D01*
Y635D02*
Y635D01*
Y731D02*
Y732D01*
Y732D02*
Y732D01*
Y733D02*
Y778D01*
Y778D02*
Y779D01*
X315Y591D02*
Y591D01*
Y591D02*
Y592D01*
Y592D02*
Y611D01*
Y612D02*
Y613D01*
Y614D02*
Y616D01*
Y617D02*
Y618D01*
Y619D02*
Y633D01*
Y633D02*
Y634D01*
Y634D02*
Y635D01*
Y732D02*
Y732D01*
Y733D02*
Y733D01*
Y733D02*
Y777D01*
Y778D02*
Y779D01*
Y779D02*
Y779D01*
X315Y591D02*
Y591D01*
Y592D02*
Y592D01*
Y592D02*
Y613D01*
Y613D02*
Y613D01*
Y617D02*
Y633D01*
Y633D02*
Y635D01*
Y732D02*
Y732D01*
Y732D02*
Y733D01*
Y733D02*
Y777D01*
Y778D02*
Y778D01*
X315Y591D02*
Y591D01*
Y592D02*
Y592D01*
Y592D02*
Y633D01*
Y634D02*
Y634D01*
Y635D02*
Y635D01*
Y731D02*
Y731D01*
Y732D02*
Y732D01*
Y733D02*
Y777D01*
X316Y591D02*
Y591D01*
Y592D02*
Y592D01*
Y593D02*
Y634D01*
Y634D02*
Y635D01*
Y732D02*
Y732D01*
Y732D02*
Y732D01*
Y733D02*
Y777D01*
Y777D02*
Y778D01*
X316Y593D02*
Y634D01*
Y635D02*
Y635D01*
Y635D02*
Y636D01*
Y636D02*
Y637D01*
Y637D02*
Y637D01*
Y681D02*
Y682D01*
Y683D02*
Y683D01*
Y684D02*
Y684D01*
Y685D02*
Y685D01*
Y686D02*
Y688D01*
Y688D02*
Y688D01*
Y688D02*
Y689D01*
Y729D02*
Y729D01*
Y729D02*
Y730D01*
Y730D02*
Y731D01*
Y731D02*
Y732D01*
Y732D02*
Y777D01*
X316Y593D02*
Y635D01*
Y635D02*
Y635D01*
Y636D02*
Y636D01*
Y636D02*
Y637D01*
Y681D02*
Y682D01*
Y682D02*
Y683D01*
Y683D02*
Y683D01*
Y684D02*
Y684D01*
Y684D02*
Y685D01*
Y685D02*
Y688D01*
Y688D02*
Y689D01*
Y729D02*
Y730D01*
Y731D02*
Y732D01*
Y732D02*
Y776D01*
X317Y593D02*
Y635D01*
Y635D02*
Y636D01*
Y636D02*
Y636D01*
Y637D02*
Y637D01*
Y681D02*
Y681D01*
Y682D02*
Y682D01*
Y683D02*
Y683D01*
Y683D02*
Y684D01*
Y684D02*
Y684D01*
Y684D02*
Y688D01*
Y688D02*
Y689D01*
Y729D02*
Y729D01*
Y730D02*
Y730D01*
Y730D02*
Y731D01*
Y732D02*
Y776D01*
X317Y594D02*
Y635D01*
Y636D02*
Y636D01*
Y682D02*
Y682D01*
Y683D02*
Y683D01*
Y684D02*
Y688D01*
Y729D02*
Y729D01*
Y730D02*
Y730D01*
Y731D02*
Y776D01*
Y776D02*
Y777D01*
X317Y593D02*
Y593D01*
Y594D02*
Y636D01*
Y636D02*
Y637D01*
Y681D02*
Y682D01*
Y682D02*
Y683D01*
Y683D02*
Y683D01*
Y684D02*
Y688D01*
Y688D02*
Y689D01*
Y729D02*
Y729D01*
Y730D02*
Y730D01*
Y730D02*
Y731D01*
Y731D02*
Y776D01*
Y776D02*
Y777D01*
X317Y593D02*
Y594D01*
Y594D02*
Y636D01*
Y637D02*
Y637D01*
Y681D02*
Y682D01*
Y682D02*
Y683D01*
Y683D02*
Y689D01*
Y729D02*
Y729D01*
Y729D02*
Y730D01*
Y730D02*
Y731D01*
Y731D02*
Y775D01*
Y776D02*
Y776D01*
Y777D02*
Y777D01*
X317Y593D02*
Y594D01*
Y594D02*
Y636D01*
Y637D02*
Y637D01*
Y681D02*
Y682D01*
Y682D02*
Y682D01*
Y683D02*
Y689D01*
Y729D02*
Y730D01*
Y730D02*
Y730D01*
Y731D02*
Y775D01*
Y776D02*
Y776D01*
Y777D02*
Y777D01*
X318Y593D02*
Y593D01*
Y594D02*
Y594D01*
Y594D02*
Y637D01*
Y681D02*
Y682D01*
Y682D02*
Y682D01*
Y683D02*
Y689D01*
Y729D02*
Y729D01*
Y730D02*
Y730D01*
Y730D02*
Y775D01*
Y775D02*
Y776D01*
Y777D02*
Y777D01*
X318Y593D02*
Y593D01*
Y594D02*
Y637D01*
Y638D02*
Y638D01*
Y640D02*
Y640D01*
Y640D02*
Y641D01*
Y677D02*
Y678D01*
Y678D02*
Y679D01*
Y679D02*
Y681D01*
Y682D02*
Y682D01*
Y682D02*
Y689D01*
Y690D02*
Y690D01*
Y691D02*
Y691D01*
Y691D02*
Y692D01*
Y692D02*
Y692D01*
Y693D02*
Y693D01*
Y727D02*
Y728D01*
Y729D02*
Y729D01*
Y729D02*
Y729D01*
Y730D02*
Y730D01*
Y730D02*
Y775D01*
X318Y593D02*
Y593D01*
Y595D02*
Y638D01*
Y638D02*
Y640D01*
Y640D02*
Y641D01*
Y641D02*
Y641D01*
Y677D02*
Y677D01*
Y678D02*
Y679D01*
Y681D02*
Y682D01*
Y682D02*
Y689D01*
Y690D02*
Y690D01*
Y690D02*
Y691D01*
Y691D02*
Y691D01*
Y692D02*
Y692D01*
Y727D02*
Y727D01*
Y728D02*
Y728D01*
Y729D02*
Y729D01*
Y729D02*
Y730D01*
Y730D02*
Y775D01*
X319Y593D02*
Y593D01*
Y594D02*
Y594D01*
Y595D02*
Y638D01*
Y639D02*
Y640D01*
Y641D02*
Y641D01*
Y677D02*
Y677D01*
Y678D02*
Y678D01*
Y679D02*
Y680D01*
Y680D02*
Y681D01*
Y681D02*
Y690D01*
Y690D02*
Y690D01*
Y691D02*
Y692D01*
Y692D02*
Y693D01*
Y727D02*
Y728D01*
Y729D02*
Y729D01*
Y729D02*
Y774D01*
Y775D02*
Y775D01*
X319Y594D02*
Y594D01*
Y595D02*
Y639D01*
Y677D02*
Y678D01*
Y679D02*
Y679D01*
Y680D02*
Y680D01*
Y681D02*
Y691D01*
Y692D02*
Y692D01*
Y692D02*
Y693D01*
Y728D02*
Y729D01*
Y729D02*
Y774D01*
Y775D02*
Y775D01*
X319Y593D02*
Y593D01*
Y594D02*
Y595D01*
Y595D02*
Y640D01*
Y641D02*
Y641D01*
Y677D02*
Y678D01*
Y678D02*
Y679D01*
Y679D02*
Y680D01*
Y680D02*
Y691D01*
Y691D02*
Y691D01*
Y692D02*
Y692D01*
Y693D02*
Y693D01*
Y727D02*
Y727D01*
Y729D02*
Y729D01*
Y729D02*
Y774D01*
Y774D02*
Y775D01*
X319Y593D02*
Y593D01*
Y594D02*
Y595D01*
Y595D02*
Y595D01*
Y595D02*
Y640D01*
Y641D02*
Y641D01*
Y677D02*
Y678D01*
Y678D02*
Y678D01*
Y679D02*
Y679D01*
Y680D02*
Y691D01*
Y692D02*
Y692D01*
Y692D02*
Y692D01*
Y693D02*
Y693D01*
Y727D02*
Y728D01*
Y728D02*
Y729D01*
Y729D02*
Y774D01*
Y774D02*
Y775D01*
X319Y595D02*
Y595D01*
Y596D02*
Y640D01*
Y641D02*
Y641D01*
Y677D02*
Y678D01*
Y678D02*
Y678D01*
Y679D02*
Y679D01*
Y679D02*
Y691D01*
Y692D02*
Y692D01*
Y692D02*
Y693D01*
Y727D02*
Y728D01*
Y729D02*
Y773D01*
Y774D02*
Y775D01*
X320Y595D02*
Y596D01*
Y596D02*
Y641D01*
Y677D02*
Y678D01*
Y678D02*
Y678D01*
Y678D02*
Y692D01*
Y692D02*
Y692D01*
Y693D02*
Y693D01*
Y727D02*
Y727D01*
Y728D02*
Y773D01*
Y773D02*
Y774D01*
Y774D02*
Y775D01*
X320Y595D02*
Y596D01*
Y596D02*
Y641D01*
Y642D02*
Y642D01*
Y642D02*
Y643D01*
Y643D02*
Y644D01*
Y645D02*
Y645D01*
Y646D02*
Y647D01*
Y673D02*
Y673D01*
Y674D02*
Y674D01*
Y675D02*
Y675D01*
Y676D02*
Y676D01*
Y677D02*
Y677D01*
Y678D02*
Y678D01*
Y678D02*
Y692D01*
Y692D02*
Y692D01*
Y693D02*
Y693D01*
Y693D02*
Y693D01*
Y694D02*
Y695D01*
Y725D02*
Y725D01*
Y726D02*
Y726D01*
Y727D02*
Y727D01*
Y728D02*
Y773D01*
X320Y595D02*
Y596D01*
Y596D02*
Y642D01*
Y643D02*
Y643D01*
Y644D02*
Y644D01*
Y645D02*
Y645D01*
Y645D02*
Y646D01*
Y673D02*
Y674D01*
Y674D02*
Y675D01*
Y675D02*
Y676D01*
Y677D02*
Y677D01*
Y678D02*
Y692D01*
Y692D02*
Y693D01*
Y693D02*
Y694D01*
Y694D02*
Y695D01*
Y695D02*
Y695D01*
Y725D02*
Y725D01*
Y725D02*
Y726D01*
Y726D02*
Y726D01*
Y727D02*
Y772D01*
X320Y595D02*
Y596D01*
Y596D02*
Y642D01*
Y643D02*
Y643D01*
Y643D02*
Y643D01*
Y644D02*
Y645D01*
Y645D02*
Y645D01*
Y646D02*
Y647D01*
Y673D02*
Y673D01*
Y674D02*
Y674D01*
Y675D02*
Y675D01*
Y676D02*
Y677D01*
Y677D02*
Y692D01*
Y693D02*
Y693D01*
Y694D02*
Y694D01*
Y695D02*
Y695D01*
Y725D02*
Y725D01*
Y726D02*
Y726D01*
Y726D02*
Y772D01*
Y772D02*
Y773D01*
X321Y595D02*
Y596D01*
Y597D02*
Y643D01*
Y644D02*
Y644D01*
Y645D02*
Y645D01*
Y645D02*
Y646D01*
Y647D02*
Y647D01*
Y673D02*
Y674D01*
Y674D02*
Y675D01*
Y675D02*
Y693D01*
Y693D02*
Y694D01*
Y695D02*
Y695D01*
Y725D02*
Y725D01*
Y726D02*
Y726D01*
Y726D02*
Y772D01*
Y772D02*
Y773D01*
X321Y595D02*
Y596D01*
Y597D02*
Y644D01*
Y644D02*
Y645D01*
Y645D02*
Y645D01*
Y673D02*
Y674D01*
Y675D02*
Y693D01*
Y694D02*
Y694D01*
Y694D02*
Y695D01*
Y695D02*
Y695D01*
Y725D02*
Y726D01*
Y726D02*
Y771D01*
X321Y597D02*
Y597D01*
Y598D02*
Y645D01*
Y646D02*
Y647D01*
Y674D02*
Y674D01*
Y674D02*
Y694D01*
Y695D02*
Y695D01*
Y725D02*
Y725D01*
Y726D02*
Y771D01*
Y772D02*
Y772D01*
Y773D02*
Y773D01*
X322Y596D02*
Y596D01*
Y597D02*
Y597D01*
Y598D02*
Y646D01*
Y646D02*
Y647D01*
Y673D02*
Y674D01*
Y674D02*
Y694D01*
Y694D02*
Y695D01*
Y695D02*
Y695D01*
Y725D02*
Y725D01*
Y725D02*
Y771D01*
Y771D02*
Y772D01*
Y773D02*
Y773D01*
X322Y595D02*
Y595D01*
Y596D02*
Y596D01*
Y597D02*
Y598D01*
Y598D02*
Y646D01*
Y647D02*
Y647D01*
Y673D02*
Y695D01*
Y725D02*
Y771D01*
Y771D02*
Y771D01*
Y772D02*
Y773D01*
X322Y598D02*
Y598D01*
Y598D02*
Y647D01*
Y648D02*
Y648D01*
Y649D02*
Y650D01*
Y651D02*
Y651D01*
Y651D02*
Y652D01*
Y655D02*
Y655D01*
Y655D02*
Y656D01*
Y659D02*
Y660D01*
Y660D02*
Y661D01*
Y663D02*
Y665D01*
Y665D02*
Y666D01*
Y667D02*
Y667D01*
Y668D02*
Y669D01*
Y669D02*
Y670D01*
Y671D02*
Y671D01*
Y671D02*
Y695D01*
Y695D02*
Y696D01*
Y696D02*
Y696D01*
Y697D02*
Y697D01*
Y698D02*
Y699D01*
Y721D02*
Y721D01*
Y722D02*
Y723D01*
Y723D02*
Y724D01*
Y724D02*
Y724D01*
Y725D02*
Y770D01*
X322Y597D02*
Y597D01*
Y598D02*
Y598D01*
Y599D02*
Y649D01*
Y650D02*
Y651D01*
Y652D02*
Y655D01*
Y657D02*
Y658D01*
Y661D02*
Y662D01*
Y663D02*
Y664D01*
Y668D02*
Y668D01*
Y669D02*
Y669D01*
Y670D02*
Y670D01*
Y671D02*
Y696D01*
Y696D02*
Y696D01*
Y696D02*
Y697D01*
Y697D02*
Y697D01*
Y698D02*
Y698D01*
Y721D02*
Y722D01*
Y723D02*
Y723D01*
Y724D02*
Y724D01*
Y724D02*
Y770D01*
Y771D02*
Y771D01*
X322Y597D02*
Y597D01*
Y598D02*
Y598D01*
Y599D02*
Y650D01*
Y650D02*
Y650D01*
Y651D02*
Y652D01*
Y655D02*
Y655D01*
Y659D02*
Y661D01*
Y662D02*
Y665D01*
Y666D02*
Y667D01*
Y667D02*
Y668D01*
Y669D02*
Y669D01*
Y669D02*
Y696D01*
Y696D02*
Y697D01*
Y697D02*
Y698D01*
Y698D02*
Y698D01*
Y699D02*
Y699D01*
Y722D02*
Y722D01*
Y723D02*
Y724D01*
Y724D02*
Y770D01*
X323Y598D02*
Y598D01*
Y599D02*
Y651D01*
Y651D02*
Y652D01*
Y653D02*
Y655D01*
Y657D02*
Y658D01*
Y661D02*
Y662D01*
Y665D02*
Y665D01*
Y668D02*
Y696D01*
Y697D02*
Y697D01*
Y697D02*
Y697D01*
Y698D02*
Y698D01*
Y721D02*
Y721D01*
Y722D02*
Y723D01*
Y723D02*
Y723D01*
Y723D02*
Y769D01*
Y770D02*
Y771D01*
X323Y597D02*
Y597D01*
Y598D02*
Y599D01*
Y600D02*
Y653D01*
Y653D02*
Y653D01*
Y655D02*
Y657D01*
Y658D02*
Y661D01*
Y662D02*
Y665D01*
Y665D02*
Y666D01*
Y666D02*
Y697D01*
Y697D02*
Y698D01*
Y698D02*
Y699D01*
Y721D02*
Y721D01*
Y722D02*
Y722D01*
Y723D02*
Y768D01*
Y769D02*
Y769D01*
X323Y597D02*
Y597D01*
Y600D02*
Y655D01*
Y657D02*
Y659D01*
Y664D02*
Y697D01*
Y698D02*
Y698D01*
Y721D02*
Y721D01*
Y721D02*
Y722D01*
Y722D02*
Y768D01*
Y769D02*
Y769D01*
Y771D02*
Y771D01*
X324Y597D02*
Y598D01*
Y599D02*
Y600D01*
Y600D02*
Y698D01*
Y698D02*
Y699D01*
Y721D02*
Y721D01*
Y721D02*
Y768D01*
Y768D02*
Y769D01*
Y771D02*
Y771D01*
X324Y598D02*
Y598D01*
Y598D02*
Y599D01*
Y599D02*
Y599D01*
Y600D02*
Y600D01*
Y600D02*
Y699D01*
Y721D02*
Y767D01*
Y767D02*
Y768D01*
Y770D02*
Y770D01*
Y771D02*
Y771D01*
X324Y601D02*
Y700D01*
Y700D02*
Y700D01*
Y701D02*
Y701D01*
Y702D02*
Y703D01*
Y703D02*
Y704D01*
Y705D02*
Y705D01*
Y706D02*
Y707D01*
Y707D02*
Y707D01*
Y711D02*
Y713D01*
Y714D02*
Y715D01*
Y716D02*
Y716D01*
Y717D02*
Y717D01*
Y718D02*
Y719D01*
Y719D02*
Y720D01*
Y720D02*
Y767D01*
X324Y601D02*
Y700D01*
Y701D02*
Y701D01*
Y701D02*
Y702D01*
Y703D02*
Y703D01*
Y705D02*
Y705D01*
Y706D02*
Y708D01*
Y714D02*
Y714D01*
Y715D02*
Y716D01*
Y717D02*
Y717D01*
Y718D02*
Y718D01*
Y719D02*
Y719D01*
Y719D02*
Y742D01*
Y742D02*
Y766D01*
Y767D02*
Y767D01*
X324Y601D02*
Y701D01*
Y703D02*
Y703D01*
Y704D02*
Y705D01*
Y706D02*
Y706D01*
Y712D02*
Y713D01*
Y714D02*
Y715D01*
Y716D02*
Y716D01*
Y717D02*
Y718D01*
Y719D02*
Y742D01*
Y743D02*
Y766D01*
Y766D02*
Y767D01*
X325Y601D02*
Y702D01*
Y702D02*
Y703D01*
Y703D02*
Y704D01*
Y705D02*
Y705D01*
Y706D02*
Y707D01*
Y709D02*
Y709D01*
Y711D02*
Y711D01*
Y714D02*
Y714D01*
Y715D02*
Y716D01*
Y716D02*
Y717D01*
Y718D02*
Y741D01*
Y742D02*
Y742D01*
Y743D02*
Y765D01*
Y766D02*
Y767D01*
X325Y601D02*
Y602D01*
Y602D02*
Y703D01*
Y704D02*
Y705D01*
Y705D02*
Y706D01*
Y707D02*
Y708D01*
Y711D02*
Y713D01*
Y715D02*
Y715D01*
Y715D02*
Y716D01*
Y716D02*
Y741D01*
Y742D02*
Y743D01*
Y744D02*
Y765D01*
Y765D02*
Y766D01*
X325Y601D02*
Y601D01*
Y602D02*
Y704D01*
Y705D02*
Y707D01*
Y708D02*
Y709D01*
Y711D02*
Y712D01*
Y713D02*
Y714D01*
Y715D02*
Y715D01*
Y715D02*
Y741D01*
Y741D02*
Y741D01*
Y742D02*
Y743D01*
Y744D02*
Y764D01*
Y765D02*
Y765D01*
Y765D02*
Y766D01*
Y767D02*
Y767D01*
X326Y601D02*
Y601D01*
Y602D02*
Y603D01*
Y603D02*
Y706D01*
Y707D02*
Y707D01*
Y708D02*
Y709D01*
Y711D02*
Y712D01*
Y712D02*
Y713D01*
Y714D02*
Y741D01*
Y742D02*
Y743D01*
Y743D02*
Y744D01*
Y745D02*
Y763D01*
Y764D02*
Y765D01*
Y766D02*
Y767D01*
X326Y601D02*
Y601D01*
Y603D02*
Y603D01*
Y604D02*
Y708D01*
Y709D02*
Y709D01*
Y712D02*
Y740D01*
Y741D02*
Y741D01*
Y741D02*
Y742D01*
Y742D02*
Y743D01*
Y744D02*
Y746D01*
Y746D02*
Y762D01*
Y763D02*
Y764D01*
Y765D02*
Y766D01*
Y767D02*
Y767D01*
X326Y604D02*
Y740D01*
Y741D02*
Y741D01*
Y747D02*
Y761D01*
X326Y603D02*
Y604D01*
Y604D02*
Y741D01*
Y747D02*
Y748D01*
Y748D02*
Y761D01*
X326Y604D02*
Y604D01*
Y605D02*
Y631D01*
Y632D02*
Y740D01*
Y740D02*
Y741D01*
Y748D02*
Y759D01*
X327Y603D02*
Y603D01*
Y604D02*
Y605D01*
Y605D02*
Y631D01*
Y631D02*
Y632D01*
Y632D02*
Y740D01*
Y740D02*
Y741D01*
Y748D02*
Y748D01*
Y750D02*
Y758D01*
Y760D02*
Y761D01*
X327Y603D02*
Y604D01*
Y605D02*
Y605D01*
Y606D02*
Y630D01*
Y631D02*
Y631D01*
Y631D02*
Y632D01*
Y632D02*
Y739D01*
Y740D02*
Y740D01*
Y741D02*
Y741D01*
Y748D02*
Y750D01*
Y753D02*
Y755D01*
Y758D02*
Y760D01*
X327Y603D02*
Y603D01*
Y604D02*
Y604D01*
Y605D02*
Y606D01*
Y607D02*
Y629D01*
Y631D02*
Y631D01*
Y632D02*
Y632D01*
Y632D02*
Y739D01*
Y740D02*
Y740D01*
Y747D02*
Y747D01*
Y749D02*
Y749D01*
Y750D02*
Y753D01*
Y756D02*
Y758D01*
Y760D02*
Y761D01*
X327Y604D02*
Y605D01*
Y605D02*
Y607D01*
Y608D02*
Y629D01*
Y630D02*
Y631D01*
Y631D02*
Y631D01*
Y632D02*
Y632D01*
Y633D02*
Y739D01*
Y739D02*
Y740D01*
Y740D02*
Y740D01*
Y747D02*
Y748D01*
Y749D02*
Y750D01*
Y755D02*
Y756D01*
Y758D02*
Y759D01*
Y759D02*
Y760D01*
X328Y603D02*
Y604D01*
Y605D02*
Y605D01*
Y607D02*
Y608D01*
Y608D02*
Y628D01*
Y629D02*
Y629D01*
Y630D02*
Y631D01*
Y632D02*
Y633D01*
Y633D02*
Y739D01*
Y739D02*
Y740D01*
Y741D02*
Y741D01*
Y749D02*
Y749D01*
Y750D02*
Y752D01*
Y755D02*
Y757D01*
Y760D02*
Y761D01*
X328Y609D02*
Y627D01*
Y633D02*
Y739D01*
X328Y609D02*
Y609D01*
Y610D02*
Y626D01*
Y627D02*
Y627D01*
Y633D02*
Y633D01*
Y634D02*
Y738D01*
X329Y609D02*
Y609D01*
Y610D02*
Y626D01*
Y627D02*
Y627D01*
Y634D02*
Y738D01*
X329Y609D02*
Y610D01*
Y612D02*
Y624D01*
Y626D02*
Y627D01*
Y633D02*
Y634D01*
Y635D02*
Y738D01*
Y738D02*
Y739D01*
X329Y609D02*
Y609D01*
Y610D02*
Y612D01*
Y614D02*
Y622D01*
Y624D02*
Y626D01*
Y633D02*
Y633D01*
Y634D02*
Y738D01*
Y739D02*
Y739D01*
X329Y609D02*
Y609D01*
Y611D02*
Y611D01*
Y612D02*
Y613D01*
Y614D02*
Y615D01*
Y617D02*
Y619D01*
Y621D02*
Y624D01*
Y625D02*
Y626D01*
Y627D02*
Y627D01*
Y633D02*
Y633D01*
Y634D02*
Y634D01*
Y635D02*
Y738D01*
Y738D02*
Y738D01*
Y739D02*
Y739D01*
X329Y609D02*
Y610D01*
Y613D02*
Y614D01*
Y615D02*
Y616D01*
Y620D02*
Y621D01*
Y622D02*
Y623D01*
Y626D02*
Y627D01*
Y633D02*
Y634D01*
Y635D02*
Y635D01*
Y635D02*
Y738D01*
Y738D02*
Y738D01*
X330Y609D02*
Y609D01*
Y613D02*
Y615D01*
Y616D02*
Y620D01*
Y621D02*
Y622D01*
Y633D02*
Y633D01*
Y634D02*
Y635D01*
Y635D02*
Y635D01*
Y636D02*
Y737D01*
Y738D02*
Y738D01*
Y739D02*
Y739D01*
X330Y635D02*
Y636D01*
Y636D02*
Y737D01*
X330Y635D02*
Y636D01*
Y637D02*
Y737D01*
X331Y636D02*
Y636D01*
Y637D02*
Y689D01*
Y690D02*
Y736D01*
Y737D02*
Y737D01*
X331Y636D02*
Y637D01*
Y637D02*
Y688D01*
Y689D02*
Y689D01*
Y689D02*
Y690D01*
Y690D02*
Y736D01*
Y737D02*
Y737D01*
X331Y635D02*
Y635D01*
Y637D02*
Y637D01*
Y638D02*
Y688D01*
Y689D02*
Y690D01*
Y690D02*
Y736D01*
Y736D02*
Y737D01*
X331Y636D02*
Y637D01*
Y637D02*
Y638D01*
Y638D02*
Y688D01*
Y688D02*
Y689D01*
Y690D02*
Y690D01*
Y691D02*
Y736D01*
Y736D02*
Y737D01*
X331Y636D02*
Y637D01*
Y638D02*
Y687D01*
Y689D02*
Y689D01*
Y690D02*
Y690D01*
Y691D02*
Y735D01*
Y735D02*
Y736D01*
X332Y635D02*
Y636D01*
Y637D02*
Y637D01*
Y639D02*
Y687D01*
Y688D02*
Y688D01*
Y689D02*
Y689D01*
Y690D02*
Y691D01*
Y691D02*
Y735D01*
Y736D02*
Y737D01*
X332Y640D02*
Y687D01*
Y691D02*
Y734D01*
X332Y639D02*
Y640D01*
Y640D02*
Y686D01*
Y691D02*
Y691D01*
Y692D02*
Y734D01*
Y735D02*
Y735D01*
X333Y639D02*
Y640D01*
Y641D02*
Y685D01*
Y692D02*
Y734D01*
Y734D02*
Y735D01*
X333Y640D02*
Y640D01*
Y641D02*
Y685D01*
Y686D02*
Y687D01*
Y691D02*
Y692D01*
Y692D02*
Y734D01*
Y734D02*
Y734D01*
X333Y639D02*
Y639D01*
Y640D02*
Y641D01*
Y642D02*
Y684D01*
Y685D02*
Y685D01*
Y691D02*
Y691D01*
Y692D02*
Y733D01*
Y734D02*
Y734D01*
Y735D02*
Y735D01*
X333Y640D02*
Y640D01*
Y641D02*
Y641D01*
Y641D02*
Y642D01*
Y642D02*
Y684D01*
Y684D02*
Y685D01*
Y685D02*
Y685D01*
Y691D02*
Y691D01*
Y692D02*
Y692D01*
Y693D02*
Y733D01*
Y733D02*
Y734D01*
Y734D02*
Y735D01*
X333Y640D02*
Y640D01*
Y641D02*
Y642D01*
Y643D02*
Y683D01*
Y684D02*
Y685D01*
Y685D02*
Y686D01*
Y686D02*
Y687D01*
Y692D02*
Y692D01*
Y693D02*
Y693D01*
Y693D02*
Y733D01*
Y733D02*
Y734D01*
Y734D02*
Y735D01*
X334Y639D02*
Y639D01*
Y640D02*
Y641D01*
Y642D02*
Y642D01*
Y643D02*
Y683D01*
Y683D02*
Y684D01*
Y685D02*
Y687D01*
Y691D02*
Y692D01*
Y692D02*
Y693D01*
Y693D02*
Y693D01*
Y693D02*
Y732D01*
Y733D02*
Y733D01*
Y734D02*
Y734D01*
Y735D02*
Y735D01*
X334Y644D02*
Y682D01*
Y682D02*
Y683D01*
Y693D02*
Y693D01*
Y694D02*
Y732D01*
Y732D02*
Y733D01*
X334Y643D02*
Y644D01*
Y645D02*
Y682D01*
Y682D02*
Y683D01*
Y693D02*
Y693D01*
Y694D02*
Y732D01*
X335Y643D02*
Y644D01*
Y645D02*
Y680D01*
Y682D02*
Y683D01*
Y693D02*
Y694D01*
Y695D02*
Y731D01*
Y732D02*
Y733D01*
X335Y643D02*
Y645D01*
Y646D02*
Y680D01*
Y680D02*
Y681D01*
Y681D02*
Y682D01*
Y693D02*
Y694D01*
Y695D02*
Y731D01*
Y732D02*
Y733D01*
X335Y645D02*
Y645D01*
Y645D02*
Y646D01*
Y647D02*
Y679D01*
Y681D02*
Y682D01*
Y683D02*
Y683D01*
Y693D02*
Y695D01*
Y696D02*
Y730D01*
Y731D02*
Y731D01*
Y731D02*
Y732D01*
X335Y645D02*
Y646D01*
Y647D02*
Y678D01*
Y679D02*
Y679D01*
Y679D02*
Y680D01*
Y683D02*
Y683D01*
Y693D02*
Y693D01*
Y694D02*
Y695D01*
Y696D02*
Y730D01*
Y730D02*
Y732D01*
Y733D02*
Y733D01*
X336Y644D02*
Y645D01*
Y646D02*
Y647D01*
Y648D02*
Y677D01*
Y678D02*
Y678D01*
Y679D02*
Y679D01*
Y680D02*
Y681D01*
Y683D02*
Y683D01*
Y693D02*
Y693D01*
Y694D02*
Y695D01*
Y695D02*
Y696D01*
Y697D02*
Y729D01*
Y730D02*
Y730D01*
Y731D02*
Y732D01*
Y732D02*
Y733D01*
X336Y643D02*
Y643D01*
Y645D02*
Y645D01*
Y646D02*
Y646D01*
Y647D02*
Y649D01*
Y650D02*
Y676D01*
Y677D02*
Y677D01*
Y678D02*
Y679D01*
Y681D02*
Y682D01*
Y682D02*
Y683D01*
Y694D02*
Y695D01*
Y695D02*
Y695D01*
Y696D02*
Y697D01*
Y697D02*
Y729D01*
Y729D02*
Y731D01*
X336Y649D02*
Y650D01*
Y650D02*
Y675D01*
Y697D02*
Y729D01*
X336Y649D02*
Y650D01*
Y650D02*
Y651D01*
Y651D02*
Y675D01*
Y697D02*
Y697D01*
Y698D02*
Y728D01*
X336Y649D02*
Y649D01*
Y651D02*
Y651D01*
Y652D02*
Y674D01*
Y697D02*
Y697D01*
Y698D02*
Y728D01*
X337Y653D02*
Y653D01*
Y654D02*
Y672D01*
Y674D02*
Y675D01*
Y697D02*
Y698D01*
Y699D02*
Y727D01*
Y728D02*
Y729D01*
X337Y650D02*
Y650D01*
Y652D02*
Y654D01*
Y656D02*
Y670D01*
Y672D02*
Y674D01*
Y698D02*
Y699D01*
Y700D02*
Y726D01*
Y727D02*
Y728D01*
X337Y650D02*
Y652D01*
Y654D02*
Y655D01*
Y656D02*
Y657D01*
Y658D02*
Y668D01*
Y670D02*
Y672D01*
Y673D02*
Y674D01*
Y674D02*
Y675D01*
Y698D02*
Y699D01*
Y699D02*
Y700D01*
Y700D02*
Y726D01*
Y727D02*
Y728D01*
Y729D02*
Y729D01*
X338Y650D02*
Y651D01*
Y652D02*
Y654D01*
Y655D02*
Y656D01*
Y657D02*
Y659D01*
Y660D02*
Y661D01*
Y665D02*
Y665D01*
Y668D02*
Y669D01*
Y673D02*
Y673D01*
Y674D02*
Y675D01*
Y697D02*
Y698D01*
Y700D02*
Y701D01*
Y701D02*
Y725D01*
Y726D02*
Y727D01*
Y728D02*
Y728D01*
X338Y649D02*
Y649D01*
Y651D02*
Y652D01*
Y654D02*
Y655D01*
Y655D02*
Y657D01*
Y659D02*
Y660D01*
Y661D02*
Y665D01*
Y666D02*
Y668D01*
Y669D02*
Y670D01*
Y671D02*
Y674D01*
Y698D02*
Y700D01*
Y701D02*
Y701D01*
Y701D02*
Y725D01*
Y725D02*
Y725D01*
Y727D02*
Y728D01*
Y729D02*
Y729D01*
X338Y702D02*
Y724D01*
Y724D02*
Y725D01*
X338Y701D02*
Y702D01*
Y702D02*
Y703D01*
Y703D02*
Y723D01*
Y723D02*
Y724D01*
Y724D02*
Y725D01*
X338Y701D02*
Y702D01*
Y703D02*
Y703D01*
Y704D02*
Y722D01*
Y724D02*
Y725D01*
X339Y701D02*
Y703D01*
Y705D02*
Y721D01*
Y723D02*
Y723D01*
Y724D02*
Y725D01*
X339Y703D02*
Y704D01*
Y706D02*
Y720D01*
Y722D02*
Y723D01*
Y723D02*
Y725D01*
X339Y701D02*
Y701D01*
Y703D02*
Y703D01*
Y705D02*
Y705D01*
Y706D02*
Y719D01*
Y720D02*
Y721D01*
Y723D02*
Y723D01*
Y725D02*
Y725D01*
X340Y702D02*
Y703D01*
Y703D02*
Y704D01*
Y705D02*
Y706D01*
Y709D02*
Y718D01*
Y720D02*
Y720D01*
Y725D02*
Y725D01*
M02*
