%FSLAX23Y23*%
%MOIN*%
G70*
G01*
G75*
G04 Layer_Physical_Order=2*
G04 Layer_Color=16711680*
%ADD10R,0.118X0.039*%
%ADD11R,0.118X0.059*%
%ADD12R,0.035X0.031*%
%ADD13C,0.010*%
%ADD14C,0.020*%
%ADD15C,0.039*%
%ADD16C,0.236*%
G36*
X1565Y15D02*
X15D01*
Y790D01*
X1565D01*
Y15D01*
D02*
G37*
%LPC*%
G36*
X419Y630D02*
X361D01*
X361Y627D01*
X364Y620D01*
X369Y614D01*
X375Y609D01*
Y255D01*
X376Y249D01*
X376Y248D01*
X376Y248D01*
X376Y245D01*
X434D01*
X434Y248D01*
X431Y255D01*
X426Y261D01*
X420Y266D01*
X413Y269D01*
X405Y270D01*
Y609D01*
X411Y614D01*
X416Y620D01*
X419Y627D01*
X419Y630D01*
D02*
G37*
G36*
X434Y235D02*
X410D01*
Y211D01*
X413Y211D01*
X420Y214D01*
X426Y219D01*
X431Y225D01*
X434Y232D01*
X434Y235D01*
D02*
G37*
G36*
X400D02*
X376D01*
X376Y232D01*
X379Y225D01*
X384Y219D01*
X390Y214D01*
X397Y211D01*
X400Y211D01*
Y235D01*
D02*
G37*
G36*
X1185Y590D02*
X1177Y589D01*
X1171Y584D01*
X1166Y578D01*
X1165Y570D01*
X1166Y562D01*
X1171Y556D01*
X1177Y551D01*
X1180Y551D01*
X1285Y402D01*
X1285Y400D01*
X1285Y399D01*
X1180Y254D01*
X1177Y254D01*
X1177Y253D01*
X1024Y299D01*
X1024Y304D01*
X1129Y380D01*
X1130Y380D01*
X1138Y381D01*
X1144Y386D01*
X1149Y392D01*
X1150Y400D01*
X1149Y408D01*
X1144Y414D01*
X1138Y419D01*
X1130Y420D01*
X1122Y419D01*
X1116Y414D01*
X1111Y408D01*
X1111Y405D01*
X1005Y328D01*
X1000Y330D01*
Y492D01*
X1004Y497D01*
X1005Y505D01*
X1004Y513D01*
X999Y519D01*
X993Y524D01*
X985Y525D01*
X977Y524D01*
X971Y519D01*
X966Y513D01*
X965Y505D01*
X966Y497D01*
X970Y492D01*
Y344D01*
X965Y342D01*
X915Y400D01*
X915Y400D01*
X914Y408D01*
X909Y414D01*
X903Y419D01*
X895Y420D01*
X887Y419D01*
X882Y415D01*
X715D01*
X709Y414D01*
X704Y411D01*
X574Y280D01*
X523D01*
X518Y284D01*
X510Y285D01*
X502Y284D01*
X496Y279D01*
X491Y273D01*
X490Y265D01*
X491Y257D01*
X496Y251D01*
X502Y246D01*
X510Y245D01*
X518Y246D01*
X523Y250D01*
X571D01*
X574Y245D01*
X561Y231D01*
X550Y213D01*
X543Y195D01*
X538Y175D01*
X536Y155D01*
X538Y135D01*
X543Y115D01*
X550Y97D01*
X561Y79D01*
X574Y64D01*
X589Y51D01*
X607Y41D01*
X625Y33D01*
X645Y28D01*
X665Y26D01*
X685Y28D01*
X705Y33D01*
X723Y41D01*
X741Y51D01*
X756Y64D01*
X769Y79D01*
X780Y97D01*
X787Y115D01*
X792Y135D01*
X794Y155D01*
X792Y175D01*
X787Y195D01*
X780Y213D01*
X769Y231D01*
X756Y246D01*
X741Y259D01*
X723Y269D01*
X705Y277D01*
X685Y282D01*
X665Y284D01*
X645Y282D01*
X625Y277D01*
X618Y274D01*
X615Y278D01*
X721Y385D01*
X882D01*
X887Y381D01*
X892Y380D01*
X965Y295D01*
X965Y295D01*
X966Y287D01*
X971Y281D01*
X977Y276D01*
X985Y275D01*
X993Y276D01*
X993Y277D01*
X1168Y224D01*
X1171Y221D01*
X1177Y216D01*
X1185Y215D01*
X1193Y216D01*
X1199Y221D01*
X1204Y227D01*
X1205Y235D01*
X1205Y236D01*
X1310Y381D01*
X1313Y381D01*
X1319Y386D01*
X1324Y392D01*
X1325Y400D01*
X1324Y408D01*
X1319Y414D01*
X1313Y419D01*
X1310Y419D01*
X1205Y568D01*
X1205Y570D01*
X1204Y578D01*
X1199Y584D01*
X1193Y589D01*
X1185Y590D01*
D02*
G37*
G36*
X385Y664D02*
X382Y664D01*
X375Y661D01*
X369Y656D01*
X364Y650D01*
X361Y643D01*
X361Y640D01*
X385D01*
Y664D01*
D02*
G37*
G36*
X395D02*
Y640D01*
X419D01*
X419Y643D01*
X416Y650D01*
X411Y656D01*
X405Y661D01*
X398Y664D01*
X395Y664D01*
D02*
G37*
G36*
X665Y779D02*
X645Y777D01*
X625Y772D01*
X607Y765D01*
X589Y754D01*
X574Y741D01*
X561Y726D01*
X550Y708D01*
X543Y690D01*
X538Y670D01*
X536Y650D01*
X538Y630D01*
X543Y610D01*
X550Y592D01*
X561Y574D01*
X574Y559D01*
X589Y546D01*
X607Y535D01*
X625Y528D01*
X645Y523D01*
X665Y521D01*
X685Y523D01*
X705Y528D01*
X723Y535D01*
X741Y546D01*
X756Y559D01*
X769Y574D01*
X780Y592D01*
X787Y610D01*
X792Y630D01*
X794Y650D01*
X792Y670D01*
X787Y690D01*
X780Y708D01*
X769Y726D01*
X756Y741D01*
X741Y754D01*
X723Y765D01*
X705Y772D01*
X685Y777D01*
X665Y779D01*
D02*
G37*
G36*
X1045Y695D02*
X1037Y694D01*
X1031Y689D01*
X1026Y683D01*
X1025Y675D01*
X1026Y667D01*
X1031Y661D01*
X1034Y659D01*
X1057Y578D01*
X1056Y578D01*
X1055Y570D01*
X1056Y562D01*
X1061Y556D01*
X1067Y551D01*
X1075Y550D01*
X1083Y551D01*
X1089Y556D01*
X1094Y562D01*
X1095Y570D01*
X1094Y578D01*
X1089Y584D01*
X1086Y586D01*
X1063Y667D01*
X1064Y667D01*
X1065Y675D01*
X1064Y683D01*
X1059Y689D01*
X1053Y694D01*
X1045Y695D01*
D02*
G37*
%LPD*%
D13*
X390Y255D02*
Y635D01*
Y255D02*
X405Y240D01*
X510Y265D02*
X580D01*
X715Y400D01*
X895D01*
X985Y295D01*
X1185Y235D01*
X1305Y400D01*
X1185Y570D02*
X1305Y400D01*
X985Y295D02*
X1130Y400D01*
X985Y295D02*
Y505D01*
X1045Y675D02*
X1075Y570D01*
D14*
D03*
X895Y400D02*
D03*
X985Y505D02*
D03*
Y295D02*
D03*
X1185Y235D02*
D03*
X1130Y400D02*
D03*
X1305D02*
D03*
X1185Y570D02*
D03*
X1045Y675D02*
D03*
X510Y265D02*
D03*
D15*
X405Y240D02*
D03*
X390Y635D02*
D03*
X754Y650D02*
D03*
X728Y587D02*
D03*
X665Y561D02*
D03*
X602Y587D02*
D03*
X576Y650D02*
D03*
X665Y739D02*
D03*
X728Y713D02*
D03*
X602D02*
D03*
Y218D02*
D03*
X728D02*
D03*
X665Y244D02*
D03*
X576Y155D02*
D03*
X602Y92D02*
D03*
X665Y66D02*
D03*
X728Y92D02*
D03*
X754Y155D02*
D03*
D16*
X665Y650D02*
D03*
Y155D02*
D03*
M02*
