%FSLAX23Y23*%
%MOIN*%
G70*
G01*
G75*
G04 Layer_Physical_Order=1*
G04 Layer_Color=255*
%ADD10R,0.118X0.039*%
%ADD11R,0.118X0.059*%
%ADD12R,0.035X0.031*%
%ADD13C,0.010*%
%ADD14C,0.020*%
%ADD15C,0.039*%
%ADD16C,0.236*%
G36*
X1565Y15D02*
X15D01*
Y200D01*
X142D01*
Y279D01*
X15D01*
Y531D01*
X142D01*
Y610D01*
X15D01*
Y790D01*
X1565D01*
Y15D01*
D02*
G37*
%LPC*%
G36*
X895Y420D02*
X887Y419D01*
X881Y414D01*
X876Y408D01*
X875Y400D01*
X876Y392D01*
X881Y386D01*
X887Y381D01*
X895Y380D01*
X903Y381D01*
X909Y386D01*
X914Y392D01*
X915Y400D01*
X914Y408D01*
X909Y414D01*
X903Y419D01*
X895Y420D01*
D02*
G37*
G36*
X339Y435D02*
X201D01*
Y420D01*
X155D01*
X149Y419D01*
X144Y416D01*
X141Y411D01*
X140Y405D01*
Y305D01*
X140Y305D01*
X140D01*
X141Y299D01*
X144Y294D01*
X189Y249D01*
X194Y246D01*
X200Y245D01*
X372D01*
X375Y241D01*
X375Y240D01*
X376Y232D01*
X379Y225D01*
X384Y219D01*
X390Y214D01*
X397Y211D01*
X400Y211D01*
Y240D01*
X410D01*
Y211D01*
X413Y211D01*
X420Y214D01*
X426Y219D01*
X428Y221D01*
X432Y219D01*
Y207D01*
X455D01*
Y232D01*
X460D01*
Y237D01*
X488D01*
Y253D01*
X489Y254D01*
X494Y253D01*
X496Y251D01*
X502Y246D01*
X510Y245D01*
X518Y246D01*
X524Y251D01*
X529Y257D01*
X530Y265D01*
X529Y273D01*
X524Y279D01*
X518Y284D01*
X510Y285D01*
X507Y285D01*
X493Y298D01*
X488Y302D01*
X488Y302D01*
Y313D01*
X432D01*
Y290D01*
X391D01*
X385Y289D01*
X380Y285D01*
X370Y275D01*
X206D01*
X170Y311D01*
Y390D01*
X201D01*
Y375D01*
X339D01*
Y435D01*
D02*
G37*
G36*
X1305Y420D02*
X1297Y419D01*
X1291Y414D01*
X1286Y408D01*
X1285Y400D01*
X1286Y392D01*
X1291Y386D01*
X1297Y381D01*
X1305Y380D01*
X1313Y381D01*
X1319Y386D01*
X1324Y392D01*
X1325Y400D01*
X1324Y408D01*
X1319Y414D01*
X1313Y419D01*
X1305Y420D01*
D02*
G37*
G36*
X1130D02*
X1122Y419D01*
X1116Y414D01*
X1111Y408D01*
X1110Y400D01*
X1111Y392D01*
X1116Y386D01*
X1122Y381D01*
X1130Y380D01*
X1138Y381D01*
X1144Y386D01*
X1149Y392D01*
X1150Y400D01*
X1149Y408D01*
X1144Y414D01*
X1138Y419D01*
X1130Y420D01*
D02*
G37*
G36*
X488Y227D02*
X465D01*
Y207D01*
X488D01*
Y227D01*
D02*
G37*
G36*
X665Y284D02*
X645Y282D01*
X625Y277D01*
X607Y269D01*
X589Y259D01*
X574Y246D01*
X561Y231D01*
X550Y213D01*
X543Y195D01*
X538Y175D01*
X536Y155D01*
X538Y135D01*
X543Y115D01*
X550Y97D01*
X561Y79D01*
X574Y64D01*
X589Y51D01*
X607Y41D01*
X625Y33D01*
X645Y28D01*
X665Y26D01*
X685Y28D01*
X705Y33D01*
X723Y41D01*
X741Y51D01*
X756Y64D01*
X769Y79D01*
X780Y97D01*
X787Y115D01*
X792Y135D01*
X794Y155D01*
X792Y175D01*
X787Y195D01*
X780Y213D01*
X769Y231D01*
X756Y246D01*
X741Y259D01*
X723Y269D01*
X705Y277D01*
X685Y282D01*
X665Y284D01*
D02*
G37*
G36*
X985Y315D02*
X977Y314D01*
X971Y309D01*
X966Y303D01*
X965Y295D01*
X966Y287D01*
X971Y281D01*
X977Y276D01*
X985Y275D01*
X993Y276D01*
X999Y281D01*
X1004Y287D01*
X1005Y295D01*
X1004Y303D01*
X999Y309D01*
X993Y314D01*
X985Y315D01*
D02*
G37*
G36*
X1185Y255D02*
X1177Y254D01*
X1171Y249D01*
X1166Y243D01*
X1165Y235D01*
X1166Y227D01*
X1171Y221D01*
X1177Y216D01*
X1185Y215D01*
X1193Y216D01*
X1199Y221D01*
X1204Y227D01*
X1205Y235D01*
X1204Y243D01*
X1199Y249D01*
X1193Y254D01*
X1185Y255D01*
D02*
G37*
G36*
X385Y664D02*
X382Y664D01*
X375Y661D01*
X369Y656D01*
X364Y650D01*
X361Y643D01*
X361Y640D01*
X385D01*
Y664D01*
D02*
G37*
G36*
X1185Y590D02*
X1177Y589D01*
X1171Y584D01*
X1166Y578D01*
X1165Y570D01*
X1166Y562D01*
X1171Y556D01*
X1177Y551D01*
X1185Y550D01*
X1193Y551D01*
X1199Y556D01*
X1204Y562D01*
X1205Y570D01*
X1204Y578D01*
X1199Y584D01*
X1193Y589D01*
X1185Y590D01*
D02*
G37*
G36*
X488Y678D02*
X465D01*
Y658D01*
X488D01*
Y678D01*
D02*
G37*
G36*
X665Y779D02*
X645Y777D01*
X625Y772D01*
X607Y765D01*
X589Y754D01*
X574Y741D01*
X561Y726D01*
X550Y708D01*
X543Y690D01*
X538Y670D01*
X536Y650D01*
X538Y630D01*
X543Y610D01*
X550Y592D01*
X561Y574D01*
X574Y559D01*
X589Y546D01*
X607Y535D01*
X625Y528D01*
X645Y523D01*
X665Y521D01*
X685Y523D01*
X705Y528D01*
X723Y535D01*
X741Y546D01*
X755Y558D01*
X759Y555D01*
X714Y473D01*
X488D01*
Y483D01*
X475D01*
Y572D01*
X488D01*
Y623D01*
D01*
Y623D01*
X488Y623D01*
Y627D01*
X488D01*
Y648D01*
X460D01*
Y653D01*
X455D01*
Y678D01*
X432D01*
Y668D01*
X408D01*
X402Y667D01*
X398Y664D01*
X395Y664D01*
Y635D01*
X390D01*
Y630D01*
X361D01*
X361Y627D01*
X364Y620D01*
X369Y614D01*
X371Y612D01*
X372Y607D01*
X278Y513D01*
X275D01*
Y489D01*
X339D01*
Y513D01*
X328D01*
X326Y518D01*
X401Y593D01*
X404Y598D01*
X405Y604D01*
X405Y604D01*
X405Y604D01*
Y604D01*
Y609D01*
X411Y614D01*
X416Y620D01*
X419Y627D01*
X420Y635D01*
X422Y637D01*
X432D01*
Y627D01*
X432Y627D01*
X432Y623D01*
X432D01*
Y572D01*
X445D01*
Y483D01*
X432D01*
Y432D01*
X432Y432D01*
X432Y428D01*
X432D01*
Y396D01*
X377Y342D01*
X339D01*
Y356D01*
X201D01*
Y297D01*
X339D01*
Y311D01*
X384D01*
X390Y312D01*
X395Y315D01*
X456Y377D01*
X488D01*
Y428D01*
D01*
Y428D01*
X488Y428D01*
Y432D01*
X488D01*
Y442D01*
X723D01*
X725Y443D01*
X727Y443D01*
X728Y443D01*
X728Y443D01*
X730Y445D01*
X732Y446D01*
X733Y446D01*
X733Y447D01*
X735Y449D01*
X736Y450D01*
X880Y711D01*
X1010Y733D01*
X1026Y683D01*
X1025Y675D01*
X1026Y667D01*
X1031Y661D01*
X1037Y656D01*
X1045Y655D01*
X1053Y656D01*
X1059Y661D01*
X1064Y667D01*
X1065Y675D01*
X1064Y683D01*
X1059Y689D01*
X1056Y692D01*
X1035Y755D01*
X1034Y756D01*
X1033Y758D01*
X1032Y759D01*
X1032Y760D01*
X1030Y761D01*
X1029Y762D01*
X1028Y763D01*
X1027Y764D01*
X1025Y764D01*
X1023Y765D01*
X1022Y765D01*
X1021Y765D01*
X1019Y765D01*
X1017Y765D01*
X867Y740D01*
X867Y740D01*
X866Y740D01*
X864Y739D01*
X862Y738D01*
X861Y737D01*
X860Y737D01*
X859Y735D01*
X858Y734D01*
X857Y733D01*
X857Y732D01*
X795Y620D01*
X790Y622D01*
X792Y630D01*
X794Y650D01*
X792Y670D01*
X787Y690D01*
X780Y708D01*
X769Y726D01*
X756Y741D01*
X741Y754D01*
X723Y765D01*
X705Y772D01*
X685Y777D01*
X665Y779D01*
D02*
G37*
G36*
X1075Y590D02*
X1067Y589D01*
X1061Y584D01*
X1056Y578D01*
X1055Y570D01*
X1056Y562D01*
X1061Y556D01*
X1067Y551D01*
X1075Y550D01*
X1083Y551D01*
X1089Y556D01*
X1094Y562D01*
X1095Y570D01*
X1094Y578D01*
X1089Y584D01*
X1083Y589D01*
X1075Y590D01*
D02*
G37*
G36*
X339Y479D02*
X275D01*
Y454D01*
X339D01*
Y479D01*
D02*
G37*
G36*
X265D02*
X201D01*
Y454D01*
X265D01*
Y479D01*
D02*
G37*
G36*
Y513D02*
X201D01*
Y489D01*
X265D01*
Y513D01*
D02*
G37*
G36*
X985Y525D02*
X977Y524D01*
X971Y519D01*
X966Y513D01*
X965Y505D01*
X966Y497D01*
X971Y491D01*
X977Y486D01*
X985Y485D01*
X993Y486D01*
X999Y491D01*
X1004Y497D01*
X1005Y505D01*
X1004Y513D01*
X999Y519D01*
X993Y524D01*
X985Y525D01*
D02*
G37*
%LPD*%
D10*
X270Y326D02*
D03*
Y405D02*
D03*
Y484D02*
D03*
Y326D02*
D03*
D11*
X73Y240D02*
D03*
Y570D02*
D03*
D12*
X460Y288D02*
D03*
Y232D02*
D03*
X460Y597D02*
D03*
Y653D02*
D03*
Y402D02*
D03*
Y458D02*
D03*
D13*
X270Y484D02*
X319D01*
X200Y260D02*
X376D01*
X155Y305D02*
X200Y260D01*
X155Y305D02*
Y405D01*
X270D01*
X505Y265D02*
X510D01*
X408Y653D02*
X460D01*
X390Y635D02*
X408Y653D01*
X390Y604D02*
Y635D01*
X270Y484D02*
X390Y604D01*
X460Y465D02*
Y597D01*
X405Y240D02*
X452D01*
X376Y260D02*
X391Y275D01*
X447D01*
X460Y288D01*
X482D01*
X505Y265D01*
X270Y326D02*
X384D01*
X460Y402D01*
Y458D02*
X723D01*
X870Y725D01*
X1020Y750D01*
X1045Y675D01*
D14*
X1075Y570D02*
D03*
X895Y400D02*
D03*
X985Y505D02*
D03*
Y295D02*
D03*
X1185Y235D02*
D03*
X1130Y400D02*
D03*
X1305D02*
D03*
X1185Y570D02*
D03*
X1045Y675D02*
D03*
X510Y265D02*
D03*
D15*
X405Y240D02*
D03*
X390Y635D02*
D03*
X754Y650D02*
D03*
X728Y587D02*
D03*
X665Y561D02*
D03*
X602Y587D02*
D03*
X576Y650D02*
D03*
X665Y739D02*
D03*
X728Y713D02*
D03*
X602D02*
D03*
Y218D02*
D03*
X728D02*
D03*
X665Y244D02*
D03*
X576Y155D02*
D03*
X602Y92D02*
D03*
X665Y66D02*
D03*
X728Y92D02*
D03*
X754Y155D02*
D03*
D16*
X665Y650D02*
D03*
Y155D02*
D03*
M02*
