%FSLAX23Y23*%
%MOIN*%
G70*
G01*
G75*
G04 Layer_Color=2752767*
%ADD10C,0.004*%
%ADD11C,0.005*%
%ADD12C,0.007*%
D10*
X479Y226D02*
Y294D01*
X441Y226D02*
Y294D01*
X479D01*
X441Y226D02*
X479D01*
X441Y591D02*
Y659D01*
X479Y591D02*
Y659D01*
X441Y591D02*
X479D01*
X441Y659D02*
X479D01*
X441Y396D02*
Y464D01*
X479Y396D02*
Y464D01*
X441Y396D02*
X479D01*
X441Y464D02*
X479D01*
X441Y260D02*
X479D01*
X460Y241D02*
Y279D01*
X482Y213D02*
Y307D01*
X438Y213D02*
Y307D01*
X482D01*
X438Y213D02*
X482D01*
X441Y625D02*
X479D01*
X460Y606D02*
Y644D01*
X438Y578D02*
Y672D01*
X482Y578D02*
Y672D01*
X438Y578D02*
X482D01*
X438Y672D02*
X482D01*
X441Y430D02*
X479D01*
X460Y411D02*
Y449D01*
X438Y383D02*
Y477D01*
X482Y383D02*
Y477D01*
X438Y383D02*
X482D01*
X438Y477D02*
X482D01*
D11*
X1055Y550D02*
Y590D01*
X1095D01*
Y550D01*
X1055D01*
X875Y380D02*
Y420D01*
X915D01*
Y380D01*
X875D01*
X965Y485D02*
Y525D01*
X1005D01*
Y485D01*
X965D01*
Y275D02*
Y315D01*
X1005D01*
Y275D01*
X965D01*
X1165Y215D02*
Y255D01*
X1205D01*
Y215D01*
X1165D01*
X1110Y380D02*
Y420D01*
X1150D01*
Y380D01*
X1110D01*
X1285D02*
Y420D01*
X1325D01*
Y380D01*
X1285D01*
X1165Y550D02*
Y590D01*
X1205D01*
Y550D01*
X1165D01*
X1025Y655D02*
Y695D01*
X1065D01*
Y655D01*
X1025D01*
X490Y245D02*
Y285D01*
X530D01*
Y245D01*
X490D01*
X665Y630D02*
X645Y670D01*
X685D01*
X665Y630D01*
Y135D02*
X645Y175D01*
X685D01*
X665Y135D01*
D12*
X425Y240D02*
G03*
X425Y240I-20J0D01*
G01*
X410Y635D02*
G03*
X410Y635I-20J0D01*
G01*
X774Y650D02*
G03*
X774Y650I-20J0D01*
G01*
X748Y587D02*
G03*
X748Y587I-20J0D01*
G01*
X685Y561D02*
G03*
X685Y561I-20J0D01*
G01*
X622Y587D02*
G03*
X622Y587I-20J0D01*
G01*
X596Y650D02*
G03*
X596Y650I-20J0D01*
G01*
X685Y739D02*
G03*
X685Y739I-20J0D01*
G01*
X748Y713D02*
G03*
X748Y713I-20J0D01*
G01*
X622D02*
G03*
X622Y713I-20J0D01*
G01*
Y218D02*
G03*
X622Y218I-20J0D01*
G01*
X748D02*
G03*
X748Y218I-20J0D01*
G01*
X685Y244D02*
G03*
X685Y244I-20J0D01*
G01*
X596Y155D02*
G03*
X596Y155I-20J0D01*
G01*
X622Y92D02*
G03*
X622Y92I-20J0D01*
G01*
X685Y66D02*
G03*
X685Y66I-20J0D01*
G01*
X748Y92D02*
G03*
X748Y92I-20J0D01*
G01*
X774Y155D02*
G03*
X774Y155I-20J0D01*
G01*
M02*
