%FSLAX23Y23*%
%MOIN*%
G70*
G01*
G75*
G04 Layer_Color=32896*
%ADD10R,0.035X0.031*%
%ADD11R,0.118X0.059*%
%ADD12R,0.118X0.039*%
%ADD13C,0.010*%
%ADD14C,0.236*%
%ADD15C,0.039*%
%ADD16C,0.020*%
%ADD17C,0.000*%
%ADD18C,0.000*%
%ADD19C,0.059*%
%ADD20C,0.020*%
%ADD21C,0.004*%
%ADD22R,0.043X0.039*%
%ADD23R,0.126X0.067*%
%ADD24R,0.126X0.047*%
%ADD25C,0.028*%
%ADD26C,0.047*%
D18*
X1207Y390D02*
Y393D01*
Y395D02*
Y395D01*
Y396D02*
Y396D01*
Y396D02*
Y404D01*
Y404D02*
Y406D01*
Y407D02*
Y413D01*
Y414D02*
Y414D01*
Y416D02*
Y419D01*
Y421D02*
Y422D01*
Y422D02*
Y422D01*
Y424D02*
Y427D01*
X1207Y385D02*
Y406D01*
Y407D02*
Y419D01*
Y420D02*
Y430D01*
X1207Y389D02*
Y393D01*
Y394D02*
Y427D01*
X1208Y387D02*
Y433D01*
X1208Y385D02*
Y390D01*
Y391D02*
Y433D01*
X1208Y385D02*
Y391D01*
Y391D02*
Y433D01*
X1209Y385D02*
Y433D01*
X1209Y385D02*
Y433D01*
X1209Y386D02*
Y433D01*
X1210Y385D02*
Y432D01*
X1210Y385D02*
Y433D01*
X1210Y385D02*
Y433D01*
X1211Y385D02*
Y387D01*
Y388D02*
Y431D01*
X1211Y385D02*
Y433D01*
X1211Y385D02*
Y433D01*
X1211Y385D02*
Y433D01*
X1212Y380D02*
Y381D01*
Y383D02*
Y385D01*
Y385D02*
Y440D01*
X1212Y377D02*
Y382D01*
Y382D02*
Y385D01*
Y385D02*
Y442D01*
X1212Y375D02*
Y383D01*
Y383D02*
Y442D01*
X1213Y377D02*
Y442D01*
X1213Y375D02*
Y442D01*
X1213Y380D02*
Y441D01*
X1214Y375D02*
Y438D01*
X1214Y375D02*
Y442D01*
X1214Y379D02*
Y443D01*
X1214Y378D02*
Y443D01*
X1215Y378D02*
Y443D01*
X1215Y375D02*
Y443D01*
X1215Y375D02*
Y443D01*
X1216Y375D02*
Y443D01*
X1216Y375D02*
Y443D01*
X1216Y375D02*
Y443D01*
X1217Y375D02*
Y445D01*
X1217Y370D02*
Y446D01*
X1217Y370D02*
Y446D01*
X1217Y370D02*
Y452D01*
X1218Y369D02*
Y452D01*
X1218Y369D02*
Y452D01*
X1218Y369D02*
Y452D01*
X1219Y373D02*
Y451D01*
X1219Y372D02*
Y452D01*
X1219Y370D02*
Y451D01*
X1219Y366D02*
Y452D01*
X1220Y368D02*
Y450D01*
X1220Y366D02*
Y367D01*
Y368D02*
Y451D01*
X1220Y367D02*
Y368D01*
Y368D02*
Y452D01*
X1221Y366D02*
Y452D01*
X1221Y366D02*
Y452D01*
X1221Y365D02*
Y366D01*
Y367D02*
Y452D01*
X1222Y364D02*
Y453D01*
X1222Y365D02*
Y366D01*
Y366D02*
Y454D01*
X1222Y363D02*
Y457D01*
X1222Y363D02*
Y454D01*
X1223Y362D02*
Y457D01*
X1223Y362D02*
Y457D01*
X1223Y362D02*
Y457D01*
X1224Y361D02*
Y456D01*
X1224Y361D02*
Y457D01*
X1224Y361D02*
Y457D01*
X1225Y361D02*
Y456D01*
X1225Y361D02*
Y457D01*
X1225Y361D02*
Y457D01*
X1225Y361D02*
Y457D01*
X1226Y361D02*
Y457D01*
X1226Y358D02*
Y456D01*
X1226Y356D02*
Y456D01*
X1227Y357D02*
Y462D01*
X1227Y360D02*
Y458D01*
X1227Y358D02*
Y458D01*
X1228Y357D02*
Y461D01*
X1228Y357D02*
Y461D01*
X1228Y356D02*
Y462D01*
X1229Y357D02*
Y462D01*
X1229Y356D02*
Y462D01*
X1229Y356D02*
Y458D01*
X1229Y356D02*
Y462D01*
X1230Y356D02*
Y462D01*
X1230Y356D02*
Y461D01*
X1230Y356D02*
Y357D01*
Y357D02*
Y462D01*
X1231Y356D02*
Y462D01*
X1231Y356D02*
Y462D01*
X1231Y356D02*
Y462D01*
X1232Y356D02*
Y462D01*
X1232Y356D02*
Y462D01*
X1232Y356D02*
Y462D01*
X1232Y356D02*
Y462D01*
X1233Y356D02*
Y462D01*
X1233Y356D02*
Y356D01*
Y357D02*
Y462D01*
X1233Y356D02*
Y462D01*
X1234Y356D02*
Y463D01*
X1234Y356D02*
Y463D01*
X1234Y356D02*
Y463D01*
X1235Y356D02*
Y463D01*
X1235Y356D02*
Y463D01*
X1235Y356D02*
Y463D01*
X1235Y356D02*
Y463D01*
X1236Y352D02*
Y356D01*
Y356D02*
Y463D01*
X1236Y351D02*
Y467D01*
X1236Y351D02*
Y467D01*
X1237Y351D02*
Y467D01*
X1237Y351D02*
Y467D01*
X1237Y351D02*
Y467D01*
X1237Y351D02*
Y466D01*
X1238Y351D02*
Y467D01*
X1238Y351D02*
Y467D01*
X1238Y351D02*
Y467D01*
X1239Y352D02*
Y467D01*
X1239Y354D02*
Y467D01*
X1239Y351D02*
Y467D01*
X1240Y351D02*
Y467D01*
X1240Y351D02*
Y467D01*
X1240Y351D02*
Y467D01*
X1240Y351D02*
Y467D01*
X1241Y346D02*
Y472D01*
X1241Y351D02*
Y467D01*
X1241Y351D02*
Y472D01*
X1242Y350D02*
Y471D01*
X1242Y350D02*
Y469D01*
X1242Y350D02*
Y472D01*
X1243Y346D02*
Y472D01*
X1243Y351D02*
Y472D01*
X1243Y346D02*
Y472D01*
X1243Y346D02*
Y472D01*
X1244Y346D02*
Y472D01*
X1244Y347D02*
Y472D01*
X1244Y347D02*
Y472D01*
X1245Y346D02*
Y471D01*
X1245Y349D02*
Y472D01*
X1245Y346D02*
Y472D01*
X1246Y347D02*
Y471D01*
X1246Y346D02*
Y470D01*
X1246Y347D02*
Y472D01*
X1247Y348D02*
Y472D01*
X1247Y346D02*
Y472D01*
X1247Y346D02*
Y472D01*
X1247Y346D02*
Y472D01*
X1248Y346D02*
Y472D01*
X1248Y346D02*
Y472D01*
X1248Y347D02*
Y471D01*
X1249Y346D02*
Y471D01*
X1249Y347D02*
Y471D01*
X1249Y346D02*
Y471D01*
X1250Y346D02*
Y472D01*
X1250Y346D02*
Y472D01*
X1250Y346D02*
Y472D01*
X1250Y346D02*
Y472D01*
X1251Y347D02*
Y472D01*
X1251Y347D02*
Y472D01*
X1251Y347D02*
Y472D01*
X1252Y347D02*
Y472D01*
X1252Y347D02*
Y472D01*
X1252Y346D02*
Y472D01*
X1253Y347D02*
Y472D01*
X1253Y346D02*
Y472D01*
X1253Y346D02*
Y472D01*
X1253Y346D02*
Y472D01*
X1254Y346D02*
Y472D01*
X1254Y346D02*
Y472D01*
X1254Y346D02*
Y472D01*
X1255Y346D02*
Y472D01*
X1255Y345D02*
Y474D01*
X1255Y341D02*
Y476D01*
X1255Y341D02*
Y476D01*
X1256Y341D02*
Y476D01*
X1256Y341D02*
Y476D01*
X1256Y345D02*
Y476D01*
X1257Y345D02*
Y476D01*
X1257Y345D02*
Y476D01*
X1257Y345D02*
Y476D01*
X1258Y341D02*
Y476D01*
X1258Y342D02*
Y476D01*
X1258Y344D02*
Y476D01*
X1258Y342D02*
Y474D01*
X1259Y342D02*
Y474D01*
X1259Y342D02*
Y474D01*
X1259Y342D02*
Y476D01*
X1260Y344D02*
Y476D01*
X1260Y341D02*
Y476D01*
X1260Y341D02*
Y476D01*
X1261Y341D02*
Y476D01*
X1261Y341D02*
Y476D01*
X1261Y341D02*
Y476D01*
X1262Y341D02*
Y476D01*
X1262Y341D02*
Y476D01*
X1262Y341D02*
Y476D01*
X1262Y341D02*
Y476D01*
X1263Y341D02*
Y476D01*
X1263Y341D02*
Y476D01*
X1263Y341D02*
Y476D01*
X1264Y341D02*
Y476D01*
X1264Y341D02*
Y475D01*
X1264Y341D02*
Y476D01*
X1265Y343D02*
Y476D01*
X1265Y341D02*
Y476D01*
X1265Y341D02*
Y476D01*
X1265Y341D02*
Y476D01*
X1266Y341D02*
Y343D01*
Y343D02*
Y475D01*
X1266Y341D02*
Y475D01*
X1266Y341D02*
Y476D01*
X1267Y341D02*
Y476D01*
X1267Y341D02*
Y476D01*
X1267Y341D02*
Y476D01*
X1268Y341D02*
Y476D01*
X1268Y341D02*
Y475D01*
X1268Y341D02*
Y475D01*
X1268Y341D02*
Y475D01*
X1269Y341D02*
Y475D01*
X1269Y341D02*
Y475D01*
X1269Y341D02*
Y476D01*
X1270Y341D02*
Y476D01*
X1270Y342D02*
Y476D01*
X1270Y342D02*
Y476D01*
X1270Y342D02*
Y475D01*
X1271Y342D02*
Y476D01*
X1271Y342D02*
Y476D01*
X1271Y341D02*
Y476D01*
X1272Y341D02*
Y476D01*
X1272Y341D02*
Y476D01*
X1272Y341D02*
Y476D01*
X1273Y341D02*
Y476D01*
X1273Y341D02*
Y476D01*
X1273Y341D02*
Y476D01*
X1273Y341D02*
Y476D01*
X1274Y341D02*
Y476D01*
X1274Y341D02*
Y476D01*
X1274Y342D02*
Y475D01*
X1275Y342D02*
Y475D01*
X1275Y342D02*
Y475D01*
X1275Y342D02*
Y476D01*
X1276Y342D02*
Y476D01*
X1276Y342D02*
Y476D01*
X1276Y342D02*
Y342D01*
Y342D02*
Y476D01*
X1276Y342D02*
Y476D01*
X1277Y342D02*
Y476D01*
X1277Y342D02*
Y476D01*
X1277Y342D02*
Y476D01*
X1278Y341D02*
Y476D01*
X1278Y341D02*
Y476D01*
X1278Y341D02*
Y476D01*
X1279Y341D02*
Y476D01*
X1279Y341D02*
Y476D01*
X1279Y341D02*
Y476D01*
X1280Y341D02*
Y476D01*
X1280Y341D02*
Y476D01*
X1280Y341D02*
Y476D01*
X1280Y341D02*
Y476D01*
X1281Y341D02*
Y476D01*
X1281Y341D02*
Y476D01*
X1281Y341D02*
Y476D01*
X1282Y341D02*
Y476D01*
X1282Y341D02*
Y476D01*
X1282Y341D02*
Y476D01*
X1283Y341D02*
Y476D01*
X1283Y341D02*
Y476D01*
X1283Y342D02*
Y476D01*
X1283Y342D02*
Y476D01*
X1284Y342D02*
Y476D01*
X1284Y342D02*
Y476D01*
X1284Y342D02*
Y476D01*
X1285Y342D02*
Y476D01*
X1285Y343D02*
Y476D01*
X1285Y342D02*
Y476D01*
X1286Y342D02*
Y476D01*
X1286Y342D02*
Y476D01*
X1286Y342D02*
Y476D01*
X1286Y342D02*
Y476D01*
X1287Y342D02*
Y476D01*
X1287Y342D02*
Y476D01*
X1287Y342D02*
Y476D01*
X1288Y342D02*
Y476D01*
X1288Y341D02*
Y476D01*
X1288Y341D02*
Y476D01*
X1288Y341D02*
Y476D01*
X1289Y341D02*
Y476D01*
X1289Y341D02*
Y476D01*
X1289Y341D02*
Y476D01*
X1290Y341D02*
Y476D01*
X1290Y341D02*
Y476D01*
X1290Y341D02*
Y476D01*
X1291Y341D02*
Y476D01*
X1291Y342D02*
Y476D01*
X1291Y342D02*
Y476D01*
X1291Y342D02*
Y476D01*
X1292Y342D02*
Y476D01*
X1292Y342D02*
Y476D01*
X1292Y342D02*
Y476D01*
X1293Y342D02*
Y476D01*
X1293Y342D02*
Y476D01*
X1293Y342D02*
Y476D01*
X1294Y342D02*
Y475D01*
X1294Y341D02*
Y476D01*
X1294Y342D02*
Y476D01*
X1294Y342D02*
Y476D01*
X1295Y342D02*
Y476D01*
X1295Y342D02*
Y475D01*
X1295Y342D02*
Y475D01*
X1296Y342D02*
Y475D01*
X1296Y343D02*
Y475D01*
X1296Y343D02*
Y476D01*
X1297Y344D02*
Y476D01*
X1297Y344D02*
Y476D01*
X1297Y341D02*
Y476D01*
X1298Y341D02*
Y476D01*
X1298Y341D02*
Y476D01*
X1298Y341D02*
Y475D01*
X1298Y341D02*
Y476D01*
X1299Y341D02*
Y476D01*
X1299Y341D02*
Y476D01*
X1299Y341D02*
Y476D01*
X1300Y342D02*
Y475D01*
X1300Y342D02*
Y476D01*
X1300Y342D02*
Y476D01*
X1301Y342D02*
Y474D01*
X1301Y342D02*
Y476D01*
X1301Y342D02*
Y476D01*
X1301Y344D02*
Y476D01*
X1302Y342D02*
Y476D01*
X1302Y342D02*
Y476D01*
X1302Y342D02*
Y476D01*
X1303Y342D02*
Y472D01*
X1303Y342D02*
Y476D01*
X1303Y344D02*
Y474D01*
X1304Y346D02*
Y472D01*
X1304Y346D02*
Y472D01*
X1304Y346D02*
Y472D01*
X1304Y346D02*
Y472D01*
X1305Y347D02*
Y472D01*
X1305Y346D02*
Y472D01*
X1305Y346D02*
Y472D01*
X1306Y346D02*
Y472D01*
X1306Y346D02*
Y472D01*
X1306Y346D02*
Y472D01*
X1306Y346D02*
Y472D01*
X1307Y347D02*
Y471D01*
X1307Y346D02*
Y472D01*
X1307Y346D02*
Y472D01*
X1308Y346D02*
Y472D01*
X1308Y346D02*
Y472D01*
X1308Y346D02*
Y472D01*
X1309Y346D02*
Y472D01*
X1309Y346D02*
Y472D01*
X1309Y346D02*
Y471D01*
X1309Y346D02*
Y472D01*
X1310Y347D02*
Y472D01*
X1310Y347D02*
Y472D01*
X1310Y347D02*
Y472D01*
X1311Y347D02*
Y472D01*
X1311Y347D02*
Y472D01*
X1311Y347D02*
Y470D01*
X1312Y347D02*
Y469D01*
X1312Y346D02*
Y472D01*
X1312Y346D02*
Y472D01*
X1312Y347D02*
Y472D01*
X1313Y346D02*
Y470D01*
X1313Y346D02*
Y472D01*
X1313Y346D02*
Y470D01*
X1314Y346D02*
Y470D01*
X1314Y346D02*
Y349D01*
Y349D02*
Y470D01*
X1314Y346D02*
Y469D01*
X1315Y346D02*
Y469D01*
X1315Y346D02*
Y469D01*
X1315Y346D02*
Y472D01*
X1316Y347D02*
Y470D01*
X1316Y350D02*
Y468D01*
X1316Y351D02*
Y469D01*
X1316Y350D02*
Y467D01*
X1317Y347D02*
Y467D01*
X1317Y347D02*
Y471D01*
X1317Y347D02*
Y471D01*
X1318Y351D02*
Y467D01*
X1318Y351D02*
Y467D01*
X1318Y351D02*
Y467D01*
X1319Y351D02*
Y467D01*
X1319Y352D02*
Y467D01*
X1319Y351D02*
Y467D01*
X1319Y351D02*
Y467D01*
X1320Y351D02*
Y467D01*
X1320Y351D02*
Y467D01*
X1320Y351D02*
Y467D01*
X1321Y351D02*
Y467D01*
X1321Y351D02*
Y467D01*
X1321Y351D02*
Y467D01*
X1321Y353D02*
Y467D01*
X1322Y351D02*
Y467D01*
X1322Y351D02*
Y467D01*
X1322Y353D02*
Y466D01*
X1323Y351D02*
Y466D01*
X1323Y351D02*
Y467D01*
X1323Y352D02*
Y466D01*
X1324Y352D02*
Y467D01*
X1324Y352D02*
Y466D01*
X1324Y352D02*
Y467D01*
X1324Y351D02*
Y467D01*
X1325Y352D02*
Y467D01*
X1325Y352D02*
Y467D01*
X1325Y352D02*
Y465D01*
X1326Y351D02*
Y463D01*
X1326Y355D02*
Y467D01*
X1326Y354D02*
Y467D01*
X1327Y351D02*
Y467D01*
X1327Y351D02*
Y467D01*
X1327Y356D02*
Y463D01*
Y464D02*
Y465D01*
X1327Y356D02*
Y462D01*
X1328Y356D02*
Y462D01*
X1328Y356D02*
Y462D01*
X1328Y358D02*
Y462D01*
X1329Y356D02*
Y462D01*
X1329Y356D02*
Y462D01*
X1329Y356D02*
Y462D01*
X1330Y357D02*
Y462D01*
X1330Y356D02*
Y462D01*
X1330Y356D02*
Y462D01*
X1331Y358D02*
Y462D01*
X1331Y358D02*
Y462D01*
X1331Y356D02*
Y462D01*
X1331Y356D02*
Y462D01*
X1332Y356D02*
Y462D01*
X1332Y357D02*
Y462D01*
X1332Y361D02*
Y457D01*
X1333Y361D02*
Y457D01*
X1333Y361D02*
Y459D01*
X1333Y361D02*
Y458D01*
X1334Y361D02*
Y458D01*
X1334Y361D02*
Y458D01*
X1334Y361D02*
Y457D01*
X1334Y361D02*
Y457D01*
X1335Y361D02*
Y457D01*
X1335Y361D02*
Y457D01*
X1335Y361D02*
Y457D01*
X1336Y361D02*
Y457D01*
X1336Y362D02*
Y457D01*
X1336Y361D02*
Y457D01*
X1337Y361D02*
Y457D01*
X1337Y361D02*
Y457D01*
X1337Y362D02*
Y457D01*
X1337Y362D02*
Y456D01*
X1338Y361D02*
Y455D01*
X1338Y361D02*
Y457D01*
X1338Y363D02*
Y456D01*
X1339Y363D02*
Y456D01*
X1339Y364D02*
Y457D01*
X1339Y363D02*
Y457D01*
X1339Y363D02*
Y457D01*
X1340Y363D02*
Y457D01*
X1340Y362D02*
Y457D01*
X1340Y362D02*
Y456D01*
X1341Y365D02*
Y457D01*
X1341Y365D02*
Y457D01*
X1341Y361D02*
Y457D01*
X1342Y365D02*
Y453D01*
X1342Y366D02*
Y452D01*
X1342Y366D02*
Y451D01*
X1342Y366D02*
Y451D01*
X1343Y367D02*
Y451D01*
X1343Y368D02*
Y452D01*
X1343Y365D02*
Y452D01*
X1344Y365D02*
Y451D01*
X1344Y367D02*
Y451D01*
X1344Y368D02*
Y451D01*
X1345Y365D02*
Y451D01*
X1345Y366D02*
Y452D01*
X1345Y368D02*
Y452D01*
X1345Y365D02*
Y452D01*
X1346Y365D02*
Y452D01*
X1346Y365D02*
Y452D01*
X1346Y370D02*
Y450D01*
X1347Y370D02*
Y448D01*
X1347Y370D02*
Y448D01*
X1347Y370D02*
Y448D01*
X1348Y370D02*
Y448D01*
X1348Y370D02*
Y448D01*
X1348Y370D02*
Y448D01*
X1349Y370D02*
Y448D01*
X1349Y370D02*
Y448D01*
X1349Y370D02*
Y448D01*
X1349Y370D02*
Y448D01*
X1350Y370D02*
Y448D01*
X1350Y371D02*
Y448D01*
X1350Y370D02*
Y448D01*
X1351Y370D02*
Y448D01*
X1351Y370D02*
Y448D01*
X1351Y370D02*
Y448D01*
X1352Y372D02*
Y446D01*
X1352Y370D02*
Y446D01*
X1352Y370D02*
Y447D01*
X1352Y370D02*
Y447D01*
X1353Y370D02*
Y447D01*
X1353Y370D02*
Y447D01*
X1353Y370D02*
Y447D01*
X1354Y370D02*
Y446D01*
X1354Y372D02*
Y446D01*
X1354Y376D02*
Y446D01*
X1355Y376D02*
Y445D01*
X1355Y373D02*
Y448D01*
X1355Y372D02*
Y444D01*
X1355Y372D02*
Y448D01*
X1356Y377D02*
Y448D01*
X1356Y375D02*
Y444D01*
X1356Y375D02*
Y443D01*
X1357Y377D02*
Y443D01*
X1357Y377D02*
Y443D01*
X1357Y375D02*
Y441D01*
X1357Y375D02*
Y443D01*
X1358Y377D02*
Y443D01*
X1358Y378D02*
Y443D01*
X1358Y375D02*
Y443D01*
X1359Y375D02*
Y443D01*
X1359Y378D02*
Y441D01*
X1359Y378D02*
Y441D01*
X1360Y375D02*
Y443D01*
X1360Y377D02*
Y442D01*
X1360Y375D02*
Y443D01*
X1360Y375D02*
Y443D01*
X1361Y379D02*
Y437D01*
X1361Y380D02*
Y438D01*
X1361Y380D02*
Y438D01*
X1362Y380D02*
Y438D01*
X1362Y380D02*
Y438D01*
X1362Y380D02*
Y438D01*
X1363Y380D02*
Y438D01*
X1363Y382D02*
Y438D01*
X1363Y382D02*
Y438D01*
X1363Y380D02*
Y438D01*
X1364Y380D02*
Y438D01*
X1364Y380D02*
Y438D01*
X1364Y380D02*
Y437D01*
X1365Y382D02*
Y437D01*
X1365Y380D02*
Y438D01*
X1365Y380D02*
Y438D01*
X1366Y383D02*
Y438D01*
X1366Y384D02*
Y438D01*
X1366Y384D02*
Y438D01*
X1367Y384D02*
Y438D01*
X1367Y384D02*
Y438D01*
X1367Y385D02*
Y438D01*
X1367Y385D02*
Y438D01*
X1368Y385D02*
Y438D01*
X1368Y385D02*
Y438D01*
X1368Y385D02*
Y438D01*
X1369Y385D02*
Y433D01*
X1369Y385D02*
Y433D01*
X1369Y385D02*
Y433D01*
X1370Y385D02*
Y433D01*
X1370Y385D02*
Y438D01*
X1370Y385D02*
Y438D01*
X1370Y387D02*
Y433D01*
X1371Y385D02*
Y433D01*
X1371Y385D02*
Y433D01*
X1371Y386D02*
Y433D01*
X1372Y386D02*
Y431D01*
X1372Y386D02*
Y431D01*
X1372Y386D02*
Y431D01*
X1372Y386D02*
Y432D01*
X1373Y386D02*
Y431D01*
X1373Y386D02*
Y431D01*
X1373Y386D02*
Y433D01*
X1374Y385D02*
Y432D01*
X1374Y385D02*
Y432D01*
X1374Y385D02*
Y433D01*
X1375Y385D02*
Y433D01*
X1375Y388D02*
Y433D01*
X1375Y389D02*
Y429D01*
X1375Y389D02*
Y428D01*
X1376Y389D02*
Y428D01*
X1376Y389D02*
Y428D01*
X1376Y389D02*
Y428D01*
X1377Y389D02*
Y428D01*
X1377Y389D02*
Y428D01*
X1377Y389D02*
Y428D01*
X1378Y389D02*
Y428D01*
X1378Y389D02*
Y427D01*
X1378Y390D02*
Y428D01*
X1378Y390D02*
Y428D01*
X1379Y389D02*
Y428D01*
X1379Y391D02*
Y428D01*
X1379Y389D02*
Y428D01*
X1380Y389D02*
Y428D01*
X1380Y389D02*
Y428D01*
X1380Y389D02*
Y427D01*
X1381Y389D02*
Y427D01*
X1381Y389D02*
Y426D01*
X1381Y389D02*
Y426D01*
X1382Y389D02*
Y428D01*
X1382Y389D02*
Y424D01*
X1382Y389D02*
Y426D01*
X1382Y391D02*
Y428D01*
X1383Y391D02*
Y428D01*
X1383Y391D02*
Y428D01*
X1383Y393D02*
Y428D01*
X1384Y393D02*
Y425D01*
X1384Y390D02*
Y428D01*
X1384Y394D02*
Y428D01*
X1385Y394D02*
Y428D01*
X1385Y394D02*
Y423D01*
X1385Y394D02*
Y424D01*
X1385Y394D02*
Y424D01*
X1386Y394D02*
Y423D01*
X1386Y394D02*
Y423D01*
X1386Y394D02*
Y422D01*
X1387Y394D02*
Y424D01*
X1387Y394D02*
Y424D01*
X1387Y394D02*
Y424D01*
X1388Y394D02*
Y424D01*
X1388Y394D02*
Y424D01*
X1388Y394D02*
Y423D01*
X1388Y395D02*
Y423D01*
X1389Y394D02*
Y424D01*
X1389Y394D02*
Y424D01*
X1389Y395D02*
Y424D01*
X1390Y396D02*
Y424D01*
X1390Y396D02*
Y424D01*
X1390Y396D02*
Y423D01*
X1390Y396D02*
Y423D01*
X1391Y396D02*
Y421D01*
X1391Y396D02*
Y421D01*
X1391Y396D02*
Y421D01*
X1392Y396D02*
Y419D01*
Y420D02*
Y424D01*
X1392Y396D02*
Y424D01*
X1392Y396D02*
Y424D01*
X1393Y396D02*
Y422D01*
X1393Y399D02*
Y422D01*
X1393Y398D02*
Y424D01*
X1393Y398D02*
Y424D01*
X1394Y394D02*
Y424D01*
X1394Y398D02*
Y424D01*
X1394Y398D02*
Y419D01*
Y419D02*
Y420D01*
X1395Y399D02*
Y419D01*
X1395Y399D02*
Y419D01*
X1395Y399D02*
Y419D01*
X1396Y399D02*
Y419D01*
X1396Y399D02*
Y419D01*
X1396Y399D02*
Y419D01*
X1396Y399D02*
Y419D01*
X1397Y399D02*
Y419D01*
X1397Y399D02*
Y419D01*
X1397Y399D02*
Y419D01*
X1398Y399D02*
Y418D01*
X1398Y402D02*
Y418D01*
X1398Y400D02*
Y419D01*
X1399Y399D02*
Y419D01*
X1399Y399D02*
Y419D01*
X1399Y400D02*
Y419D01*
X1400Y399D02*
Y418D01*
X1400Y399D02*
Y418D01*
X1400Y400D02*
Y418D01*
X1400Y400D02*
Y417D01*
X1401Y399D02*
Y417D01*
X1401Y399D02*
Y418D01*
X1401Y399D02*
Y418D01*
X1402Y399D02*
Y416D01*
X1402Y399D02*
Y416D01*
X1402Y399D02*
Y416D01*
X1403Y402D02*
Y419D01*
X1403Y400D02*
Y419D01*
X1403Y400D02*
Y419D01*
X1403Y400D02*
Y419D01*
X1404Y403D02*
Y419D01*
X1404Y403D02*
Y416D01*
X1404Y404D02*
Y415D01*
X1405Y404D02*
Y415D01*
X1405Y404D02*
Y414D01*
X1405Y404D02*
Y414D01*
X1406Y404D02*
Y414D01*
X1406Y404D02*
Y414D01*
X1406Y404D02*
Y414D01*
X1406Y404D02*
Y414D01*
X1407Y404D02*
Y414D01*
X1407Y404D02*
Y414D01*
X1407Y404D02*
Y414D01*
X1408Y404D02*
Y414D01*
X1408Y404D02*
Y414D01*
X1408Y404D02*
Y414D01*
X1408Y404D02*
Y414D01*
X1409Y404D02*
Y414D01*
X1409Y404D02*
Y414D01*
X1409Y404D02*
Y414D01*
X1410Y404D02*
Y414D01*
X1410Y405D02*
Y414D01*
X1410Y404D02*
Y414D01*
X1411Y406D02*
Y414D01*
X1411Y404D02*
Y414D01*
X1411Y406D02*
Y414D01*
X1411Y406D02*
Y414D01*
X1412Y404D02*
Y414D01*
X1412Y405D02*
Y414D01*
X1412Y404D02*
Y414D01*
X1413Y404D02*
Y414D01*
X1413Y404D02*
Y411D01*
Y411D02*
Y414D01*
X1413Y406D02*
Y414D01*
X1414Y404D02*
Y414D01*
X1414Y404D02*
Y414D01*
X1414Y404D02*
Y414D01*
X1414Y406D02*
Y413D01*
Y413D02*
Y414D01*
X1415Y406D02*
Y414D01*
X1415Y404D02*
Y414D01*
X1415Y404D02*
Y414D01*
X1416Y404D02*
Y414D01*
X1416Y404D02*
Y414D01*
X1416Y404D02*
Y414D01*
X1417Y407D02*
Y411D01*
Y411D02*
Y414D01*
X1417Y407D02*
Y414D01*
X1417Y409D02*
Y414D01*
X1418Y408D02*
Y414D01*
X1418Y404D02*
Y414D01*
X1418Y407D02*
Y414D01*
X1418Y409D02*
Y411D01*
Y412D02*
Y414D01*
X986Y500D02*
Y503D01*
Y505D02*
Y505D01*
Y506D02*
Y506D01*
Y506D02*
Y514D01*
Y514D02*
Y516D01*
Y517D02*
Y523D01*
Y524D02*
Y524D01*
Y526D02*
Y529D01*
Y531D02*
Y532D01*
Y532D02*
Y532D01*
Y534D02*
Y537D01*
X987Y495D02*
Y516D01*
Y516D02*
Y529D01*
Y530D02*
Y540D01*
X987Y499D02*
Y503D01*
Y504D02*
Y537D01*
X987Y497D02*
Y543D01*
X987Y495D02*
Y500D01*
Y501D02*
Y543D01*
X988Y495D02*
Y501D01*
Y502D02*
Y543D01*
X988Y495D02*
Y543D01*
X988Y495D02*
Y543D01*
X989Y496D02*
Y543D01*
X989Y495D02*
Y542D01*
X989Y495D02*
Y543D01*
X990Y495D02*
Y543D01*
X990Y495D02*
Y497D01*
Y498D02*
Y541D01*
X990Y495D02*
Y543D01*
X990Y495D02*
Y543D01*
X991Y495D02*
Y543D01*
X991Y490D02*
Y491D01*
Y493D02*
Y495D01*
Y495D02*
Y549D01*
X991Y487D02*
Y492D01*
Y493D02*
Y495D01*
Y495D02*
Y553D01*
X992Y485D02*
Y493D01*
Y493D02*
Y552D01*
X992Y487D02*
Y553D01*
X992Y485D02*
Y553D01*
X993Y489D02*
Y551D01*
X993Y485D02*
Y548D01*
X993Y485D02*
Y553D01*
X993Y489D02*
Y553D01*
X994Y488D02*
Y553D01*
X994Y488D02*
Y553D01*
X994Y485D02*
Y553D01*
X995Y485D02*
Y553D01*
X995Y485D02*
Y553D01*
X995Y485D02*
Y553D01*
X996Y485D02*
Y553D01*
X996Y485D02*
Y555D01*
X996Y481D02*
Y556D01*
X996Y481D02*
Y556D01*
X997Y480D02*
Y562D01*
X997Y479D02*
Y562D01*
X997Y479D02*
Y562D01*
X998Y479D02*
Y562D01*
X998Y483D02*
Y561D01*
X998Y482D02*
Y562D01*
X999Y480D02*
Y562D01*
X999Y476D02*
Y562D01*
X999Y478D02*
Y560D01*
X999Y476D02*
Y477D01*
Y478D02*
Y561D01*
X1000Y477D02*
Y478D01*
Y478D02*
Y562D01*
X1000Y476D02*
Y562D01*
X1000Y476D02*
Y562D01*
X1001Y475D02*
Y476D01*
Y477D02*
Y562D01*
X1001Y475D02*
Y563D01*
X1001Y475D02*
Y476D01*
Y476D02*
Y564D01*
X1002Y473D02*
Y567D01*
X1002Y473D02*
Y564D01*
X1002Y472D02*
Y567D01*
X1002Y472D02*
Y567D01*
X1003Y472D02*
Y567D01*
X1003Y471D02*
Y566D01*
X1003Y471D02*
Y567D01*
X1004Y471D02*
Y567D01*
X1004Y471D02*
Y566D01*
X1004Y471D02*
Y567D01*
X1005Y472D02*
Y567D01*
X1005Y471D02*
Y567D01*
X1005Y471D02*
Y567D01*
X1005Y468D02*
Y566D01*
X1006Y466D02*
Y566D01*
X1006Y467D02*
Y572D01*
X1006Y470D02*
Y568D01*
X1007Y468D02*
Y568D01*
X1007Y467D02*
Y571D01*
X1007Y467D02*
Y571D01*
X1008Y466D02*
Y572D01*
X1008Y467D02*
Y572D01*
X1008Y466D02*
Y572D01*
X1008Y466D02*
Y568D01*
X1009Y466D02*
Y572D01*
X1009Y466D02*
Y572D01*
X1009Y466D02*
Y571D01*
X1010Y466D02*
Y467D01*
Y467D02*
Y572D01*
X1010Y466D02*
Y572D01*
X1010Y466D02*
Y572D01*
X1011Y466D02*
Y572D01*
X1011Y466D02*
Y572D01*
X1011Y466D02*
Y572D01*
X1011Y466D02*
Y572D01*
X1012Y466D02*
Y572D01*
X1012Y466D02*
Y572D01*
X1012Y466D02*
Y466D01*
Y467D02*
Y572D01*
X1013Y466D02*
Y572D01*
X1013Y466D02*
Y573D01*
X1013Y466D02*
Y573D01*
X1014Y466D02*
Y573D01*
X1014Y466D02*
Y573D01*
X1014Y466D02*
Y573D01*
X1014Y466D02*
Y573D01*
X1015Y466D02*
Y573D01*
X1015Y462D02*
Y465D01*
Y466D02*
Y573D01*
X1015Y461D02*
Y577D01*
X1016Y461D02*
Y577D01*
X1016Y461D02*
Y577D01*
X1016Y461D02*
Y577D01*
X1017Y461D02*
Y577D01*
X1017Y461D02*
Y576D01*
X1017Y461D02*
Y577D01*
X1017Y461D02*
Y576D01*
X1018Y461D02*
Y577D01*
X1018Y462D02*
Y577D01*
X1018Y464D02*
Y577D01*
X1019Y461D02*
Y577D01*
X1019Y461D02*
Y577D01*
X1019Y461D02*
Y577D01*
X1020Y461D02*
Y577D01*
X1020Y461D02*
Y577D01*
X1020Y456D02*
Y582D01*
X1020Y461D02*
Y577D01*
X1021Y461D02*
Y582D01*
X1021Y460D02*
Y581D01*
X1021Y460D02*
Y579D01*
X1022Y460D02*
Y582D01*
X1022Y456D02*
Y582D01*
X1022Y461D02*
Y582D01*
X1023Y456D02*
Y582D01*
X1023Y456D02*
Y582D01*
X1023Y456D02*
Y582D01*
X1023Y457D02*
Y582D01*
X1024Y457D02*
Y582D01*
X1024Y456D02*
Y581D01*
X1024Y459D02*
Y582D01*
X1025Y456D02*
Y582D01*
X1025Y456D02*
Y581D01*
X1025Y456D02*
Y580D01*
X1026Y456D02*
Y582D01*
X1026Y458D02*
Y582D01*
X1026Y456D02*
Y582D01*
X1026Y456D02*
Y582D01*
X1027Y456D02*
Y582D01*
X1027Y456D02*
Y582D01*
X1027Y456D02*
Y582D01*
X1028Y457D02*
Y581D01*
X1028Y456D02*
Y581D01*
X1028Y456D02*
Y581D01*
X1029Y456D02*
Y581D01*
X1029Y456D02*
Y582D01*
X1029Y456D02*
Y582D01*
X1029Y456D02*
Y582D01*
X1030Y456D02*
Y582D01*
X1030Y456D02*
Y582D01*
X1030Y456D02*
Y582D01*
X1031Y456D02*
Y582D01*
X1031Y456D02*
Y582D01*
X1031Y457D02*
Y582D01*
X1032Y456D02*
Y582D01*
X1032Y456D02*
Y582D01*
X1032Y456D02*
Y582D01*
X1032Y456D02*
Y582D01*
X1033Y456D02*
Y582D01*
X1033Y456D02*
Y582D01*
X1033Y456D02*
Y582D01*
X1034Y456D02*
Y582D01*
X1034Y456D02*
Y582D01*
X1034Y455D02*
Y584D01*
X1035Y451D02*
Y586D01*
X1035Y451D02*
Y586D01*
X1035Y451D02*
Y586D01*
X1035Y451D02*
Y586D01*
X1036Y455D02*
Y586D01*
X1036Y455D02*
Y586D01*
X1036Y455D02*
Y586D01*
X1037Y455D02*
Y586D01*
X1037Y451D02*
Y586D01*
X1037Y452D02*
Y586D01*
X1038Y454D02*
Y586D01*
X1038Y452D02*
Y584D01*
X1038Y452D02*
Y584D01*
X1038Y452D02*
Y584D01*
X1039Y452D02*
Y586D01*
X1039Y454D02*
Y586D01*
X1039Y451D02*
Y586D01*
X1040Y451D02*
Y586D01*
X1040Y451D02*
Y586D01*
X1040Y451D02*
Y586D01*
X1041Y451D02*
Y586D01*
X1041Y451D02*
Y586D01*
X1041Y451D02*
Y586D01*
X1041Y451D02*
Y586D01*
X1042Y451D02*
Y586D01*
X1042Y451D02*
Y586D01*
X1042Y451D02*
Y586D01*
X1043Y451D02*
Y586D01*
X1043Y451D02*
Y586D01*
X1043Y451D02*
Y585D01*
X1044Y451D02*
Y586D01*
X1044Y453D02*
Y586D01*
X1044Y451D02*
Y586D01*
X1044Y451D02*
Y586D01*
X1045Y451D02*
Y586D01*
X1045Y451D02*
Y453D01*
Y454D02*
Y585D01*
X1045Y451D02*
Y585D01*
X1046Y451D02*
Y586D01*
X1046Y451D02*
Y586D01*
X1046Y451D02*
Y586D01*
X1047Y451D02*
Y586D01*
X1047Y451D02*
Y586D01*
X1047Y451D02*
Y586D01*
X1047Y451D02*
Y586D01*
X1048Y451D02*
Y586D01*
X1048Y451D02*
Y586D01*
X1048Y451D02*
Y586D01*
X1049Y451D02*
Y586D01*
X1049Y451D02*
Y586D01*
X1049Y452D02*
Y586D01*
X1050Y452D02*
Y586D01*
X1050Y452D02*
Y586D01*
X1050Y452D02*
Y586D01*
X1050Y452D02*
Y586D01*
X1051Y451D02*
Y586D01*
X1051Y451D02*
Y586D01*
X1051Y451D02*
Y586D01*
X1052Y451D02*
Y586D01*
X1052Y451D02*
Y586D01*
X1052Y451D02*
Y586D01*
X1053Y451D02*
Y586D01*
X1053Y451D02*
Y586D01*
X1053Y451D02*
Y586D01*
X1053Y451D02*
Y586D01*
X1054Y452D02*
Y585D01*
X1054Y452D02*
Y585D01*
X1054Y452D02*
Y585D01*
X1055Y452D02*
Y586D01*
X1055Y452D02*
Y586D01*
X1055Y452D02*
Y586D01*
X1056Y452D02*
Y452D01*
Y452D02*
Y586D01*
X1056Y452D02*
Y586D01*
X1056Y452D02*
Y586D01*
X1056Y452D02*
Y586D01*
X1057Y452D02*
Y586D01*
X1057Y451D02*
Y586D01*
X1057Y451D02*
Y586D01*
X1058Y451D02*
Y586D01*
X1058Y451D02*
Y586D01*
X1058Y451D02*
Y586D01*
X1059Y451D02*
Y586D01*
X1059Y451D02*
Y586D01*
X1059Y451D02*
Y586D01*
X1059Y451D02*
Y586D01*
X1060Y451D02*
Y586D01*
X1060Y451D02*
Y586D01*
X1060Y451D02*
Y586D01*
X1061Y451D02*
Y586D01*
X1061Y451D02*
Y586D01*
X1061Y451D02*
Y586D01*
X1062Y451D02*
Y586D01*
X1062Y451D02*
Y586D01*
X1062Y451D02*
Y586D01*
X1062Y452D02*
Y586D01*
X1063Y452D02*
Y586D01*
X1063Y452D02*
Y586D01*
X1063Y452D02*
Y586D01*
X1064Y452D02*
Y586D01*
X1064Y452D02*
Y586D01*
X1064Y453D02*
Y586D01*
X1065Y452D02*
Y586D01*
X1065Y452D02*
Y586D01*
X1065Y452D02*
Y586D01*
X1065Y452D02*
Y586D01*
X1066Y452D02*
Y586D01*
X1066Y452D02*
Y586D01*
X1066Y452D02*
Y586D01*
X1067Y452D02*
Y586D01*
X1067Y452D02*
Y586D01*
X1067Y451D02*
Y586D01*
X1068Y451D02*
Y586D01*
X1068Y451D02*
Y586D01*
X1068Y451D02*
Y586D01*
X1068Y451D02*
Y586D01*
X1069Y451D02*
Y586D01*
X1069Y451D02*
Y586D01*
X1069Y451D02*
Y586D01*
X1070Y451D02*
Y586D01*
X1070Y451D02*
Y586D01*
X1070Y452D02*
Y586D01*
X1071Y452D02*
Y586D01*
X1071Y452D02*
Y586D01*
X1071Y452D02*
Y586D01*
X1071Y452D02*
Y586D01*
X1072Y452D02*
Y586D01*
X1072Y452D02*
Y586D01*
X1072Y452D02*
Y586D01*
X1073Y452D02*
Y586D01*
X1073Y452D02*
Y585D01*
X1073Y451D02*
Y586D01*
X1074Y452D02*
Y586D01*
X1074Y452D02*
Y586D01*
X1074Y452D02*
Y586D01*
X1074Y452D02*
Y586D01*
X1075Y452D02*
Y585D01*
X1075Y452D02*
Y585D01*
X1075Y453D02*
Y585D01*
X1076Y453D02*
Y586D01*
X1076Y454D02*
Y586D01*
X1076Y454D02*
Y586D01*
X1077Y451D02*
Y586D01*
X1077Y451D02*
Y586D01*
X1077Y451D02*
Y586D01*
X1077Y451D02*
Y586D01*
X1078Y451D02*
Y586D01*
X1078Y451D02*
Y586D01*
X1078Y451D02*
Y586D01*
X1079Y451D02*
Y586D01*
X1079Y452D02*
Y585D01*
X1079Y452D02*
Y586D01*
X1080Y452D02*
Y586D01*
X1080Y452D02*
Y584D01*
X1080Y452D02*
Y586D01*
X1080Y452D02*
Y586D01*
X1081Y454D02*
Y586D01*
X1081Y452D02*
Y586D01*
X1081Y452D02*
Y586D01*
X1082Y452D02*
Y586D01*
X1082Y452D02*
Y582D01*
X1082Y452D02*
Y586D01*
X1083Y454D02*
Y584D01*
X1083Y456D02*
Y582D01*
X1083Y456D02*
Y582D01*
X1083Y456D02*
Y582D01*
X1084Y456D02*
Y582D01*
X1084Y457D02*
Y582D01*
X1084Y456D02*
Y582D01*
X1085Y456D02*
Y582D01*
X1085Y456D02*
Y582D01*
X1085Y456D02*
Y582D01*
X1086Y456D02*
Y582D01*
X1086Y456D02*
Y582D01*
X1086Y456D02*
Y581D01*
X1086Y456D02*
Y582D01*
X1087Y456D02*
Y582D01*
X1087Y456D02*
Y582D01*
X1087Y456D02*
Y582D01*
X1088Y456D02*
Y582D01*
X1088Y456D02*
Y582D01*
X1088Y456D02*
Y582D01*
X1089Y456D02*
Y581D01*
X1089Y456D02*
Y582D01*
X1089Y456D02*
Y582D01*
X1089Y456D02*
Y582D01*
X1090Y456D02*
Y582D01*
X1090Y457D02*
Y582D01*
X1090Y456D02*
Y582D01*
X1091Y456D02*
Y580D01*
X1091Y457D02*
Y579D01*
X1091Y456D02*
Y582D01*
X1092Y456D02*
Y582D01*
X1092Y456D02*
Y582D01*
X1092Y456D02*
Y580D01*
X1092Y456D02*
Y582D01*
X1093Y456D02*
Y580D01*
X1093Y456D02*
Y580D01*
X1093Y456D02*
Y459D01*
Y459D02*
Y580D01*
X1094Y456D02*
Y579D01*
X1094Y456D02*
Y579D01*
X1094Y456D02*
Y579D01*
X1095Y456D02*
Y582D01*
X1095Y457D02*
Y580D01*
X1095Y460D02*
Y578D01*
X1095Y461D02*
Y579D01*
X1096Y460D02*
Y576D01*
X1096Y457D02*
Y577D01*
X1096Y456D02*
Y581D01*
X1097Y456D02*
Y581D01*
X1097Y461D02*
Y577D01*
X1097Y461D02*
Y577D01*
X1098Y461D02*
Y576D01*
X1098Y461D02*
Y577D01*
X1098Y462D02*
Y577D01*
X1098Y461D02*
Y577D01*
X1099Y461D02*
Y577D01*
X1099Y461D02*
Y577D01*
X1099Y461D02*
Y577D01*
X1100Y461D02*
Y577D01*
X1100Y461D02*
Y577D01*
X1100Y461D02*
Y577D01*
X1101Y461D02*
Y577D01*
X1101Y463D02*
Y577D01*
X1101Y461D02*
Y577D01*
X1101Y461D02*
Y577D01*
X1102Y463D02*
Y576D01*
X1102Y461D02*
Y576D01*
X1102Y461D02*
Y576D01*
X1103Y462D02*
Y576D01*
X1103Y462D02*
Y577D01*
X1103Y462D02*
Y576D01*
X1104Y462D02*
Y577D01*
X1104Y461D02*
Y577D01*
X1104Y463D02*
Y577D01*
X1104Y463D02*
Y577D01*
X1105Y463D02*
Y575D01*
X1105Y461D02*
Y573D01*
X1105Y465D02*
Y577D01*
X1106Y464D02*
Y577D01*
X1106Y461D02*
Y577D01*
X1106Y461D02*
Y577D01*
X1107Y466D02*
Y573D01*
Y574D02*
Y575D01*
X1107Y466D02*
Y572D01*
X1107Y466D02*
Y572D01*
X1107Y466D02*
Y572D01*
X1108Y468D02*
Y572D01*
X1108Y466D02*
Y572D01*
X1108Y466D02*
Y572D01*
X1109Y466D02*
Y572D01*
X1109Y467D02*
Y572D01*
X1109Y466D02*
Y572D01*
X1110Y466D02*
Y572D01*
X1110Y468D02*
Y572D01*
X1110Y468D02*
Y572D01*
X1110Y466D02*
Y572D01*
X1111Y466D02*
Y572D01*
X1111Y466D02*
Y572D01*
X1111Y467D02*
Y572D01*
X1112Y471D02*
Y567D01*
X1112Y471D02*
Y567D01*
X1112Y471D02*
Y569D01*
X1113Y471D02*
Y567D01*
X1113Y471D02*
Y568D01*
X1113Y471D02*
Y568D01*
X1113Y471D02*
Y567D01*
X1114Y471D02*
Y567D01*
X1114Y471D02*
Y567D01*
X1114Y471D02*
Y567D01*
X1115Y471D02*
Y567D01*
X1115Y471D02*
Y567D01*
X1115Y472D02*
Y567D01*
X1116Y471D02*
Y567D01*
X1116Y471D02*
Y567D01*
X1116Y471D02*
Y567D01*
X1116Y472D02*
Y567D01*
X1117Y472D02*
Y566D01*
X1117Y471D02*
Y565D01*
X1117Y471D02*
Y567D01*
X1118Y473D02*
Y566D01*
X1118Y473D02*
Y566D01*
X1118Y475D02*
Y567D01*
X1119Y473D02*
Y567D01*
X1119Y473D02*
Y567D01*
X1119Y473D02*
Y567D01*
X1119Y472D02*
Y567D01*
X1120Y472D02*
Y566D01*
X1120Y475D02*
Y567D01*
X1120Y475D02*
Y567D01*
X1121Y471D02*
Y567D01*
X1121Y475D02*
Y563D01*
X1121Y476D02*
Y562D01*
X1122Y476D02*
Y561D01*
X1122Y476D02*
Y561D01*
X1122Y477D02*
Y561D01*
X1122Y477D02*
Y562D01*
X1123Y475D02*
Y562D01*
X1123Y475D02*
Y561D01*
X1123Y477D02*
Y561D01*
X1124Y478D02*
Y561D01*
X1124Y475D02*
Y561D01*
X1124Y476D02*
Y562D01*
X1125Y478D02*
Y562D01*
X1125Y475D02*
Y562D01*
X1125Y475D02*
Y562D01*
X1125Y475D02*
Y562D01*
X1126Y480D02*
Y560D01*
X1126Y480D02*
Y558D01*
X1126Y480D02*
Y558D01*
X1127Y480D02*
Y558D01*
X1127Y480D02*
Y558D01*
X1127Y481D02*
Y558D01*
X1128Y481D02*
Y558D01*
X1128Y480D02*
Y558D01*
X1128Y480D02*
Y558D01*
X1128Y480D02*
Y558D01*
X1129Y480D02*
Y558D01*
X1129Y481D02*
Y558D01*
X1129Y481D02*
Y558D01*
X1130Y480D02*
Y558D01*
X1130Y480D02*
Y558D01*
X1130Y480D02*
Y558D01*
X1131Y480D02*
Y558D01*
X1131Y482D02*
Y556D01*
X1131Y480D02*
Y556D01*
X1131Y480D02*
Y557D01*
X1132Y480D02*
Y557D01*
X1132Y480D02*
Y557D01*
X1132Y480D02*
Y557D01*
X1133Y480D02*
Y557D01*
X1133Y480D02*
Y556D01*
X1133Y482D02*
Y556D01*
X1134Y486D02*
Y556D01*
X1134Y486D02*
Y555D01*
X1134Y483D02*
Y558D01*
X1134Y482D02*
Y554D01*
X1135Y482D02*
Y558D01*
X1135Y486D02*
Y558D01*
X1135Y485D02*
Y554D01*
X1136Y485D02*
Y553D01*
X1136Y486D02*
Y553D01*
X1136Y487D02*
Y553D01*
X1137Y485D02*
Y551D01*
X1137Y485D02*
Y553D01*
X1137Y486D02*
Y553D01*
X1137Y488D02*
Y553D01*
X1138Y485D02*
Y553D01*
X1138Y485D02*
Y553D01*
X1138Y488D02*
Y551D01*
X1139Y488D02*
Y551D01*
X1139Y485D02*
Y553D01*
X1139Y487D02*
Y553D01*
X1140Y485D02*
Y553D01*
X1140Y485D02*
Y553D01*
X1140Y489D02*
Y547D01*
X1140Y490D02*
Y548D01*
X1141Y490D02*
Y548D01*
X1141Y490D02*
Y548D01*
X1141Y490D02*
Y548D01*
X1142Y490D02*
Y548D01*
X1142Y490D02*
Y548D01*
X1142Y492D02*
Y548D01*
X1143Y493D02*
Y548D01*
X1143Y490D02*
Y548D01*
X1143Y490D02*
Y548D01*
X1143Y490D02*
Y548D01*
X1144Y490D02*
Y547D01*
X1144Y493D02*
Y547D01*
X1144Y490D02*
Y548D01*
X1145Y490D02*
Y548D01*
X1145Y493D02*
Y548D01*
X1145Y494D02*
Y548D01*
X1146Y494D02*
Y548D01*
X1146Y494D02*
Y548D01*
X1146Y494D02*
Y548D01*
X1146Y495D02*
Y548D01*
X1147Y495D02*
Y548D01*
X1147Y495D02*
Y548D01*
X1147Y495D02*
Y548D01*
X1148Y495D02*
Y548D01*
X1148Y495D02*
Y543D01*
X1148Y495D02*
Y543D01*
X1149Y495D02*
Y543D01*
X1149Y495D02*
Y543D01*
X1149Y495D02*
Y548D01*
X1149Y495D02*
Y548D01*
X1150Y497D02*
Y543D01*
X1150Y495D02*
Y543D01*
X1150Y495D02*
Y543D01*
X1151Y496D02*
Y543D01*
X1151Y496D02*
Y541D01*
X1151Y496D02*
Y541D01*
X1152Y496D02*
Y541D01*
X1152Y496D02*
Y542D01*
X1152Y496D02*
Y540D01*
X1152Y496D02*
Y540D01*
X1153Y496D02*
Y543D01*
X1153Y495D02*
Y542D01*
X1153Y495D02*
Y542D01*
X1154Y495D02*
Y543D01*
X1154Y495D02*
Y543D01*
X1154Y498D02*
Y543D01*
X1155Y499D02*
Y539D01*
X1155Y499D02*
Y538D01*
X1155Y499D02*
Y538D01*
X1155Y499D02*
Y538D01*
X1156Y499D02*
Y538D01*
X1156Y499D02*
Y538D01*
X1156Y499D02*
Y538D01*
X1157Y499D02*
Y538D01*
X1157Y499D02*
Y538D01*
X1157Y499D02*
Y537D01*
X1158Y500D02*
Y538D01*
X1158Y500D02*
Y538D01*
X1158Y499D02*
Y538D01*
X1158Y501D02*
Y538D01*
X1159Y499D02*
Y538D01*
X1159Y499D02*
Y538D01*
X1159Y499D02*
Y538D01*
X1160Y499D02*
Y537D01*
X1160Y499D02*
Y537D01*
X1160Y499D02*
Y536D01*
X1161Y499D02*
Y536D01*
X1161Y499D02*
Y538D01*
X1161Y499D02*
Y535D01*
X1161Y499D02*
Y536D01*
X1162Y501D02*
Y538D01*
X1162Y501D02*
Y538D01*
X1162Y501D02*
Y538D01*
X1163Y503D02*
Y538D01*
X1163Y503D02*
Y535D01*
X1163Y500D02*
Y538D01*
X1164Y504D02*
Y538D01*
X1164Y504D02*
Y538D01*
X1164Y504D02*
Y533D01*
X1164Y504D02*
Y534D01*
X1165Y504D02*
Y534D01*
X1165Y504D02*
Y533D01*
X1165Y504D02*
Y533D01*
X1166Y504D02*
Y532D01*
X1166Y504D02*
Y534D01*
X1166Y504D02*
Y534D01*
X1167Y504D02*
Y534D01*
X1167Y504D02*
Y534D01*
X1167Y504D02*
Y534D01*
X1167Y504D02*
Y533D01*
X1168Y505D02*
Y533D01*
X1168Y504D02*
Y534D01*
X1168Y504D02*
Y534D01*
X1169Y505D02*
Y534D01*
X1169Y506D02*
Y534D01*
X1169Y506D02*
Y534D01*
X1170Y506D02*
Y533D01*
X1170Y506D02*
Y533D01*
X1170Y506D02*
Y531D01*
X1170Y506D02*
Y531D01*
X1171Y506D02*
Y531D01*
X1171Y506D02*
Y529D01*
Y530D02*
Y534D01*
X1171Y506D02*
Y534D01*
X1172Y506D02*
Y534D01*
X1172Y506D02*
Y532D01*
X1172Y509D02*
Y532D01*
X1173Y508D02*
Y534D01*
X1173Y508D02*
Y534D01*
X1173Y504D02*
Y534D01*
X1173Y508D02*
Y534D01*
X1174Y508D02*
Y529D01*
Y529D02*
Y530D01*
X1174Y509D02*
Y529D01*
X1174Y509D02*
Y529D01*
X1175Y509D02*
Y529D01*
X1175Y509D02*
Y529D01*
X1175Y509D02*
Y529D01*
X1176Y509D02*
Y529D01*
X1176Y509D02*
Y529D01*
X1176Y509D02*
Y529D01*
X1176Y509D02*
Y529D01*
X1177Y509D02*
Y529D01*
X1177Y509D02*
Y528D01*
X1177Y512D02*
Y528D01*
X1178Y510D02*
Y529D01*
X1178Y509D02*
Y529D01*
X1178Y509D02*
Y529D01*
X1179Y510D02*
Y529D01*
X1179Y509D02*
Y528D01*
X1179Y509D02*
Y528D01*
X1179Y510D02*
Y528D01*
X1180Y510D02*
Y527D01*
X1180Y509D02*
Y527D01*
X1180Y509D02*
Y528D01*
X1181Y509D02*
Y528D01*
X1181Y509D02*
Y526D01*
X1181Y509D02*
Y526D01*
X1182Y509D02*
Y526D01*
X1182Y512D02*
Y529D01*
X1182Y510D02*
Y529D01*
X1182Y510D02*
Y529D01*
X1183Y510D02*
Y529D01*
X1183Y513D02*
Y529D01*
X1183Y513D02*
Y526D01*
X1184Y514D02*
Y525D01*
X1184Y514D02*
Y525D01*
X1184Y514D02*
Y524D01*
X1185Y514D02*
Y524D01*
X1185Y514D02*
Y524D01*
X1185Y514D02*
Y524D01*
X1185Y514D02*
Y524D01*
X1186Y514D02*
Y524D01*
X1186Y514D02*
Y524D01*
X1186Y514D02*
Y524D01*
X1187Y514D02*
Y524D01*
X1187Y514D02*
Y524D01*
X1187Y514D02*
Y524D01*
X1188Y514D02*
Y524D01*
X1188Y514D02*
Y524D01*
X1188Y514D02*
Y524D01*
X1188Y514D02*
Y524D01*
X1189Y514D02*
Y524D01*
X1189Y514D02*
Y524D01*
X1189Y515D02*
Y524D01*
X1190Y514D02*
Y524D01*
X1190Y516D02*
Y524D01*
X1190Y514D02*
Y524D01*
X1191Y516D02*
Y524D01*
X1191Y516D02*
Y524D01*
X1191Y514D02*
Y524D01*
X1191Y515D02*
Y524D01*
X1192Y514D02*
Y524D01*
X1192Y514D02*
Y524D01*
X1192Y514D02*
Y521D01*
Y521D02*
Y524D01*
X1193Y516D02*
Y524D01*
X1193Y514D02*
Y524D01*
X1193Y514D02*
Y524D01*
X1194Y514D02*
Y524D01*
X1194Y516D02*
Y523D01*
Y523D02*
Y524D01*
X1194Y516D02*
Y524D01*
X1194Y514D02*
Y524D01*
X1195Y514D02*
Y524D01*
X1195Y514D02*
Y524D01*
X1195Y514D02*
Y524D01*
X1196Y514D02*
Y524D01*
X1196Y517D02*
Y521D01*
Y521D02*
Y524D01*
X1196Y517D02*
Y524D01*
X1197Y519D02*
Y524D01*
X1197Y518D02*
Y524D01*
X1197Y514D02*
Y524D01*
X1197Y517D02*
Y524D01*
X1198Y519D02*
Y521D01*
Y522D02*
Y524D01*
X997Y320D02*
Y323D01*
Y325D02*
Y325D01*
Y326D02*
Y326D01*
Y326D02*
Y334D01*
Y334D02*
Y336D01*
Y337D02*
Y343D01*
Y344D02*
Y344D01*
Y346D02*
Y349D01*
Y351D02*
Y352D01*
Y352D02*
Y352D01*
Y354D02*
Y357D01*
X997Y315D02*
Y336D01*
Y336D02*
Y349D01*
Y350D02*
Y360D01*
X998Y319D02*
Y323D01*
Y324D02*
Y357D01*
X998Y317D02*
Y363D01*
X998Y315D02*
Y320D01*
Y321D02*
Y363D01*
X998Y315D02*
Y321D01*
Y322D02*
Y363D01*
X999Y315D02*
Y363D01*
X999Y315D02*
Y363D01*
X999Y316D02*
Y363D01*
X1000Y315D02*
Y362D01*
X1000Y315D02*
Y363D01*
X1000Y315D02*
Y363D01*
X1000Y315D02*
Y317D01*
Y318D02*
Y361D01*
X1001Y315D02*
Y363D01*
X1001Y315D02*
Y363D01*
X1001Y315D02*
Y363D01*
X1002Y310D02*
Y311D01*
Y313D02*
Y315D01*
Y315D02*
Y370D01*
X1002Y307D02*
Y312D01*
Y312D02*
Y315D01*
Y315D02*
Y373D01*
X1002Y305D02*
Y313D01*
Y313D02*
Y372D01*
X1003Y307D02*
Y373D01*
X1003Y305D02*
Y373D01*
X1003Y310D02*
Y371D01*
X1003Y305D02*
Y368D01*
X1004Y305D02*
Y373D01*
X1004Y309D02*
Y373D01*
X1004Y308D02*
Y373D01*
X1005Y308D02*
Y373D01*
X1005Y305D02*
Y373D01*
X1005Y305D02*
Y373D01*
X1006Y305D02*
Y373D01*
X1006Y305D02*
Y373D01*
X1006Y305D02*
Y373D01*
X1007Y305D02*
Y375D01*
X1007Y301D02*
Y376D01*
X1007Y301D02*
Y376D01*
X1007Y300D02*
Y382D01*
X1008Y299D02*
Y382D01*
X1008Y299D02*
Y382D01*
X1008Y299D02*
Y382D01*
X1009Y303D02*
Y381D01*
X1009Y302D02*
Y382D01*
X1009Y300D02*
Y382D01*
X1010Y296D02*
Y382D01*
X1010Y298D02*
Y380D01*
X1010Y296D02*
Y297D01*
Y298D02*
Y381D01*
X1010Y297D02*
Y298D01*
Y298D02*
Y382D01*
X1011Y296D02*
Y382D01*
X1011Y296D02*
Y382D01*
X1011Y295D02*
Y296D01*
Y297D02*
Y382D01*
X1012Y294D02*
Y383D01*
X1012Y295D02*
Y296D01*
Y296D02*
Y384D01*
X1012Y293D02*
Y387D01*
X1013Y293D02*
Y384D01*
X1013Y292D02*
Y387D01*
X1013Y292D02*
Y387D01*
X1013Y292D02*
Y387D01*
X1014Y291D02*
Y386D01*
X1014Y291D02*
Y387D01*
X1014Y291D02*
Y387D01*
X1015Y291D02*
Y386D01*
X1015Y291D02*
Y387D01*
X1015Y292D02*
Y387D01*
X1015Y291D02*
Y387D01*
X1016Y291D02*
Y387D01*
X1016Y288D02*
Y386D01*
X1016Y286D02*
Y386D01*
X1017Y287D02*
Y392D01*
X1017Y290D02*
Y388D01*
X1017Y288D02*
Y388D01*
X1018Y287D02*
Y391D01*
X1018Y287D02*
Y391D01*
X1018Y286D02*
Y392D01*
X1018Y287D02*
Y392D01*
X1019Y286D02*
Y392D01*
X1019Y286D02*
Y388D01*
X1019Y286D02*
Y392D01*
X1020Y286D02*
Y392D01*
X1020Y286D02*
Y391D01*
X1020Y286D02*
Y287D01*
Y287D02*
Y392D01*
X1021Y286D02*
Y392D01*
X1021Y286D02*
Y392D01*
X1021Y286D02*
Y392D01*
X1021Y286D02*
Y392D01*
X1022Y286D02*
Y392D01*
X1022Y286D02*
Y392D01*
X1022Y286D02*
Y392D01*
X1023Y286D02*
Y392D01*
X1023Y286D02*
Y286D01*
Y287D02*
Y392D01*
X1023Y286D02*
Y392D01*
X1024Y286D02*
Y393D01*
X1024Y286D02*
Y393D01*
X1024Y286D02*
Y393D01*
X1025Y286D02*
Y393D01*
X1025Y286D02*
Y393D01*
X1025Y286D02*
Y393D01*
X1025Y286D02*
Y393D01*
X1026Y282D02*
Y285D01*
Y286D02*
Y393D01*
X1026Y281D02*
Y397D01*
X1026Y281D02*
Y397D01*
X1027Y281D02*
Y397D01*
X1027Y281D02*
Y397D01*
X1027Y281D02*
Y397D01*
X1028Y281D02*
Y396D01*
X1028Y281D02*
Y397D01*
X1028Y281D02*
Y396D01*
X1028Y281D02*
Y397D01*
X1029Y282D02*
Y397D01*
X1029Y284D02*
Y397D01*
X1029Y281D02*
Y397D01*
X1030Y281D02*
Y397D01*
X1030Y281D02*
Y397D01*
X1030Y281D02*
Y397D01*
X1031Y281D02*
Y397D01*
X1031Y276D02*
Y402D01*
X1031Y281D02*
Y397D01*
X1031Y281D02*
Y402D01*
X1032Y280D02*
Y401D01*
X1032Y280D02*
Y399D01*
X1032Y280D02*
Y402D01*
X1033Y276D02*
Y402D01*
X1033Y281D02*
Y402D01*
X1033Y276D02*
Y402D01*
X1033Y276D02*
Y402D01*
X1034Y276D02*
Y402D01*
X1034Y277D02*
Y402D01*
X1034Y277D02*
Y402D01*
X1035Y276D02*
Y401D01*
X1035Y279D02*
Y402D01*
X1035Y276D02*
Y402D01*
X1036Y276D02*
Y401D01*
X1036Y276D02*
Y400D01*
X1036Y276D02*
Y402D01*
X1036Y278D02*
Y402D01*
X1037Y276D02*
Y402D01*
X1037Y276D02*
Y402D01*
X1037Y276D02*
Y402D01*
X1038Y276D02*
Y402D01*
X1038Y276D02*
Y402D01*
X1038Y277D02*
Y401D01*
X1039Y276D02*
Y401D01*
X1039Y276D02*
Y401D01*
X1039Y276D02*
Y401D01*
X1039Y276D02*
Y402D01*
X1040Y276D02*
Y402D01*
X1040Y276D02*
Y402D01*
X1040Y276D02*
Y402D01*
X1041Y276D02*
Y402D01*
X1041Y276D02*
Y402D01*
X1041Y276D02*
Y402D01*
X1042Y276D02*
Y402D01*
X1042Y277D02*
Y402D01*
X1042Y276D02*
Y402D01*
X1043Y276D02*
Y402D01*
X1043Y276D02*
Y402D01*
X1043Y276D02*
Y402D01*
X1043Y276D02*
Y402D01*
X1044Y276D02*
Y402D01*
X1044Y276D02*
Y402D01*
X1044Y276D02*
Y402D01*
X1045Y276D02*
Y402D01*
X1045Y275D02*
Y404D01*
X1045Y271D02*
Y406D01*
X1046Y271D02*
Y406D01*
X1046Y271D02*
Y406D01*
X1046Y271D02*
Y406D01*
X1046Y275D02*
Y406D01*
X1047Y275D02*
Y406D01*
X1047Y275D02*
Y406D01*
X1047Y275D02*
Y406D01*
X1048Y271D02*
Y406D01*
X1048Y272D02*
Y406D01*
X1048Y274D02*
Y406D01*
X1048Y272D02*
Y404D01*
X1049Y272D02*
Y404D01*
X1049Y272D02*
Y404D01*
X1049Y272D02*
Y406D01*
X1050Y274D02*
Y406D01*
X1050Y271D02*
Y406D01*
X1050Y271D02*
Y406D01*
X1051Y271D02*
Y406D01*
X1051Y271D02*
Y406D01*
X1051Y271D02*
Y406D01*
X1051Y271D02*
Y406D01*
X1052Y271D02*
Y406D01*
X1052Y271D02*
Y406D01*
X1052Y271D02*
Y406D01*
X1053Y271D02*
Y406D01*
X1053Y271D02*
Y406D01*
X1053Y271D02*
Y406D01*
X1054Y271D02*
Y406D01*
X1054Y271D02*
Y405D01*
X1054Y271D02*
Y406D01*
X1054Y273D02*
Y406D01*
X1055Y271D02*
Y406D01*
X1055Y271D02*
Y406D01*
X1055Y271D02*
Y406D01*
X1056Y271D02*
Y273D01*
Y273D02*
Y405D01*
X1056Y271D02*
Y405D01*
X1056Y271D02*
Y406D01*
X1057Y271D02*
Y406D01*
X1057Y271D02*
Y406D01*
X1057Y271D02*
Y406D01*
X1058Y271D02*
Y406D01*
X1058Y271D02*
Y405D01*
X1058Y271D02*
Y405D01*
X1058Y271D02*
Y405D01*
X1059Y271D02*
Y405D01*
X1059Y271D02*
Y405D01*
X1059Y271D02*
Y406D01*
X1060Y271D02*
Y406D01*
X1060Y272D02*
Y406D01*
X1060Y272D02*
Y406D01*
X1061Y272D02*
Y405D01*
X1061Y272D02*
Y406D01*
X1061Y272D02*
Y406D01*
X1061Y271D02*
Y406D01*
X1062Y271D02*
Y406D01*
X1062Y271D02*
Y406D01*
X1062Y271D02*
Y406D01*
X1063Y271D02*
Y406D01*
X1063Y271D02*
Y406D01*
X1063Y271D02*
Y406D01*
X1064Y271D02*
Y406D01*
X1064Y271D02*
Y406D01*
X1064Y271D02*
Y406D01*
X1064Y272D02*
Y405D01*
X1065Y272D02*
Y405D01*
X1065Y272D02*
Y405D01*
X1065Y272D02*
Y406D01*
X1066Y272D02*
Y406D01*
X1066Y272D02*
Y406D01*
X1066Y272D02*
Y272D01*
Y272D02*
Y406D01*
X1066Y272D02*
Y406D01*
X1067Y272D02*
Y406D01*
X1067Y272D02*
Y406D01*
X1067Y272D02*
Y406D01*
X1068Y271D02*
Y406D01*
X1068Y271D02*
Y406D01*
X1068Y271D02*
Y406D01*
X1069Y271D02*
Y406D01*
X1069Y271D02*
Y406D01*
X1069Y271D02*
Y406D01*
X1069Y271D02*
Y406D01*
X1070Y271D02*
Y406D01*
X1070Y271D02*
Y406D01*
X1070Y271D02*
Y406D01*
X1071Y271D02*
Y406D01*
X1071Y271D02*
Y406D01*
X1071Y271D02*
Y406D01*
X1072Y271D02*
Y406D01*
X1072Y271D02*
Y406D01*
X1072Y271D02*
Y406D01*
X1072Y271D02*
Y406D01*
X1073Y271D02*
Y406D01*
X1073Y272D02*
Y406D01*
X1073Y272D02*
Y406D01*
X1074Y272D02*
Y406D01*
X1074Y272D02*
Y406D01*
X1074Y272D02*
Y406D01*
X1075Y272D02*
Y406D01*
X1075Y273D02*
Y406D01*
X1075Y272D02*
Y406D01*
X1076Y272D02*
Y406D01*
X1076Y272D02*
Y406D01*
X1076Y272D02*
Y406D01*
X1076Y272D02*
Y406D01*
X1077Y272D02*
Y406D01*
X1077Y272D02*
Y406D01*
X1077Y272D02*
Y406D01*
X1078Y272D02*
Y406D01*
X1078Y271D02*
Y406D01*
X1078Y271D02*
Y406D01*
X1079Y271D02*
Y406D01*
X1079Y271D02*
Y406D01*
X1079Y271D02*
Y406D01*
X1079Y271D02*
Y406D01*
X1080Y271D02*
Y406D01*
X1080Y271D02*
Y406D01*
X1080Y271D02*
Y406D01*
X1081Y271D02*
Y406D01*
X1081Y272D02*
Y406D01*
X1081Y272D02*
Y406D01*
X1082Y272D02*
Y406D01*
X1082Y272D02*
Y406D01*
X1082Y272D02*
Y406D01*
X1082Y272D02*
Y406D01*
X1083Y272D02*
Y406D01*
X1083Y272D02*
Y406D01*
X1083Y272D02*
Y406D01*
X1084Y272D02*
Y405D01*
X1084Y271D02*
Y406D01*
X1084Y272D02*
Y406D01*
X1084Y272D02*
Y406D01*
X1085Y272D02*
Y406D01*
X1085Y272D02*
Y405D01*
X1085Y272D02*
Y405D01*
X1086Y272D02*
Y405D01*
X1086Y273D02*
Y405D01*
X1086Y273D02*
Y406D01*
X1087Y274D02*
Y406D01*
X1087Y274D02*
Y406D01*
X1087Y271D02*
Y406D01*
X1087Y271D02*
Y406D01*
X1088Y271D02*
Y406D01*
X1088Y271D02*
Y405D01*
X1088Y271D02*
Y406D01*
X1089Y271D02*
Y406D01*
X1089Y271D02*
Y406D01*
X1089Y271D02*
Y406D01*
X1090Y272D02*
Y405D01*
X1090Y272D02*
Y406D01*
X1090Y272D02*
Y406D01*
X1090Y272D02*
Y404D01*
X1091Y272D02*
Y406D01*
X1091Y272D02*
Y406D01*
X1091Y274D02*
Y406D01*
X1092Y272D02*
Y406D01*
X1092Y272D02*
Y406D01*
X1092Y272D02*
Y406D01*
X1093Y272D02*
Y402D01*
X1093Y272D02*
Y406D01*
X1093Y274D02*
Y404D01*
X1094Y276D02*
Y402D01*
X1094Y276D02*
Y402D01*
X1094Y276D02*
Y402D01*
X1094Y276D02*
Y402D01*
X1095Y277D02*
Y402D01*
X1095Y276D02*
Y402D01*
X1095Y276D02*
Y402D01*
X1096Y276D02*
Y402D01*
X1096Y276D02*
Y402D01*
X1096Y276D02*
Y402D01*
X1097Y276D02*
Y402D01*
X1097Y276D02*
Y401D01*
X1097Y276D02*
Y402D01*
X1097Y276D02*
Y402D01*
X1098Y276D02*
Y402D01*
X1098Y276D02*
Y402D01*
X1098Y276D02*
Y402D01*
X1099Y276D02*
Y402D01*
X1099Y276D02*
Y402D01*
X1099Y276D02*
Y401D01*
X1099Y276D02*
Y402D01*
X1100Y276D02*
Y402D01*
X1100Y276D02*
Y402D01*
X1100Y276D02*
Y402D01*
X1101Y277D02*
Y402D01*
X1101Y276D02*
Y402D01*
X1101Y276D02*
Y400D01*
X1102Y277D02*
Y399D01*
X1102Y276D02*
Y402D01*
X1102Y276D02*
Y402D01*
X1102Y276D02*
Y402D01*
X1103Y276D02*
Y400D01*
X1103Y276D02*
Y402D01*
X1103Y276D02*
Y400D01*
X1104Y276D02*
Y400D01*
X1104Y276D02*
Y279D01*
Y279D02*
Y400D01*
X1104Y276D02*
Y399D01*
X1105Y276D02*
Y399D01*
X1105Y276D02*
Y399D01*
X1105Y276D02*
Y402D01*
X1105Y277D02*
Y400D01*
X1106Y280D02*
Y398D01*
X1106Y281D02*
Y399D01*
X1106Y280D02*
Y396D01*
X1107Y277D02*
Y397D01*
X1107Y276D02*
Y401D01*
X1107Y276D02*
Y401D01*
X1108Y281D02*
Y397D01*
X1108Y281D02*
Y397D01*
X1108Y281D02*
Y396D01*
X1109Y281D02*
Y397D01*
X1109Y282D02*
Y397D01*
X1109Y281D02*
Y397D01*
X1109Y281D02*
Y397D01*
X1110Y281D02*
Y397D01*
X1110Y281D02*
Y397D01*
X1110Y281D02*
Y397D01*
X1111Y281D02*
Y397D01*
X1111Y281D02*
Y397D01*
X1111Y281D02*
Y397D01*
X1112Y283D02*
Y397D01*
X1112Y281D02*
Y397D01*
X1112Y281D02*
Y397D01*
X1112Y283D02*
Y396D01*
X1113Y281D02*
Y396D01*
X1113Y281D02*
Y396D01*
X1113Y282D02*
Y396D01*
X1114Y282D02*
Y397D01*
X1114Y282D02*
Y396D01*
X1114Y282D02*
Y397D01*
X1115Y281D02*
Y397D01*
X1115Y282D02*
Y397D01*
X1115Y282D02*
Y397D01*
X1115Y282D02*
Y395D01*
X1116Y281D02*
Y393D01*
X1116Y285D02*
Y397D01*
X1116Y284D02*
Y397D01*
X1117Y281D02*
Y397D01*
X1117Y281D02*
Y397D01*
X1117Y286D02*
Y394D01*
Y394D02*
Y395D01*
X1117Y286D02*
Y392D01*
X1118Y286D02*
Y392D01*
X1118Y286D02*
Y392D01*
X1118Y288D02*
Y392D01*
X1119Y286D02*
Y392D01*
X1119Y286D02*
Y392D01*
X1119Y286D02*
Y392D01*
X1120Y287D02*
Y392D01*
X1120Y286D02*
Y392D01*
X1120Y286D02*
Y392D01*
X1120Y288D02*
Y392D01*
X1121Y288D02*
Y392D01*
X1121Y286D02*
Y392D01*
X1121Y286D02*
Y392D01*
X1122Y286D02*
Y392D01*
X1122Y287D02*
Y392D01*
X1122Y291D02*
Y387D01*
X1123Y291D02*
Y387D01*
X1123Y291D02*
Y389D01*
X1123Y291D02*
Y387D01*
X1123Y291D02*
Y388D01*
X1124Y291D02*
Y388D01*
X1124Y291D02*
Y387D01*
X1124Y291D02*
Y387D01*
X1125Y291D02*
Y387D01*
X1125Y291D02*
Y387D01*
X1125Y291D02*
Y387D01*
X1126Y291D02*
Y387D01*
X1126Y292D02*
Y387D01*
X1126Y291D02*
Y387D01*
X1127Y291D02*
Y387D01*
X1127Y291D02*
Y387D01*
X1127Y292D02*
Y387D01*
X1127Y292D02*
Y386D01*
X1128Y291D02*
Y385D01*
X1128Y291D02*
Y387D01*
X1128Y293D02*
Y386D01*
X1129Y293D02*
Y386D01*
X1129Y294D02*
Y387D01*
X1129Y293D02*
Y387D01*
X1130Y293D02*
Y387D01*
X1130Y293D02*
Y387D01*
X1130Y292D02*
Y387D01*
X1130Y292D02*
Y386D01*
X1131Y295D02*
Y387D01*
X1131Y295D02*
Y387D01*
X1131Y291D02*
Y387D01*
X1132Y295D02*
Y383D01*
X1132Y296D02*
Y382D01*
X1132Y296D02*
Y381D01*
X1133Y296D02*
Y381D01*
X1133Y297D02*
Y381D01*
X1133Y298D02*
Y382D01*
X1133Y295D02*
Y382D01*
X1134Y295D02*
Y381D01*
X1134Y297D02*
Y381D01*
X1134Y298D02*
Y381D01*
X1135Y295D02*
Y381D01*
X1135Y296D02*
Y382D01*
X1135Y298D02*
Y382D01*
X1135Y295D02*
Y382D01*
X1136Y295D02*
Y382D01*
X1136Y295D02*
Y382D01*
X1136Y300D02*
Y380D01*
X1137Y300D02*
Y378D01*
X1137Y300D02*
Y378D01*
X1137Y300D02*
Y378D01*
X1138Y300D02*
Y378D01*
X1138Y301D02*
Y378D01*
X1138Y301D02*
Y378D01*
X1138Y300D02*
Y378D01*
X1139Y300D02*
Y378D01*
X1139Y300D02*
Y378D01*
X1139Y300D02*
Y378D01*
X1140Y301D02*
Y378D01*
X1140Y301D02*
Y378D01*
X1140Y300D02*
Y378D01*
X1141Y300D02*
Y378D01*
X1141Y300D02*
Y378D01*
X1141Y300D02*
Y378D01*
X1141Y302D02*
Y376D01*
X1142Y300D02*
Y376D01*
X1142Y300D02*
Y377D01*
X1142Y300D02*
Y377D01*
X1143Y300D02*
Y377D01*
X1143Y300D02*
Y377D01*
X1143Y300D02*
Y377D01*
X1144Y300D02*
Y376D01*
X1144Y302D02*
Y376D01*
X1144Y306D02*
Y376D01*
X1145Y306D02*
Y375D01*
X1145Y303D02*
Y378D01*
X1145Y302D02*
Y374D01*
X1145Y302D02*
Y378D01*
X1146Y306D02*
Y378D01*
X1146Y305D02*
Y374D01*
X1146Y305D02*
Y373D01*
X1147Y306D02*
Y373D01*
X1147Y307D02*
Y373D01*
X1147Y305D02*
Y371D01*
X1148Y305D02*
Y373D01*
X1148Y306D02*
Y373D01*
X1148Y308D02*
Y373D01*
X1148Y305D02*
Y373D01*
X1149Y305D02*
Y373D01*
X1149Y308D02*
Y371D01*
X1149Y308D02*
Y371D01*
X1150Y305D02*
Y373D01*
X1150Y307D02*
Y373D01*
X1150Y305D02*
Y373D01*
X1151Y305D02*
Y373D01*
X1151Y309D02*
Y367D01*
X1151Y310D02*
Y368D01*
X1151Y310D02*
Y368D01*
X1152Y310D02*
Y368D01*
X1152Y310D02*
Y368D01*
X1152Y310D02*
Y368D01*
X1153Y310D02*
Y368D01*
X1153Y312D02*
Y368D01*
X1153Y312D02*
Y368D01*
X1153Y310D02*
Y368D01*
X1154Y310D02*
Y368D01*
X1154Y310D02*
Y368D01*
X1154Y310D02*
Y366D01*
X1155Y312D02*
Y367D01*
X1155Y310D02*
Y368D01*
X1155Y310D02*
Y368D01*
X1156Y313D02*
Y368D01*
X1156Y314D02*
Y368D01*
X1156Y314D02*
Y368D01*
X1156Y314D02*
Y368D01*
X1157Y314D02*
Y368D01*
X1157Y315D02*
Y368D01*
X1157Y315D02*
Y368D01*
X1158Y315D02*
Y368D01*
X1158Y315D02*
Y368D01*
X1158Y315D02*
Y368D01*
X1159Y315D02*
Y363D01*
X1159Y315D02*
Y363D01*
X1159Y315D02*
Y363D01*
X1160Y315D02*
Y363D01*
X1160Y315D02*
Y368D01*
X1160Y315D02*
Y368D01*
X1160Y317D02*
Y363D01*
X1161Y315D02*
Y363D01*
X1161Y315D02*
Y363D01*
X1161Y316D02*
Y363D01*
X1162Y316D02*
Y361D01*
X1162Y316D02*
Y361D01*
X1162Y316D02*
Y361D01*
X1163Y316D02*
Y362D01*
X1163Y316D02*
Y361D01*
X1163Y316D02*
Y361D01*
X1163Y316D02*
Y363D01*
X1164Y315D02*
Y362D01*
X1164Y315D02*
Y362D01*
X1164Y315D02*
Y363D01*
X1165Y315D02*
Y363D01*
X1165Y318D02*
Y363D01*
X1165Y319D02*
Y359D01*
X1166Y319D02*
Y358D01*
X1166Y319D02*
Y358D01*
X1166Y319D02*
Y358D01*
X1166Y319D02*
Y358D01*
X1167Y319D02*
Y358D01*
X1167Y319D02*
Y358D01*
X1167Y319D02*
Y358D01*
X1168Y319D02*
Y358D01*
X1168Y319D02*
Y357D01*
X1168Y320D02*
Y358D01*
X1168Y320D02*
Y358D01*
X1169Y319D02*
Y358D01*
X1169Y321D02*
Y358D01*
X1169Y319D02*
Y358D01*
X1170Y319D02*
Y358D01*
X1170Y319D02*
Y358D01*
X1170Y319D02*
Y357D01*
X1171Y319D02*
Y357D01*
X1171Y319D02*
Y356D01*
X1171Y319D02*
Y356D01*
X1171Y319D02*
Y358D01*
X1172Y319D02*
Y354D01*
X1172Y319D02*
Y356D01*
X1172Y321D02*
Y358D01*
X1173Y321D02*
Y358D01*
X1173Y321D02*
Y358D01*
X1173Y323D02*
Y358D01*
X1174Y323D02*
Y355D01*
X1174Y320D02*
Y358D01*
X1174Y324D02*
Y358D01*
X1174Y324D02*
Y358D01*
X1175Y324D02*
Y353D01*
X1175Y324D02*
Y354D01*
X1175Y324D02*
Y354D01*
X1176Y324D02*
Y353D01*
X1176Y324D02*
Y353D01*
X1176Y324D02*
Y352D01*
X1177Y324D02*
Y354D01*
X1177Y324D02*
Y354D01*
X1177Y324D02*
Y354D01*
X1178Y324D02*
Y354D01*
X1178Y324D02*
Y354D01*
X1178Y324D02*
Y353D01*
X1178Y325D02*
Y353D01*
X1179Y324D02*
Y354D01*
X1179Y324D02*
Y354D01*
X1179Y325D02*
Y354D01*
X1180Y326D02*
Y354D01*
X1180Y326D02*
Y354D01*
X1180Y326D02*
Y353D01*
X1181Y326D02*
Y353D01*
X1181Y326D02*
Y351D01*
X1181Y326D02*
Y351D01*
X1181Y326D02*
Y351D01*
X1182Y326D02*
Y349D01*
Y350D02*
Y354D01*
X1182Y326D02*
Y354D01*
X1182Y326D02*
Y354D01*
X1183Y326D02*
Y352D01*
X1183Y329D02*
Y352D01*
X1183Y328D02*
Y354D01*
X1184Y328D02*
Y354D01*
X1184Y324D02*
Y354D01*
X1184Y328D02*
Y354D01*
X1184Y328D02*
Y349D01*
Y349D02*
Y350D01*
X1185Y329D02*
Y349D01*
X1185Y329D02*
Y349D01*
X1185Y329D02*
Y349D01*
X1186Y329D02*
Y349D01*
X1186Y329D02*
Y349D01*
X1186Y329D02*
Y349D01*
X1186Y329D02*
Y349D01*
X1187Y329D02*
Y349D01*
X1187Y329D02*
Y349D01*
X1187Y329D02*
Y349D01*
X1188Y329D02*
Y348D01*
X1188Y332D02*
Y348D01*
X1188Y330D02*
Y349D01*
X1189Y329D02*
Y349D01*
X1189Y329D02*
Y349D01*
X1189Y330D02*
Y349D01*
X1189Y329D02*
Y348D01*
X1190Y329D02*
Y348D01*
X1190Y330D02*
Y348D01*
X1190Y330D02*
Y347D01*
X1191Y329D02*
Y347D01*
X1191Y329D02*
Y348D01*
X1191Y329D02*
Y348D01*
X1192Y329D02*
Y346D01*
X1192Y329D02*
Y346D01*
X1192Y329D02*
Y346D01*
X1192Y332D02*
Y349D01*
X1193Y330D02*
Y349D01*
X1193Y330D02*
Y349D01*
X1193Y330D02*
Y349D01*
X1194Y333D02*
Y349D01*
X1194Y333D02*
Y346D01*
X1194Y334D02*
Y345D01*
X1195Y334D02*
Y345D01*
X1195Y334D02*
Y344D01*
X1195Y334D02*
Y344D01*
X1196Y334D02*
Y344D01*
X1196Y334D02*
Y344D01*
X1196Y334D02*
Y344D01*
X1196Y334D02*
Y344D01*
X1197Y334D02*
Y344D01*
X1197Y334D02*
Y344D01*
X1197Y334D02*
Y344D01*
X1198Y334D02*
Y344D01*
X1198Y334D02*
Y344D01*
X1198Y334D02*
Y344D01*
X1199Y334D02*
Y344D01*
X1199Y334D02*
Y344D01*
X1199Y334D02*
Y344D01*
X1199Y334D02*
Y344D01*
X1200Y334D02*
Y344D01*
X1200Y335D02*
Y344D01*
X1200Y334D02*
Y344D01*
X1201Y336D02*
Y344D01*
X1201Y334D02*
Y344D01*
X1201Y336D02*
Y344D01*
X1202Y336D02*
Y344D01*
X1202Y334D02*
Y344D01*
X1202Y335D02*
Y344D01*
X1202Y334D02*
Y344D01*
X1203Y334D02*
Y344D01*
X1203Y334D02*
Y341D01*
Y341D02*
Y344D01*
X1203Y336D02*
Y344D01*
X1204Y334D02*
Y344D01*
X1204Y334D02*
Y344D01*
X1204Y334D02*
Y344D01*
X1204Y336D02*
Y343D01*
Y343D02*
Y344D01*
X1205Y336D02*
Y344D01*
X1205Y334D02*
Y344D01*
X1205Y334D02*
Y344D01*
X1206Y334D02*
Y344D01*
X1206Y334D02*
Y344D01*
X1206Y334D02*
Y344D01*
X1207Y337D02*
Y341D01*
Y341D02*
Y344D01*
X1207Y337D02*
Y344D01*
X1207Y339D02*
Y344D01*
X1207Y338D02*
Y344D01*
X1208Y334D02*
Y344D01*
X1208Y337D02*
Y344D01*
X1208Y339D02*
Y341D01*
Y342D02*
Y344D01*
M02*
