%FSLAX23Y23*%
%MOIN*%
G70*
G01*
G75*
G04 Layer_Physical_Order=2*
G04 Layer_Color=16711680*
%ADD10R,0.035X0.031*%
%ADD11R,0.118X0.059*%
%ADD12R,0.118X0.039*%
%ADD13C,0.010*%
%ADD14C,0.236*%
%ADD15C,0.039*%
%ADD16C,0.020*%
G36*
X1630Y866D02*
X1625Y-56D01*
X1621Y-60D01*
X-50Y-40D01*
X-60Y866D01*
X-56Y870D01*
X1626D01*
X1630Y866D01*
D02*
G37*
%LPC*%
G36*
X1580Y821D02*
X1580Y821D01*
X1580Y821D01*
X0D01*
X-11Y816D01*
X-16Y805D01*
Y0D01*
X-11Y-11D01*
X0Y-16D01*
X1568D01*
X1569Y-16D01*
X1580Y-21D01*
X1591Y-16D01*
X1596Y-5D01*
Y805D01*
X1591Y816D01*
X1580Y821D01*
D02*
G37*
%LPD*%
G36*
X1564Y16D02*
X16D01*
Y789D01*
X1564D01*
Y16D01*
D02*
G37*
%LPC*%
G36*
X420Y630D02*
X360D01*
X367Y612D01*
X374Y610D01*
Y255D01*
X374Y255D01*
X374Y255D01*
X376Y249D01*
X376Y249D01*
X375Y245D01*
X435D01*
X428Y263D01*
X406Y272D01*
Y610D01*
X413Y612D01*
X420Y630D01*
D02*
G37*
G36*
X435Y235D02*
X410D01*
Y210D01*
X428Y217D01*
X435Y235D01*
D02*
G37*
G36*
X400D02*
X375D01*
X382Y217D01*
X400Y210D01*
Y235D01*
D02*
G37*
G36*
X385Y665D02*
X367Y658D01*
X360Y640D01*
X385D01*
Y665D01*
D02*
G37*
G36*
X395D02*
Y640D01*
X420D01*
X413Y658D01*
X395Y665D01*
D02*
G37*
G36*
X1045Y696D02*
X1030Y690D01*
X1024Y675D01*
X1030Y660D01*
X1033Y659D01*
X1056Y577D01*
X1054Y570D01*
X1060Y555D01*
X1075Y549D01*
X1090Y555D01*
X1096Y570D01*
X1090Y585D01*
X1087Y586D01*
X1064Y668D01*
X1066Y675D01*
X1060Y690D01*
X1045Y696D01*
D02*
G37*
G36*
X1185Y591D02*
X1170Y585D01*
X1164Y570D01*
X1170Y555D01*
X1178Y551D01*
X1284Y401D01*
X1284Y400D01*
X1284Y399D01*
X1179Y254D01*
X1027Y299D01*
X1026Y304D01*
X1129Y379D01*
X1130Y379D01*
X1145Y385D01*
X1151Y400D01*
X1145Y415D01*
X1130Y421D01*
X1115Y415D01*
X1111Y406D01*
X1006Y330D01*
X1001Y332D01*
Y492D01*
X1006Y505D01*
X1000Y520D01*
X985Y526D01*
X970Y520D01*
X964Y505D01*
X969Y492D01*
Y346D01*
X964Y344D01*
X916Y400D01*
X916Y400D01*
X910Y415D01*
X895Y421D01*
X882Y416D01*
X715D01*
X704Y411D01*
X573Y281D01*
X523D01*
X510Y286D01*
X495Y280D01*
X489Y265D01*
X495Y250D01*
X510Y244D01*
X523Y249D01*
X568D01*
X571Y244D01*
X544Y205D01*
X534Y155D01*
X544Y105D01*
X573Y63D01*
X615Y34D01*
X665Y24D01*
X715Y34D01*
X757Y63D01*
X786Y105D01*
X796Y155D01*
X786Y205D01*
X757Y247D01*
X715Y276D01*
X665Y286D01*
X622Y277D01*
X619Y281D01*
X722Y384D01*
X882D01*
X890Y380D01*
X964Y295D01*
X964Y295D01*
X970Y280D01*
X985Y274D01*
X991Y276D01*
X1168Y223D01*
X1170Y220D01*
X1185Y214D01*
X1200Y220D01*
X1206Y235D01*
X1206Y236D01*
X1311Y381D01*
X1320Y385D01*
X1326Y400D01*
X1320Y415D01*
X1312Y419D01*
X1206Y569D01*
X1206Y570D01*
X1200Y585D01*
X1185Y591D01*
D02*
G37*
G36*
X665Y781D02*
X615Y771D01*
X573Y742D01*
X544Y700D01*
X534Y650D01*
X544Y600D01*
X573Y558D01*
X615Y529D01*
X665Y519D01*
X715Y529D01*
X757Y558D01*
X786Y600D01*
X796Y650D01*
X786Y700D01*
X757Y742D01*
X715Y771D01*
X665Y781D01*
D02*
G37*
%LPD*%
D13*
X1045Y675D02*
X1075Y570D01*
X985Y295D02*
Y505D01*
Y295D02*
X1130Y400D01*
X1185Y570D02*
X1305Y400D01*
X1185Y235D02*
X1305Y400D01*
X985Y295D02*
X1185Y235D01*
X895Y400D02*
X985Y295D01*
X715Y400D02*
X895D01*
X580Y265D02*
X715Y400D01*
X510Y265D02*
X580D01*
X390Y255D02*
X405Y240D01*
X390Y255D02*
Y635D01*
D14*
X665Y155D02*
D03*
Y650D02*
D03*
D15*
X754Y155D02*
D03*
X728Y92D02*
D03*
X665Y66D02*
D03*
X602Y92D02*
D03*
X576Y155D02*
D03*
X665Y244D02*
D03*
X728Y218D02*
D03*
X602D02*
D03*
Y713D02*
D03*
X728D02*
D03*
X665Y739D02*
D03*
X576Y650D02*
D03*
X602Y587D02*
D03*
X665Y561D02*
D03*
X728Y587D02*
D03*
X754Y650D02*
D03*
X390Y635D02*
D03*
X405Y240D02*
D03*
D16*
X510Y265D02*
D03*
X1045Y675D02*
D03*
X1075Y570D02*
D03*
X1185D02*
D03*
X1305Y400D02*
D03*
X1130D02*
D03*
X1185Y235D02*
D03*
X985Y295D02*
D03*
Y505D02*
D03*
X895Y400D02*
D03*
M02*
