M48
;Layer_Color=9474304
;FILE_FORMAT=2:3
INCH,TZ
;TYPE=PLATED
T1F00S00C0.008
T2F00S00C0.020
T3F00S00C0.118
%
T01
X985Y295
X895Y400
X1130
X1305
X1185Y235
X510Y265
X985Y505
X1075Y570
X1185
X1045Y675
T02
X665Y66
X728Y92
X754Y155
X728Y218
X665Y244
X602Y218
X576Y155
X602Y92
X405Y240
X390Y635
X576Y650
X602Y713
Y587
X665Y561
X728Y587
X754Y650
X728Y713
X665Y739
T03
X665Y155
Y650
M30
