%FSLAX23Y23*%
%MOIN*%
G70*
G01*
G75*
G04 Layer_Physical_Order=1*
G04 Layer_Color=255*
%ADD10R,0.035X0.031*%
%ADD11R,0.118X0.059*%
%ADD12R,0.118X0.039*%
%ADD13C,0.010*%
%ADD14C,0.236*%
%ADD15C,0.039*%
%ADD16C,0.020*%
G36*
X1635Y871D02*
Y-51D01*
X1631Y-55D01*
X-55Y-45D01*
Y870D01*
X1631Y875D01*
X1635Y871D01*
D02*
G37*
%LPC*%
G36*
X1580Y821D02*
X1580Y821D01*
X1580Y821D01*
X0D01*
X-11Y816D01*
X-16Y805D01*
Y0D01*
X-16Y0D01*
X-16Y-0D01*
X-11Y-11D01*
X0Y-16D01*
X1568D01*
X1569Y-16D01*
X1580Y-21D01*
X1591Y-16D01*
X1596Y-5D01*
Y805D01*
X1591Y816D01*
X1580Y821D01*
D02*
G37*
%LPD*%
G36*
X1564Y16D02*
X16D01*
Y200D01*
X142D01*
Y279D01*
X16D01*
Y531D01*
X142D01*
Y610D01*
X16D01*
Y789D01*
X1564D01*
Y16D01*
D02*
G37*
%LPC*%
G36*
X339Y435D02*
X201D01*
Y421D01*
X155D01*
X144Y416D01*
X139Y405D01*
Y305D01*
X144Y294D01*
X189Y249D01*
X189Y249D01*
X189D01*
X189Y249D01*
X189D01*
Y249D01*
D01*
D01*
D01*
D01*
X189D01*
Y249D01*
D01*
X200Y244D01*
X370D01*
X373Y240D01*
X373Y240D01*
X373D01*
X382Y217D01*
X400Y210D01*
Y240D01*
X410D01*
Y210D01*
X428Y217D01*
X428D01*
X428D01*
X432Y215D01*
Y207D01*
X455D01*
Y232D01*
X460D01*
Y237D01*
X488D01*
Y253D01*
X489Y254D01*
X494Y252D01*
X495Y250D01*
X510Y244D01*
X525Y250D01*
X531Y265D01*
X525Y280D01*
X510Y286D01*
X508Y285D01*
X494Y299D01*
X488Y302D01*
Y313D01*
X432D01*
Y291D01*
X391D01*
X379Y286D01*
X369Y276D01*
X207D01*
X171Y312D01*
Y389D01*
X201D01*
Y375D01*
X339D01*
Y435D01*
D02*
G37*
G36*
X895Y421D02*
X880Y415D01*
X874Y400D01*
X880Y385D01*
X895Y379D01*
X910Y385D01*
X916Y400D01*
X910Y415D01*
X895Y421D01*
D02*
G37*
G36*
X1130D02*
X1115Y415D01*
X1109Y400D01*
X1115Y385D01*
X1130Y379D01*
X1145Y385D01*
X1151Y400D01*
X1145Y415D01*
X1130Y421D01*
D02*
G37*
G36*
X985Y316D02*
X970Y310D01*
X964Y295D01*
X970Y280D01*
X985Y274D01*
X1000Y280D01*
X1006Y295D01*
X1000Y310D01*
X985Y316D01*
D02*
G37*
G36*
X665Y286D02*
X615Y276D01*
X573Y247D01*
X544Y205D01*
X534Y155D01*
X544Y105D01*
X573Y63D01*
X615Y34D01*
X665Y24D01*
X715Y34D01*
X757Y63D01*
X786Y105D01*
X796Y155D01*
X786Y205D01*
X757Y247D01*
X715Y276D01*
X665Y286D01*
D02*
G37*
G36*
X488Y227D02*
X465D01*
Y207D01*
X488D01*
Y227D01*
D02*
G37*
G36*
X1185Y256D02*
X1170Y250D01*
X1164Y235D01*
X1170Y220D01*
X1185Y214D01*
X1200Y220D01*
X1206Y235D01*
X1200Y250D01*
X1185Y256D01*
D02*
G37*
G36*
X1305Y421D02*
X1290Y415D01*
X1284Y400D01*
X1290Y385D01*
X1305Y379D01*
X1320Y385D01*
X1326Y400D01*
X1320Y415D01*
X1305Y421D01*
D02*
G37*
G36*
X385Y665D02*
X367Y658D01*
X360Y640D01*
X385D01*
Y665D01*
D02*
G37*
G36*
X1185Y591D02*
X1170Y585D01*
X1164Y570D01*
X1170Y555D01*
X1185Y549D01*
X1200Y555D01*
X1206Y570D01*
X1200Y585D01*
X1185Y591D01*
D02*
G37*
G36*
X488Y678D02*
X465D01*
Y658D01*
X488D01*
Y678D01*
D02*
G37*
G36*
X665Y781D02*
X615Y771D01*
X573Y742D01*
X544Y700D01*
X534Y650D01*
X544Y600D01*
X573Y558D01*
X615Y529D01*
X665Y519D01*
X715Y529D01*
X751Y554D01*
X755Y550D01*
X713Y474D01*
X488D01*
Y483D01*
X476D01*
Y572D01*
X488D01*
Y623D01*
D01*
Y623D01*
X488Y623D01*
Y627D01*
X488D01*
Y648D01*
X460D01*
Y653D01*
X455D01*
Y678D01*
X432D01*
Y669D01*
X408D01*
X397Y664D01*
X395Y665D01*
Y635D01*
X390D01*
Y630D01*
X360D01*
X367Y612D01*
X369Y612D01*
X370Y607D01*
X277Y513D01*
X275D01*
Y489D01*
X339D01*
Y513D01*
X329D01*
X327Y518D01*
X401Y592D01*
X406Y604D01*
X406Y604D01*
X406Y604D01*
Y610D01*
X413Y612D01*
X422Y635D01*
X422Y635D01*
X422Y635D01*
X423Y636D01*
X432D01*
Y627D01*
X432Y627D01*
X432Y623D01*
X432D01*
Y572D01*
X444D01*
Y483D01*
X432D01*
Y432D01*
X432Y432D01*
X432Y428D01*
X432D01*
Y398D01*
X377Y342D01*
X339D01*
Y356D01*
X201D01*
Y297D01*
X339D01*
Y310D01*
X384D01*
X395Y315D01*
X457Y377D01*
X488D01*
Y428D01*
D01*
Y428D01*
X488Y428D01*
Y432D01*
X488D01*
Y441D01*
X723D01*
X725Y442D01*
X727Y442D01*
X730Y445D01*
X734Y446D01*
X735Y448D01*
X737Y450D01*
X880Y710D01*
X1009Y732D01*
X1026Y681D01*
X1024Y675D01*
X1030Y660D01*
X1045Y654D01*
X1060Y660D01*
X1066Y675D01*
X1060Y690D01*
X1057Y692D01*
X1035Y755D01*
X1032Y759D01*
X1029Y763D01*
X1028Y764D01*
X1027Y765D01*
X1022Y765D01*
X1017Y766D01*
X867Y741D01*
X866Y740D01*
X865Y741D01*
X861Y737D01*
X857Y734D01*
X857Y733D01*
X856Y733D01*
X795Y623D01*
X791Y625D01*
X796Y650D01*
X786Y700D01*
X757Y742D01*
X715Y771D01*
X665Y781D01*
D02*
G37*
G36*
X1075Y591D02*
X1060Y585D01*
X1054Y570D01*
X1060Y555D01*
X1075Y549D01*
X1090Y555D01*
X1096Y570D01*
X1090Y585D01*
X1075Y591D01*
D02*
G37*
G36*
X339Y479D02*
X275D01*
Y454D01*
X339D01*
Y479D01*
D02*
G37*
G36*
X265D02*
X201D01*
Y454D01*
X265D01*
Y479D01*
D02*
G37*
G36*
Y513D02*
X201D01*
Y489D01*
X265D01*
Y513D01*
D02*
G37*
G36*
X985Y526D02*
X970Y520D01*
X964Y505D01*
X970Y490D01*
X985Y484D01*
X1000Y490D01*
X1006Y505D01*
X1000Y520D01*
X985Y526D01*
D02*
G37*
%LPD*%
D10*
X460Y458D02*
D03*
Y402D02*
D03*
Y653D02*
D03*
Y597D02*
D03*
X460Y232D02*
D03*
Y288D02*
D03*
D11*
X73Y570D02*
D03*
Y240D02*
D03*
D12*
X270Y326D02*
D03*
Y484D02*
D03*
Y405D02*
D03*
Y326D02*
D03*
D13*
X1020Y750D02*
X1045Y675D01*
X870Y725D02*
X1020Y750D01*
X723Y458D02*
X870Y725D01*
X460Y458D02*
X723D01*
X384Y326D02*
X460Y402D01*
X270Y326D02*
X384D01*
X482Y288D02*
X505Y265D01*
X460Y288D02*
X482D01*
X447Y275D02*
X460Y288D01*
X391Y275D02*
X447D01*
X376Y260D02*
X391Y275D01*
X405Y240D02*
X452D01*
X460Y465D02*
Y597D01*
X270Y484D02*
X390Y604D01*
Y635D01*
X408Y653D01*
X460D01*
X505Y265D02*
X510D01*
X155Y405D02*
X270D01*
X155Y305D02*
Y405D01*
Y305D02*
X200Y260D01*
X376D01*
X270Y484D02*
X319D01*
D14*
X665Y155D02*
D03*
Y650D02*
D03*
D15*
X754Y155D02*
D03*
X728Y92D02*
D03*
X665Y66D02*
D03*
X602Y92D02*
D03*
X576Y155D02*
D03*
X665Y244D02*
D03*
X728Y218D02*
D03*
X602D02*
D03*
Y713D02*
D03*
X728D02*
D03*
X665Y739D02*
D03*
X576Y650D02*
D03*
X602Y587D02*
D03*
X665Y561D02*
D03*
X728Y587D02*
D03*
X754Y650D02*
D03*
X390Y635D02*
D03*
X405Y240D02*
D03*
D16*
X510Y265D02*
D03*
X1045Y675D02*
D03*
X1075Y570D02*
D03*
X1185D02*
D03*
X1305Y400D02*
D03*
X1130D02*
D03*
X1185Y235D02*
D03*
X985Y295D02*
D03*
Y505D02*
D03*
X895Y400D02*
D03*
M02*
