%FSLAX23Y23*%
%MOIN*%
G70*
G01*
G75*
%ADD10C,0.004*%
%ADD11C,0.005*%
%ADD12C,0.007*%
D10*
X441Y464D02*
X479D01*
X441Y396D02*
X479D01*
Y464D01*
X441Y396D02*
Y464D01*
Y659D02*
X479D01*
X441Y591D02*
X479D01*
Y659D01*
X441Y591D02*
Y659D01*
X441Y226D02*
X479D01*
X441Y294D02*
X479D01*
X441Y226D02*
Y294D01*
X479Y226D02*
Y294D01*
X438Y477D02*
X482D01*
X438Y383D02*
X482D01*
Y477D01*
X438Y383D02*
Y477D01*
X460Y411D02*
Y449D01*
X441Y430D02*
X479D01*
X438Y672D02*
X482D01*
X438Y578D02*
X482D01*
Y672D01*
X438Y578D02*
Y672D01*
X460Y606D02*
Y644D01*
X441Y625D02*
X479D01*
X438Y213D02*
X482D01*
X438Y307D02*
X482D01*
X438Y213D02*
Y307D01*
X482Y213D02*
Y307D01*
X460Y241D02*
Y279D01*
X441Y260D02*
X479D01*
D11*
X606Y155D02*
X724D01*
X665Y96D02*
Y214D01*
X744Y155D02*
X763D01*
X754Y145D02*
Y165D01*
X718Y92D02*
X737D01*
X728Y83D02*
Y102D01*
X655Y66D02*
X675D01*
X665Y57D02*
Y76D01*
X593Y92D02*
X612D01*
X602Y83D02*
Y102D01*
X567Y155D02*
X586D01*
X576Y145D02*
Y165D01*
X655Y244D02*
X675D01*
X665Y234D02*
Y253D01*
X718Y218D02*
X737D01*
X728Y208D02*
Y227D01*
X593Y218D02*
X612D01*
X602Y208D02*
Y227D01*
X593Y713D02*
X612D01*
X602Y703D02*
Y722D01*
X718Y713D02*
X737D01*
X728Y703D02*
Y722D01*
X655Y739D02*
X675D01*
X665Y729D02*
Y748D01*
X567Y650D02*
X586D01*
X576Y640D02*
Y660D01*
X593Y587D02*
X612D01*
X602Y578D02*
Y597D01*
X655Y561D02*
X675D01*
X665Y552D02*
Y571D01*
X718Y587D02*
X737D01*
X728Y578D02*
Y597D01*
X744Y650D02*
X763D01*
X754Y640D02*
Y660D01*
X606Y650D02*
X724D01*
X665Y591D02*
Y709D01*
X506Y265D02*
X514D01*
X510Y261D02*
Y269D01*
X1041Y675D02*
X1049D01*
X1045Y671D02*
Y679D01*
X1071Y570D02*
X1079D01*
X1075Y566D02*
Y574D01*
X1181Y570D02*
X1189D01*
X1185Y566D02*
Y574D01*
X1301Y400D02*
X1309D01*
X1305Y396D02*
Y404D01*
X1126Y400D02*
X1134D01*
X1130Y396D02*
Y404D01*
X1181Y235D02*
X1189D01*
X1185Y231D02*
Y239D01*
X981Y295D02*
X989D01*
X985Y291D02*
Y299D01*
X981Y505D02*
X989D01*
X985Y501D02*
Y509D01*
X891Y400D02*
X899D01*
X895Y396D02*
Y404D01*
X380Y635D02*
X400D01*
X390Y625D02*
Y645D01*
X395Y240D02*
X415D01*
X405Y230D02*
Y250D01*
M02*
